<svg width="8" height="14" viewBox="0 0 8 14" fill="none" xmlns="http://www.w3.org/2000/svg">
<path d="M0.292787 13.0087C0.105316 12.8212 0 12.5669 0 12.3017C0 12.0365 0.105316 11.7822 0.292787 11.5947L5.24279 6.6447L0.292787 1.6947C0.110629 1.50609 0.00983372 1.25349 0.0121121 0.991295C0.0143906 0.729098 0.11956 0.478285 0.304968 0.292877C0.490376 0.10747 0.741188 0.00230122 1.00339 2.28882e-05C1.26558 -0.00225544 1.51818 0.0985384 1.70679 0.280697L7.36379 5.9377C7.55126 6.12522 7.65657 6.37953 7.65657 6.6447C7.65657 6.90986 7.55126 7.16417 7.36379 7.3517L1.70679 13.0087C1.51926 13.1962 1.26495 13.3015 0.999786 13.3015C0.734622 13.3015 0.480314 13.1962 0.292787 13.0087Z" fill="white"/>
</svg>
