<svg width="320" height="256" viewBox="0 0 320 256" fill="none" xmlns="http://www.w3.org/2000/svg">
<path d="M0 5C0 2.23858 2.23858 0 5 0H315C317.761 0 320 2.23858 320 5V251C320 253.761 317.761 256 315 256H5C2.23858 256 0 253.761 0 251V5Z" fill="#F2808C" fill-opacity="0.8"/>
<path d="M9 7H310C312.209 7 314 8.79086 314 11V245C314 247.209 312.209 249 310 249H9C6.79086 249 5 247.209 5 245V11C5 8.79086 6.79086 7 9 7Z" stroke="white" stroke-width="2"/>
<path d="M25.626 97.77V102.726H24.618V98.75H22.588V97.77H25.626ZM25.626 102.292C25.962 102.815 26.4287 103.202 27.026 103.454C27.6233 103.697 28.3327 103.837 29.154 103.874C29.546 103.883 30.0173 103.893 30.568 103.902C31.128 103.902 31.716 103.902 32.332 103.902C32.948 103.893 33.5407 103.879 34.11 103.86C34.6887 103.841 35.1927 103.818 35.622 103.79C35.5847 103.865 35.5427 103.963 35.496 104.084C35.4493 104.205 35.4027 104.331 35.356 104.462C35.3187 104.593 35.2907 104.714 35.272 104.826C34.88 104.835 34.418 104.845 33.886 104.854C33.3633 104.873 32.808 104.882 32.22 104.882C31.6413 104.891 31.0813 104.891 30.54 104.882C30.008 104.873 29.546 104.863 29.154 104.854C28.2487 104.817 27.4693 104.667 26.816 104.406C26.1627 104.145 25.6167 103.734 25.178 103.174C24.8233 103.482 24.4593 103.785 24.086 104.084C23.7127 104.392 23.3253 104.7 22.924 105.008L22.406 103.972C22.7513 103.748 23.1293 103.491 23.54 103.202C23.9507 102.903 24.3427 102.6 24.716 102.292H25.626ZM22.812 93.206L23.554 92.562C23.8527 92.7673 24.156 93.0053 24.464 93.276C24.7813 93.5373 25.0707 93.8033 25.332 94.074C25.5933 94.3353 25.7987 94.5873 25.948 94.83L25.15 95.558C25.01 95.3153 24.8093 95.0587 24.548 94.788C24.296 94.508 24.0207 94.2327 23.722 93.962C23.4233 93.682 23.12 93.43 22.812 93.206ZM28.426 94.592L29.084 93.99C29.532 94.1487 30.0033 94.3353 30.498 94.55C31.002 94.7553 31.4827 94.9653 31.94 95.18C32.4067 95.3947 32.794 95.5953 33.102 95.782L32.402 96.454C32.1127 96.2673 31.7393 96.062 31.282 95.838C30.834 95.614 30.358 95.3947 29.854 95.18C29.35 94.956 28.874 94.76 28.426 94.592ZM27.082 95.754H34.32V96.566H28.076V103.006H27.082V95.754ZM33.83 95.754H34.838V101.956C34.838 102.217 34.8053 102.418 34.74 102.558C34.6747 102.689 34.5487 102.796 34.362 102.88C34.1753 102.955 33.928 103.001 33.62 103.02C33.3213 103.029 32.934 103.034 32.458 103.034C32.4393 102.903 32.402 102.759 32.346 102.6C32.29 102.432 32.2293 102.292 32.164 102.18C32.5 102.189 32.7987 102.194 33.06 102.194C33.3307 102.194 33.508 102.194 33.592 102.194C33.6853 102.185 33.746 102.161 33.774 102.124C33.8113 102.087 33.83 102.031 33.83 101.956V95.754ZM27.096 92.814H34.082V93.654H27.096V92.814ZM27.628 97.798H34.222V98.582H27.628V97.798ZM27.628 99.856H34.222V100.682H27.628V99.856ZM30.442 96.09H31.394V102.95H30.442V96.09ZM33.732 92.814H33.97L34.18 92.758L34.838 93.276C34.5207 93.5653 34.1613 93.8547 33.76 94.144C33.3587 94.424 32.9387 94.6853 32.5 94.928C32.0613 95.1707 31.6273 95.3807 31.198 95.558C31.1327 95.4647 31.044 95.3573 30.932 95.236C30.82 95.1147 30.722 95.0167 30.638 94.942C31.03 94.7833 31.422 94.5967 31.814 94.382C32.206 94.1673 32.57 93.9433 32.906 93.71C33.242 93.4673 33.5173 93.234 33.732 93.01V92.814ZM43.056 99.058H44.134V105.12H43.056V99.058ZM40.802 97.126V98.498H46.108V97.126H40.802ZM39.794 96.328H47.172V99.296H39.794V96.328ZM38.548 100.458H47.914V101.41H39.598V104.49H38.548V100.458ZM47.396 100.458H48.46V103.398C48.46 103.669 48.4227 103.879 48.348 104.028C48.2827 104.187 48.138 104.308 47.914 104.392C47.69 104.467 47.396 104.509 47.032 104.518C46.668 104.537 46.2153 104.546 45.674 104.546C45.646 104.406 45.5947 104.247 45.52 104.07C45.4547 103.893 45.3847 103.734 45.31 103.594C45.59 103.603 45.8513 103.613 46.094 103.622C46.346 103.622 46.5607 103.622 46.738 103.622C46.9153 103.622 47.0413 103.622 47.116 103.622C47.228 103.603 47.3027 103.58 47.34 103.552C47.3773 103.524 47.396 103.468 47.396 103.384V100.458ZM42.972 92.226H44.036V94.788H42.972V92.226ZM37.624 94.41H49.314V97.42H48.278V95.334H38.632V97.42H37.624V94.41ZM38.772 92.758L39.724 92.366C39.948 92.618 40.1673 92.898 40.382 93.206C40.606 93.514 40.7787 93.78 40.9 94.004L39.906 94.48C39.8033 94.2373 39.64 93.9527 39.416 93.626C39.2013 93.2993 38.9867 93.01 38.772 92.758ZM47.102 92.352L48.194 92.73C47.9607 93.0287 47.718 93.332 47.466 93.64C47.214 93.9387 46.9853 94.1953 46.78 94.41L45.912 94.06C46.052 93.9107 46.192 93.7333 46.332 93.528C46.4813 93.3227 46.6213 93.1173 46.752 92.912C46.892 92.6973 47.0087 92.5107 47.102 92.352ZM108.506 120.56H124.186V122.04H110.026V137.62H108.506V120.56ZM123.506 120.56H125.026V135.6C125.026 136.08 124.96 136.447 124.826 136.7C124.693 136.967 124.453 137.173 124.106 137.32C123.773 137.44 123.313 137.513 122.726 137.54C122.153 137.567 121.413 137.58 120.506 137.58C120.493 137.447 120.453 137.287 120.386 137.1C120.32 136.913 120.246 136.727 120.166 136.54C120.1 136.367 120.026 136.213 119.946 136.08C120.4 136.093 120.833 136.1 121.246 136.1C121.673 136.1 122.04 136.1 122.346 136.1C122.653 136.1 122.873 136.1 123.006 136.1C123.193 136.087 123.32 136.047 123.386 135.98C123.466 135.9 123.506 135.773 123.506 135.6V120.56ZM109.346 127.94H124.226V129.42H109.346V127.94ZM115.906 121.3H117.406V128.68H115.906V121.3ZM130.652 138.744C130.008 137.699 129.504 136.602 129.14 135.454C128.776 134.297 128.594 133.027 128.594 131.646C128.594 130.274 128.776 129.009 129.14 127.852C129.504 126.695 130.008 125.593 130.652 124.548L131.436 124.912C130.839 125.911 130.391 126.989 130.092 128.146C129.803 129.294 129.658 130.461 129.658 131.646C129.658 132.841 129.803 134.017 130.092 135.174C130.391 136.322 130.839 137.395 131.436 138.394L130.652 138.744ZM138.883 124.632L139.765 124.254C140.026 124.627 140.273 125.038 140.507 125.486C140.749 125.925 140.922 126.303 141.025 126.62L140.101 127.054C140.007 126.727 139.844 126.335 139.611 125.878C139.387 125.421 139.144 125.005 138.883 124.632ZM144.091 124.226L145.141 124.618C144.917 125.029 144.674 125.453 144.413 125.892C144.161 126.331 143.923 126.709 143.699 127.026L142.817 126.676C142.966 126.452 143.12 126.2 143.279 125.92C143.437 125.631 143.587 125.341 143.727 125.052C143.876 124.753 143.997 124.478 144.091 124.226ZM140.185 131.408H141.235C141.179 132.024 141.085 132.617 140.955 133.186C140.824 133.755 140.633 134.287 140.381 134.782C140.138 135.277 139.811 135.72 139.401 136.112C138.99 136.513 138.467 136.854 137.833 137.134C137.767 137.013 137.669 136.873 137.539 136.714C137.417 136.555 137.301 136.429 137.189 136.336C137.767 136.093 138.239 135.804 138.603 135.468C138.967 135.123 139.256 134.735 139.471 134.306C139.685 133.877 139.844 133.419 139.947 132.934C140.059 132.439 140.138 131.931 140.185 131.408ZM142.397 131.282H143.419V135.58C143.419 135.757 143.437 135.874 143.475 135.93C143.512 135.977 143.605 136 143.755 136C143.801 136 143.89 136 144.021 136C144.151 136 144.282 136 144.413 136C144.543 136 144.637 136 144.693 136C144.795 136 144.87 135.963 144.917 135.888C144.973 135.804 145.01 135.636 145.029 135.384C145.057 135.132 145.075 134.754 145.085 134.25C145.15 134.306 145.234 134.362 145.337 134.418C145.449 134.465 145.565 134.511 145.687 134.558C145.808 134.595 145.911 134.628 145.995 134.656C145.967 135.263 145.911 135.729 145.827 136.056C145.752 136.392 145.631 136.625 145.463 136.756C145.304 136.887 145.085 136.952 144.805 136.952C144.758 136.952 144.679 136.952 144.567 136.952C144.455 136.952 144.333 136.952 144.203 136.952C144.072 136.952 143.951 136.952 143.839 136.952C143.736 136.952 143.657 136.952 143.601 136.952C143.283 136.952 143.036 136.91 142.859 136.826C142.681 136.742 142.56 136.597 142.495 136.392C142.429 136.196 142.397 135.925 142.397 135.58V131.282ZM139.737 128.006V130.736H144.161V128.006H139.737ZM138.729 127.068H145.197V131.66H138.729V127.068ZM135.425 125.402H136.461V137.092H135.425V125.402ZM133.143 128.188H138.211V129.168H133.143V128.188ZM135.481 128.566L136.139 128.846C135.999 129.341 135.826 129.854 135.621 130.386C135.415 130.909 135.191 131.431 134.949 131.954C134.715 132.467 134.463 132.953 134.193 133.41C133.931 133.858 133.665 134.241 133.395 134.558C133.339 134.418 133.255 134.255 133.143 134.068C133.04 133.881 132.942 133.723 132.849 133.592C133.11 133.312 133.367 132.976 133.619 132.584C133.871 132.192 134.113 131.767 134.347 131.31C134.589 130.853 134.809 130.391 135.005 129.924C135.201 129.448 135.359 128.995 135.481 128.566ZM137.511 124.436L138.239 125.248C137.809 125.416 137.319 125.575 136.769 125.724C136.218 125.873 135.649 126.004 135.061 126.116C134.482 126.219 133.917 126.307 133.367 126.382C133.348 126.27 133.306 126.139 133.241 125.99C133.175 125.831 133.115 125.696 133.059 125.584C133.581 125.491 134.118 125.388 134.669 125.276C135.229 125.164 135.756 125.038 136.251 124.898C136.745 124.749 137.165 124.595 137.511 124.436ZM136.405 129.98C136.498 130.064 136.633 130.199 136.811 130.386C136.997 130.563 137.198 130.759 137.413 130.974C137.627 131.179 137.819 131.375 137.987 131.562C138.164 131.749 138.29 131.884 138.365 131.968L137.735 132.794C137.651 132.654 137.529 132.477 137.371 132.262C137.221 132.047 137.053 131.819 136.867 131.576C136.68 131.333 136.503 131.109 136.335 130.904C136.167 130.699 136.027 130.535 135.915 130.414L136.405 129.98ZM152.547 124.954H155.487V125.948H152.547V124.954ZM154.843 124.954H155.991C156.084 126.018 156.224 127.026 156.411 127.978C156.597 128.921 156.854 129.784 157.181 130.568C157.517 131.343 157.932 132.024 158.427 132.612C158.931 133.2 159.533 133.676 160.233 134.04C160.149 134.087 160.055 134.157 159.953 134.25C159.85 134.343 159.747 134.441 159.645 134.544C159.551 134.647 159.472 134.74 159.407 134.824C158.697 134.413 158.086 133.9 157.573 133.284C157.069 132.659 156.649 131.949 156.313 131.156C155.977 130.353 155.711 129.476 155.515 128.524C155.319 127.563 155.169 126.541 155.067 125.458H154.843V124.954ZM154.899 127.656L155.977 127.824C155.65 129.411 155.151 130.787 154.479 131.954C153.816 133.121 152.962 134.077 151.917 134.824C151.87 134.759 151.795 134.679 151.693 134.586C151.599 134.483 151.497 134.385 151.385 134.292C151.273 134.189 151.175 134.105 151.091 134.04C152.127 133.387 152.948 132.519 153.555 131.436C154.171 130.353 154.619 129.093 154.899 127.656ZM150.545 129.77V134.726H149.523V130.75H147.563V129.77H150.545ZM150.545 134.264C150.881 134.777 151.347 135.16 151.945 135.412C152.542 135.664 153.247 135.804 154.059 135.832C154.441 135.851 154.903 135.865 155.445 135.874C155.995 135.874 156.569 135.869 157.167 135.86C157.773 135.851 158.357 135.837 158.917 135.818C159.477 135.799 159.967 135.776 160.387 135.748C160.34 135.823 160.293 135.925 160.247 136.056C160.2 136.187 160.158 136.317 160.121 136.448C160.083 136.588 160.055 136.709 160.037 136.812C159.654 136.831 159.201 136.845 158.679 136.854C158.156 136.863 157.615 136.868 157.055 136.868C156.495 136.877 155.949 136.877 155.417 136.868C154.894 136.868 154.441 136.863 154.059 136.854C153.144 136.817 152.36 136.667 151.707 136.406C151.063 136.145 150.517 135.734 150.069 135.174C149.733 135.473 149.387 135.771 149.033 136.07C148.678 136.378 148.309 136.691 147.927 137.008L147.381 135.93C147.717 135.706 148.076 135.449 148.459 135.16C148.851 134.861 149.229 134.563 149.593 134.264H150.545ZM147.717 125.206L148.487 124.576C148.795 124.772 149.107 125.001 149.425 125.262C149.742 125.514 150.031 125.771 150.293 126.032C150.563 126.293 150.783 126.536 150.951 126.76L150.111 127.46C149.971 127.236 149.765 126.989 149.495 126.718C149.233 126.447 148.944 126.181 148.627 125.92C148.319 125.649 148.015 125.411 147.717 125.206ZM162.683 138.744L161.885 138.394C162.491 137.395 162.944 136.322 163.243 135.174C163.541 134.017 163.691 132.841 163.691 131.646C163.691 130.461 163.541 129.294 163.243 128.146C162.944 126.989 162.491 125.911 161.885 124.912L162.683 124.548C163.336 125.593 163.84 126.695 164.195 127.852C164.559 129.009 164.741 130.274 164.741 131.646C164.741 133.027 164.559 134.297 164.195 135.454C163.84 136.602 163.336 137.699 162.683 138.744Z" fill="white"/>
<path d="M24.816 136V133.568H30.064V116.064H25.872V114.208C26.9173 114.016 27.824 113.781 28.592 113.504C29.3813 113.227 30.096 112.907 30.736 112.544H32.976V133.568H37.68V136H24.816ZM43.11 142.08L42.406 140.352C43.4087 139.904 44.198 139.296 44.774 138.528C45.35 137.76 45.6273 136.885 45.606 135.904L45.286 133.28L46.726 135.424C46.5127 135.659 46.278 135.829 46.022 135.936C45.7873 136.021 45.5313 136.064 45.254 136.064C44.678 136.064 44.1767 135.883 43.75 135.52C43.3233 135.157 43.11 134.656 43.11 134.016C43.11 133.376 43.3233 132.875 43.75 132.512C44.198 132.149 44.7207 131.968 45.318 131.968C46.086 131.968 46.6833 132.277 47.11 132.896C47.558 133.493 47.782 134.325 47.782 135.392C47.782 136.928 47.3553 138.272 46.502 139.424C45.67 140.576 44.5393 141.461 43.11 142.08ZM59.4723 136.416C58.0003 136.416 56.7096 135.968 55.6003 135.072C54.5123 134.176 53.6696 132.821 53.0723 131.008C52.4749 129.195 52.1763 126.923 52.1763 124.192C52.1763 121.461 52.4749 119.211 53.0723 117.44C53.6696 115.648 54.5123 114.315 55.6003 113.44C56.7096 112.565 58.0003 112.128 59.4723 112.128C60.9656 112.128 62.2563 112.576 63.3443 113.472C64.4323 114.347 65.2749 115.669 65.8723 117.44C66.4696 119.211 66.7683 121.461 66.7683 124.192C66.7683 126.923 66.4696 129.195 65.8723 131.008C65.2749 132.821 64.4323 134.176 63.3443 135.072C62.2563 135.968 60.9656 136.416 59.4723 136.416ZM59.4723 134.048C60.3683 134.048 61.1469 133.707 61.8083 133.024C62.4909 132.341 63.0136 131.275 63.3763 129.824C63.7603 128.352 63.9523 126.475 63.9523 124.192C63.9523 121.909 63.7603 120.053 63.3763 118.624C63.0136 117.173 62.4909 116.117 61.8083 115.456C61.1469 114.773 60.3683 114.432 59.4723 114.432C58.5976 114.432 57.8189 114.773 57.1363 115.456C56.4536 116.117 55.9203 117.173 55.5363 118.624C55.1736 120.053 54.9923 121.909 54.9923 124.192C54.9923 126.475 55.1736 128.352 55.5363 129.824C55.9203 131.275 56.4536 132.341 57.1363 133.024C57.8189 133.707 58.5976 134.048 59.4723 134.048ZM78.1823 136.416C76.7103 136.416 75.4196 135.968 74.3103 135.072C73.2223 134.176 72.3796 132.821 71.7823 131.008C71.1849 129.195 70.8863 126.923 70.8863 124.192C70.8863 121.461 71.1849 119.211 71.7823 117.44C72.3796 115.648 73.2223 114.315 74.3103 113.44C75.4196 112.565 76.7103 112.128 78.1823 112.128C79.6756 112.128 80.9663 112.576 82.0543 113.472C83.1423 114.347 83.9849 115.669 84.5823 117.44C85.1796 119.211 85.4783 121.461 85.4783 124.192C85.4783 126.923 85.1796 129.195 84.5823 131.008C83.9849 132.821 83.1423 134.176 82.0543 135.072C80.9663 135.968 79.6756 136.416 78.1823 136.416ZM78.1823 134.048C79.0783 134.048 79.8569 133.707 80.5183 133.024C81.2009 132.341 81.7236 131.275 82.0863 129.824C82.4703 128.352 82.6623 126.475 82.6623 124.192C82.6623 121.909 82.4703 120.053 82.0863 118.624C81.7236 117.173 81.2009 116.117 80.5183 115.456C79.8569 114.773 79.0783 114.432 78.1823 114.432C77.3076 114.432 76.5289 114.773 75.8463 115.456C75.1636 116.117 74.6303 117.173 74.2463 118.624C73.8836 120.053 73.7023 121.909 73.7023 124.192C73.7023 126.475 73.8836 128.352 74.2463 129.824C74.6303 131.275 75.1636 132.341 75.8463 133.024C76.5289 133.707 77.3076 134.048 78.1823 134.048ZM96.8922 136.416C95.4202 136.416 94.1296 135.968 93.0202 135.072C91.9322 134.176 91.0896 132.821 90.4922 131.008C89.8949 129.195 89.5962 126.923 89.5962 124.192C89.5962 121.461 89.8949 119.211 90.4922 117.44C91.0896 115.648 91.9322 114.315 93.0202 113.44C94.1296 112.565 95.4202 112.128 96.8922 112.128C98.3856 112.128 99.6762 112.576 100.764 113.472C101.852 114.347 102.695 115.669 103.292 117.44C103.89 119.211 104.188 121.461 104.188 124.192C104.188 126.923 103.89 129.195 103.292 131.008C102.695 132.821 101.852 134.176 100.764 135.072C99.6762 135.968 98.3856 136.416 96.8922 136.416ZM96.8922 134.048C97.7882 134.048 98.5669 133.707 99.2282 133.024C99.9109 132.341 100.434 131.275 100.796 129.824C101.18 128.352 101.372 126.475 101.372 124.192C101.372 121.909 101.18 120.053 100.796 118.624C100.434 117.173 99.9109 116.117 99.2282 115.456C98.5669 114.773 97.7882 114.432 96.8922 114.432C96.0176 114.432 95.2389 114.773 94.5562 115.456C93.8736 116.117 93.3402 117.173 92.9562 118.624C92.5936 120.053 92.4122 121.909 92.4122 124.192C92.4122 126.475 92.5936 128.352 92.9562 129.824C93.3402 131.275 93.8736 132.341 94.5562 133.024C95.2389 133.707 96.0176 134.048 96.8922 134.048Z" fill="#FFFB00"/>
<line x1="23.5799" y1="139.71" x2="100.71" y2="110.42" stroke="black" stroke-width="2" stroke-linecap="round"/>
<path d="M29.072 49.928L32.72 51.048C32.1013 52.84 31.3547 54.6533 30.48 56.488C29.6267 58.3013 28.688 60.0293 27.664 61.672C26.6613 63.2933 25.616 64.7227 24.528 65.96C24.4 65.64 24.208 65.2347 23.952 64.744C23.7173 64.232 23.4613 63.72 23.184 63.208C22.9067 62.696 22.6507 62.28 22.416 61.96C23.3333 60.9787 24.1973 59.848 25.008 58.568C25.84 57.2667 26.5973 55.88 27.28 54.408C27.984 52.936 28.5813 51.4427 29.072 49.928ZM26.48 58.792L30.128 55.144V55.176V79.816H26.48V58.792ZM40.112 49.96H43.856V79.624H40.112V49.96ZM31.984 55.528H52.72V59.176H31.984V55.528ZM35.888 71.048H48.176V74.472H35.888V71.048ZM45.232 57.576C45.7867 59.368 46.5013 61.1813 47.376 63.016C48.2507 64.8293 49.2213 66.5253 50.288 68.104C51.3547 69.6613 52.464 70.984 53.616 72.072C53.168 72.392 52.656 72.84 52.08 73.416C51.5253 73.992 51.0773 74.536 50.736 75.048C49.584 73.768 48.4853 72.232 47.44 70.44C46.3947 68.648 45.456 66.7173 44.624 64.648C43.792 62.5573 43.0773 60.456 42.48 58.344L45.232 57.576ZM38.928 57.256L41.712 58.024C41.1147 60.2427 40.3787 62.4187 39.504 64.552C38.6293 66.6853 37.648 68.6587 36.56 70.472C35.472 72.2853 34.2987 73.8427 33.04 75.144C32.8267 74.8453 32.56 74.5147 32.24 74.152C31.92 73.768 31.5787 73.4053 31.216 73.064C30.8747 72.7227 30.5653 72.4453 30.288 72.232C31.5253 71.144 32.688 69.8 33.776 68.2C34.8853 66.5787 35.8773 64.8293 36.752 62.952C37.648 61.0533 38.3733 59.1547 38.928 57.256ZM72.624 65.16V68.104H80.816V65.16H72.624ZM69.488 62.376H84.08V70.888H69.488V62.376ZM76.464 53.16C75.9947 54.0133 75.3867 54.9093 74.64 55.848C73.8933 56.7867 73.0507 57.6827 72.112 58.536C71.1947 59.3893 70.224 60.136 69.2 60.776C69.0293 60.3067 68.7733 59.7733 68.432 59.176C68.0907 58.5573 67.76 58.056 67.44 57.672C68.464 57.096 69.4347 56.3707 70.352 55.496C71.2907 54.6213 72.1333 53.6933 72.88 52.712C73.6267 51.7093 74.224 50.7493 74.672 49.832H78.032C78.6507 50.792 79.3653 51.752 80.176 52.712C80.9867 53.6507 81.8507 54.504 82.768 55.272C83.6853 56.0187 84.6133 56.6267 85.552 57.096C85.2107 57.5227 84.8587 58.056 84.496 58.696C84.1547 59.3147 83.8667 59.88 83.632 60.392C82.7147 59.8373 81.808 59.1653 80.912 58.376C80.016 57.5653 79.184 56.712 78.416 55.816C77.648 54.92 76.9973 54.0347 76.464 53.16ZM74.96 59.016H78.352V65.288C78.352 66.568 78.256 67.88 78.064 69.224C77.8933 70.5467 77.5093 71.8587 76.912 73.16C76.336 74.44 75.4827 75.656 74.352 76.808C73.2213 77.96 71.7067 79.0053 69.808 79.944C69.6373 79.6667 69.4133 79.3573 69.136 79.016C68.88 78.696 68.6027 78.3653 68.304 78.024C68.0053 77.704 67.728 77.448 67.472 77.256C69.1573 76.4667 70.4907 75.6027 71.472 74.664C72.4747 73.704 73.2213 72.7013 73.712 71.656C74.224 70.5893 74.5547 69.512 74.704 68.424C74.8747 67.336 74.96 66.2693 74.96 65.224V59.016ZM78.672 69.224C79.248 70.888 80.1013 72.4027 81.232 73.768C82.384 75.112 83.7813 76.1253 85.424 76.808C85.1467 77.0427 84.848 77.3307 84.528 77.672C84.2293 78.0347 83.9413 78.408 83.664 78.792C83.3867 79.176 83.152 79.528 82.96 79.848C81.168 78.888 79.6853 77.544 78.512 75.816C77.36 74.088 76.4427 72.136 75.76 69.96L78.672 69.224ZM71.696 57.704H81.584V60.68H71.696V57.704ZM58.32 55.848H67.664V58.76H58.32V55.848ZM58.32 60.712H67.664V63.592H58.32V60.712ZM56.496 65.576H67.472V68.552H56.496V65.576ZM61.84 52.808H64.88V67.208H61.84V52.808ZM62.896 69.992L64.4 69.512C64.72 70.1307 65.0187 70.824 65.296 71.592C65.5947 72.36 65.7973 73.0213 65.904 73.576L64.336 74.152C64.2293 73.5973 64.0373 72.9253 63.76 72.136C63.504 71.3467 63.216 70.632 62.896 69.992ZM60.816 70.44L62.448 70.152C62.7253 70.9627 62.96 71.8587 63.152 72.84C63.344 73.8 63.4613 74.6213 63.504 75.304L61.808 75.656C61.7653 74.952 61.648 74.12 61.456 73.16C61.2853 72.1787 61.072 71.272 60.816 70.44ZM58.608 70.6L60.272 70.44C60.4427 71.3787 60.5493 72.4027 60.592 73.512C60.6347 74.6 60.6453 75.5387 60.624 76.328L58.864 76.584C58.928 75.7733 58.928 74.8133 58.864 73.704C58.8213 72.5947 58.736 71.56 58.608 70.6ZM56.24 69.928L58.352 70.344C58.3093 71.3253 58.224 72.296 58.096 73.256C57.9893 74.216 57.808 75.112 57.552 75.944C57.3173 76.7547 56.9867 77.4587 56.56 78.056L54.608 77C54.992 76.4453 55.2907 75.8053 55.504 75.08C55.7173 74.3333 55.8773 73.5227 55.984 72.648C56.112 71.752 56.1973 70.8453 56.24 69.928ZM56.496 51.016H68.304V54.12H59.664V67.624H56.496V51.016ZM65.808 65.576H68.944C68.944 65.576 68.944 65.736 68.944 66.056C68.944 66.376 68.9333 66.6427 68.912 66.856C68.8267 69.4373 68.72 71.528 68.592 73.128C68.464 74.728 68.3147 75.9653 68.144 76.84C67.9733 77.6933 67.76 78.28 67.504 78.6C67.248 78.9627 66.9707 79.2187 66.672 79.368C66.3733 79.5387 66.0213 79.656 65.616 79.72C65.296 79.784 64.88 79.816 64.368 79.816C63.8773 79.8373 63.3547 79.8373 62.8 79.816C62.7787 79.3467 62.6933 78.8347 62.544 78.28C62.3947 77.7253 62.2027 77.2453 61.968 76.84C62.3947 76.8827 62.7787 76.9147 63.12 76.936C63.4613 76.9573 63.7387 76.968 63.952 76.968C64.1227 76.968 64.272 76.936 64.4 76.872C64.528 76.808 64.656 76.7013 64.784 76.552C64.9547 76.3387 65.0933 75.88 65.2 75.176C65.328 74.472 65.4347 73.3947 65.52 71.944C65.6267 70.4933 65.7227 68.552 65.808 66.12V65.576ZM90.68 76.04C90.824 75.736 90.912 75.472 90.944 75.248C90.976 75.024 90.992 74.768 90.992 74.48C90.992 74.176 90.992 73.712 90.992 73.088C90.992 72.464 90.992 71.744 90.992 70.928C90.992 70.096 90.992 69.224 90.992 68.312C90.992 67.4 90.992 66.504 90.992 65.624C90.992 64.744 90.992 63.944 90.992 63.224C90.992 62.504 90.992 61.92 90.992 61.472C90.992 61.168 90.976 60.848 90.944 60.512C90.928 60.176 90.896 59.856 90.848 59.552C90.816 59.232 90.776 58.96 90.728 58.736H94.496C94.432 59.2 94.376 59.656 94.328 60.104C94.28 60.552 94.256 61.008 94.256 61.472C94.256 61.856 94.256 62.336 94.256 62.912C94.256 63.472 94.256 64.096 94.256 64.784C94.256 65.472 94.256 66.184 94.256 66.92C94.256 67.656 94.256 68.384 94.256 69.104C94.256 69.824 94.256 70.504 94.256 71.144C94.256 71.784 94.256 72.344 94.256 72.824C94.256 73.304 94.256 73.68 94.256 73.952C95.232 73.664 96.272 73.272 97.376 72.776C98.496 72.264 99.616 71.664 100.736 70.976C101.872 70.272 102.936 69.504 103.928 68.672C104.936 67.84 105.824 66.952 106.592 66.008L108.296 68.72C106.664 70.688 104.64 72.392 102.224 73.832C99.824 75.256 97.208 76.432 94.376 77.36C94.216 77.424 94.008 77.504 93.752 77.6C93.496 77.696 93.232 77.832 92.96 78.008L90.68 76.04ZM122.12 62.744C122.232 63 122.376 63.368 122.552 63.848C122.744 64.312 122.944 64.816 123.152 65.36C123.36 65.888 123.544 66.392 123.704 66.872C123.864 67.352 123.992 67.728 124.088 68L121.208 69.008C121.144 68.704 121.032 68.32 120.872 67.856C120.712 67.392 120.536 66.904 120.344 66.392C120.152 65.864 119.96 65.36 119.768 64.88C119.576 64.4 119.408 64 119.264 63.68L122.12 62.744ZM130.976 64.496C130.848 64.88 130.736 65.208 130.64 65.48C130.56 65.752 130.48 66.008 130.4 66.248C130.096 67.464 129.68 68.68 129.152 69.896C128.624 71.096 127.952 72.224 127.136 73.28C126.016 74.72 124.744 75.944 123.32 76.952C121.912 77.944 120.504 78.704 119.096 79.232L116.576 76.664C117.456 76.424 118.384 76.072 119.36 75.608C120.336 75.128 121.28 74.552 122.192 73.88C123.104 73.208 123.888 72.464 124.544 71.648C125.088 70.96 125.568 70.176 125.984 69.296C126.416 68.4 126.768 67.448 127.04 66.44C127.328 65.416 127.52 64.408 127.616 63.416L130.976 64.496ZM116.552 64.016C116.712 64.32 116.888 64.712 117.08 65.192C117.288 65.672 117.496 66.176 117.704 66.704C117.912 67.232 118.112 67.744 118.304 68.24C118.512 68.736 118.672 69.152 118.784 69.488L115.856 70.592C115.76 70.272 115.616 69.856 115.424 69.344C115.248 68.832 115.048 68.296 114.824 67.736C114.6 67.16 114.384 66.632 114.176 66.152C113.984 65.672 113.816 65.304 113.672 65.048L116.552 64.016ZM154.016 60.728C153.92 60.872 153.776 61.096 153.584 61.4C153.408 61.704 153.272 61.984 153.176 62.24C152.84 62.992 152.424 63.832 151.928 64.76C151.448 65.688 150.896 66.624 150.272 67.568C149.664 68.496 149.016 69.368 148.328 70.184C147.432 71.192 146.44 72.192 145.352 73.184C144.28 74.16 143.144 75.064 141.944 75.896C140.76 76.712 139.544 77.416 138.296 78.008L135.824 75.416C137.12 74.92 138.376 74.296 139.592 73.544C140.808 72.792 141.936 71.976 142.976 71.096C144.016 70.216 144.912 69.36 145.664 68.528C146.192 67.92 146.688 67.272 147.152 66.584C147.632 65.896 148.056 65.216 148.424 64.544C148.792 63.856 149.064 63.224 149.24 62.648C149.08 62.648 148.792 62.648 148.376 62.648C147.96 62.648 147.472 62.648 146.912 62.648C146.368 62.648 145.792 62.648 145.184 62.648C144.576 62.648 143.992 62.648 143.432 62.648C142.888 62.648 142.408 62.648 141.992 62.648C141.576 62.648 141.28 62.648 141.104 62.648C140.768 62.648 140.416 62.664 140.048 62.696C139.68 62.712 139.328 62.736 138.992 62.768C138.672 62.784 138.424 62.8 138.248 62.816V59.408C138.488 59.424 138.784 59.448 139.136 59.48C139.488 59.512 139.84 59.536 140.192 59.552C140.56 59.568 140.864 59.576 141.104 59.576C141.312 59.576 141.64 59.576 142.088 59.576C142.536 59.576 143.048 59.576 143.624 59.576C144.2 59.576 144.792 59.576 145.4 59.576C146.024 59.576 146.616 59.576 147.176 59.576C147.752 59.576 148.248 59.576 148.664 59.576C149.08 59.576 149.384 59.576 149.576 59.576C150.104 59.576 150.584 59.544 151.016 59.48C151.464 59.416 151.808 59.344 152.048 59.264L154.016 60.728ZM148.64 68.192C149.264 68.688 149.928 69.264 150.632 69.92C151.336 70.576 152.032 71.256 152.72 71.96C153.408 72.664 154.04 73.344 154.616 74C155.208 74.64 155.704 75.2 156.104 75.68L153.368 78.056C152.776 77.24 152.096 76.392 151.328 75.512C150.576 74.632 149.776 73.76 148.928 72.896C148.096 72.016 147.248 71.184 146.384 70.4L148.64 68.192ZM163.784 58.76C164.2 59.048 164.688 59.4 165.248 59.816C165.808 60.232 166.384 60.688 166.976 61.184C167.584 61.664 168.152 62.136 168.68 62.6C169.208 63.064 169.64 63.48 169.976 63.848L167.528 66.344C167.224 66.008 166.824 65.608 166.328 65.144C165.832 64.68 165.296 64.2 164.72 63.704C164.144 63.208 163.576 62.736 163.016 62.288C162.456 61.84 161.96 61.464 161.528 61.16L163.784 58.76ZM160.784 74.744C162.032 74.568 163.208 74.32 164.312 74C165.416 73.68 166.44 73.312 167.384 72.896C168.328 72.48 169.192 72.048 169.976 71.6C171.336 70.784 172.584 69.856 173.72 68.816C174.856 67.776 175.848 66.696 176.696 65.576C177.544 64.44 178.216 63.336 178.712 62.264L180.584 65.648C179.976 66.72 179.224 67.792 178.328 68.864C177.448 69.936 176.448 70.96 175.328 71.936C174.208 72.896 173 73.76 171.704 74.528C170.888 75.024 170.008 75.496 169.064 75.944C168.12 76.376 167.12 76.76 166.064 77.096C165.024 77.448 163.936 77.72 162.8 77.912L160.784 74.744Z" fill="white"/>
<path d="M258.88 116.704H287.104V120.988H263.2V148.204H258.88V116.704ZM285.052 116.704H289.408V143.164C289.408 144.316 289.264 145.216 288.976 145.864C288.688 146.536 288.172 147.052 287.428 147.412C286.684 147.772 285.748 147.988 284.62 148.06C283.516 148.156 282.16 148.204 280.552 148.204C280.48 147.796 280.36 147.328 280.192 146.8C280.024 146.272 279.832 145.744 279.616 145.216C279.4 144.712 279.184 144.268 278.968 143.884C279.664 143.932 280.36 143.968 281.056 143.992C281.776 143.992 282.412 143.992 282.964 143.992C283.516 143.992 283.9 143.992 284.116 143.992C284.452 143.968 284.692 143.896 284.836 143.776C284.98 143.632 285.052 143.404 285.052 143.092V116.704ZM261.22 130.096H287.176V134.344H261.22V130.096ZM271.732 119.044H276.052V132.22H271.732V119.044Z" fill="#FFFB00"/>
<path d="M220.76 147.792C214.36 147.792 208.728 145.957 203.864 142.288C199.085 138.533 195.331 132.987 192.6 125.648C189.955 118.224 188.632 109.051 188.632 98.128C188.632 87.2907 189.955 78.288 192.6 71.12C195.331 63.8667 199.085 58.448 203.864 54.864C208.728 51.28 214.36 49.488 220.76 49.488C227.245 49.488 232.877 51.3227 237.656 54.992C242.435 58.576 246.147 63.952 248.792 71.12C251.523 78.288 252.888 87.2907 252.888 98.128C252.888 109.051 251.523 118.224 248.792 125.648C246.147 132.987 242.435 138.533 237.656 142.288C232.877 145.957 227.245 147.792 220.76 147.792ZM220.76 133.072C223.576 133.072 226.051 132.005 228.184 129.872C230.317 127.739 231.981 124.155 233.176 119.12C234.371 114 234.968 107.003 234.968 98.128C234.968 89.3387 234.371 82.4693 233.176 77.52C231.981 72.4853 230.317 68.9867 228.184 67.024C226.051 64.976 223.576 63.952 220.76 63.952C218.115 63.952 215.683 64.976 213.464 67.024C211.331 68.9867 209.624 72.4853 208.344 77.52C207.064 82.4693 206.424 89.3387 206.424 98.128C206.424 107.003 207.064 114 208.344 119.12C209.624 124.155 211.331 127.739 213.464 129.872C215.683 132.005 218.115 133.072 220.76 133.072Z" fill="#FFFB00"/>
<circle cx="278" cy="46" r="30" fill="white"/>
<path d="M263.944 40.668C263.655 41.088 263.309 41.522 262.908 41.97C262.507 42.4087 262.063 42.852 261.578 43.3C261.102 43.7387 260.593 44.1633 260.052 44.574C259.52 44.9753 258.965 45.344 258.386 45.68C258.321 45.5493 258.227 45.4 258.106 45.232C257.985 45.064 257.854 44.9007 257.714 44.742C257.583 44.5833 257.453 44.448 257.322 44.336C257.919 44.0093 258.503 43.636 259.072 43.216C259.641 42.7867 260.173 42.3293 260.668 41.844C261.172 41.3587 261.625 40.878 262.026 40.402C262.427 39.9167 262.759 39.4547 263.02 39.016H264.714C265.097 39.5573 265.517 40.0847 265.974 40.598C266.441 41.102 266.931 41.578 267.444 42.026C267.967 42.474 268.503 42.88 269.054 43.244C269.614 43.608 270.169 43.9207 270.72 44.182C270.505 44.3873 270.305 44.6207 270.118 44.882C269.931 45.1433 269.763 45.4047 269.614 45.666C269.073 45.3487 268.531 44.9893 267.99 44.588C267.458 44.1867 266.935 43.7667 266.422 43.328C265.918 42.88 265.451 42.432 265.022 41.984C264.602 41.5267 264.243 41.088 263.944 40.668ZM260.99 43.398H266.954V44.952H260.99V43.398ZM259.058 46.282H267.164V47.878H259.058V46.282ZM266.884 46.282H267.136L267.43 46.212L268.774 46.59C268.541 47.1687 268.279 47.7893 267.99 48.452C267.701 49.1053 267.402 49.7633 267.094 50.426C266.795 51.0793 266.497 51.7047 266.198 52.302L264.406 51.812C264.63 51.3733 264.859 50.9113 265.092 50.426C265.335 49.9313 265.568 49.4413 265.792 48.956C266.016 48.4707 266.221 48.0133 266.408 47.584C266.604 47.1547 266.763 46.786 266.884 46.478V46.282ZM277.216 39.982C277.16 40.178 277.099 40.4113 277.034 40.682C276.978 40.9433 276.936 41.1533 276.908 41.312C276.843 41.6293 276.759 42.0167 276.656 42.474C276.563 42.9313 276.46 43.4167 276.348 43.93C276.236 44.434 276.119 44.924 275.998 45.4C275.867 45.8853 275.713 46.4173 275.536 46.996C275.368 47.5747 275.181 48.158 274.976 48.746C274.78 49.334 274.579 49.8987 274.374 50.44C274.169 50.9813 273.968 51.462 273.772 51.882L271.812 51.224C272.027 50.8693 272.246 50.4353 272.47 49.922C272.703 49.4087 272.932 48.8627 273.156 48.284C273.38 47.696 273.585 47.1127 273.772 46.534C273.959 45.946 274.117 45.4093 274.248 44.924C274.332 44.588 274.416 44.2473 274.5 43.902C274.584 43.5567 274.659 43.2207 274.724 42.894C274.799 42.5673 274.859 42.264 274.906 41.984C274.962 41.6947 275.004 41.4473 275.032 41.242C275.06 40.9807 275.079 40.7193 275.088 40.458C275.097 40.1967 275.093 39.982 275.074 39.814L277.216 39.982ZM273.646 42.082C274.215 42.082 274.808 42.054 275.424 41.998C276.04 41.942 276.661 41.8627 277.286 41.76C277.911 41.648 278.532 41.522 279.148 41.382V43.132C278.569 43.272 277.953 43.3887 277.3 43.482C276.647 43.5753 276.003 43.65 275.368 43.706C274.733 43.7527 274.15 43.776 273.618 43.776C273.282 43.776 272.979 43.7713 272.708 43.762C272.437 43.7433 272.176 43.7293 271.924 43.72L271.882 41.97C272.246 42.0073 272.559 42.0353 272.82 42.054C273.081 42.0727 273.357 42.082 273.646 42.082ZM278.042 44.224C278.434 44.1773 278.868 44.1447 279.344 44.126C279.82 44.098 280.282 44.084 280.73 44.084C281.131 44.084 281.537 44.0933 281.948 44.112C282.368 44.1307 282.783 44.1633 283.194 44.21L283.152 45.89C282.807 45.8433 282.424 45.8013 282.004 45.764C281.593 45.7267 281.173 45.708 280.744 45.708C280.259 45.708 279.797 45.722 279.358 45.75C278.919 45.7687 278.481 45.806 278.042 45.862V44.224ZM278.798 47.738C278.742 47.934 278.695 48.1393 278.658 48.354C278.621 48.5687 278.602 48.7507 278.602 48.9C278.602 49.0587 278.635 49.2033 278.7 49.334C278.765 49.4647 278.868 49.5813 279.008 49.684C279.148 49.7773 279.339 49.852 279.582 49.908C279.834 49.9547 280.147 49.978 280.52 49.978C280.987 49.978 281.463 49.9547 281.948 49.908C282.433 49.8613 282.928 49.7913 283.432 49.698L283.362 51.476C282.97 51.532 282.536 51.5787 282.06 51.616C281.584 51.6627 281.066 51.686 280.506 51.686C279.33 51.686 278.429 51.49 277.804 51.098C277.188 50.706 276.88 50.16 276.88 49.46C276.88 49.1333 276.903 48.8067 276.95 48.48C277.006 48.1533 277.062 47.8547 277.118 47.584L278.798 47.738ZM281.696 40.388C281.817 40.556 281.943 40.7567 282.074 40.99C282.214 41.2233 282.349 41.4567 282.48 41.69C282.611 41.9233 282.718 42.1287 282.802 42.306L281.682 42.796C281.589 42.6 281.481 42.3853 281.36 42.152C281.239 41.9187 281.113 41.6853 280.982 41.452C280.851 41.2187 280.721 41.018 280.59 40.85L281.696 40.388ZM283.348 39.758C283.479 39.926 283.614 40.1313 283.754 40.374C283.894 40.6073 284.029 40.8407 284.16 41.074C284.3 41.298 284.407 41.494 284.482 41.662L283.376 42.138C283.227 41.8393 283.049 41.508 282.844 41.144C282.639 40.78 282.438 40.4673 282.242 40.206L283.348 39.758ZM295.892 39.87C295.873 40.0193 295.859 40.178 295.85 40.346C295.841 40.5047 295.831 40.6633 295.822 40.822C295.813 40.9527 295.808 41.1533 295.808 41.424C295.817 41.6853 295.822 41.984 295.822 42.32C295.822 42.6467 295.822 42.9827 295.822 43.328C295.822 43.664 295.822 43.9767 295.822 44.266C295.831 44.5553 295.836 44.7793 295.836 44.938C295.836 45.7687 295.803 46.5247 295.738 47.206C295.682 47.878 295.551 48.4987 295.346 49.068C295.15 49.6373 294.847 50.1647 294.436 50.65C294.035 51.1353 293.484 51.602 292.784 52.05L291.174 50.776C291.435 50.664 291.725 50.5053 292.042 50.3C292.359 50.0853 292.611 49.8707 292.798 49.656C293.069 49.376 293.288 49.082 293.456 48.774C293.624 48.466 293.755 48.1253 293.848 47.752C293.951 47.3787 294.016 46.9633 294.044 46.506C294.081 46.0487 294.1 45.5213 294.1 44.924C294.1 44.672 294.1 44.3547 294.1 43.972C294.1 43.5893 294.095 43.1927 294.086 42.782C294.077 42.3713 294.067 41.9933 294.058 41.648C294.049 41.2933 294.035 41.0227 294.016 40.836C294.007 40.6587 293.983 40.4813 293.946 40.304C293.918 40.1267 293.89 39.982 293.862 39.87H295.892ZM290.376 42.6C290.6 42.628 290.829 42.656 291.062 42.684C291.295 42.7027 291.529 42.7213 291.762 42.74C292.005 42.7493 292.247 42.754 292.49 42.754C293.097 42.754 293.731 42.74 294.394 42.712C295.057 42.684 295.696 42.642 296.312 42.586C296.928 42.5207 297.465 42.446 297.922 42.362L297.908 44.182C297.469 44.2287 296.951 44.2753 296.354 44.322C295.757 44.3593 295.127 44.392 294.464 44.42C293.811 44.4387 293.167 44.448 292.532 44.448C292.336 44.448 292.112 44.4433 291.86 44.434C291.608 44.4247 291.356 44.4153 291.104 44.406C290.852 44.3967 290.609 44.3873 290.376 44.378V42.6ZM288.934 40.108C288.878 40.276 288.817 40.472 288.752 40.696C288.687 40.9107 288.635 41.0927 288.598 41.242C288.514 41.6247 288.425 42.0867 288.332 42.628C288.239 43.16 288.159 43.7153 288.094 44.294C288.029 44.8727 287.996 45.442 287.996 46.002C287.996 46.5527 288.043 47.0427 288.136 47.472C288.229 47.2573 288.337 47.0007 288.458 46.702C288.579 46.394 288.696 46.1093 288.808 45.848L289.676 46.408C289.545 46.8093 289.415 47.2247 289.284 47.654C289.163 48.074 289.055 48.4753 288.962 48.858C288.869 49.2313 288.789 49.5533 288.724 49.824C288.696 49.9267 288.673 50.048 288.654 50.188C288.645 50.3187 288.64 50.426 288.64 50.51C288.64 50.5753 288.64 50.664 288.64 50.776C288.649 50.888 288.659 50.9907 288.668 51.084L287.114 51.238C287.011 50.958 286.895 50.5753 286.764 50.09C286.643 49.5953 286.535 49.054 286.442 48.466C286.358 47.8687 286.316 47.2807 286.316 46.702C286.316 45.9367 286.339 45.1993 286.386 44.49C286.442 43.7807 286.507 43.1367 286.582 42.558C286.657 41.97 286.717 41.4893 286.764 41.116C286.801 40.92 286.825 40.7147 286.834 40.5C286.843 40.276 286.853 40.0753 286.862 39.898L288.934 40.108Z" fill="#F2808C"/>
<path d="M70.172 25.254L70.942 26.108C70.3167 26.2947 69.598 26.4627 68.786 26.612C67.9833 26.752 67.1293 26.8733 66.224 26.976C65.328 27.0787 64.4227 27.1627 63.508 27.228C62.6027 27.2933 61.7253 27.34 60.876 27.368C60.8573 27.2373 60.82 27.0833 60.764 26.906C60.7173 26.7193 60.6707 26.57 60.624 26.458C61.4547 26.4113 62.318 26.3553 63.214 26.29C64.11 26.2247 64.9873 26.1453 65.846 26.052C66.7047 25.9493 67.5027 25.8327 68.24 25.702C68.9867 25.5713 69.6307 25.422 70.172 25.254ZM60.638 29.216H71.544V30.224H60.638V29.216ZM59.7 32.492H72.342V33.528H59.7V32.492ZM65.482 26.752H66.56V36.65C66.56 37.0233 66.4993 37.2987 66.378 37.476C66.266 37.6627 66.0793 37.798 65.818 37.882C65.5473 37.966 65.174 38.0173 64.698 38.036C64.2313 38.064 63.6293 38.0733 62.892 38.064C62.864 37.9613 62.8267 37.8447 62.78 37.714C62.7333 37.5927 62.6773 37.4667 62.612 37.336C62.556 37.2147 62.5 37.112 62.444 37.028C62.836 37.0373 63.2093 37.042 63.564 37.042C63.9187 37.042 64.2267 37.042 64.488 37.042C64.7493 37.042 64.936 37.042 65.048 37.042C65.2067 37.0327 65.3187 37 65.384 36.944C65.4493 36.888 65.482 36.79 65.482 36.65V26.752ZM79.734 29.454C79.9207 29.3233 80.1027 29.1927 80.28 29.062C80.4667 28.922 80.6113 28.8147 80.714 28.74C80.518 28.572 80.252 28.39 79.916 28.194C79.58 27.9887 79.2207 27.7927 78.838 27.606C78.4553 27.41 78.082 27.242 77.718 27.102L78.362 26.29C78.726 26.4393 79.1227 26.6167 79.552 26.822C79.9813 27.0273 80.3967 27.2467 80.798 27.48C81.2087 27.704 81.5493 27.9187 81.82 28.124L82.086 28.838C82.002 28.9127 81.8947 29.0013 81.764 29.104C81.6333 29.2067 81.4887 29.3187 81.33 29.44C81.1807 29.5613 81.0267 29.6827 80.868 29.804C80.7187 29.916 80.5787 30.0187 80.448 30.112L79.734 29.454ZM77.032 36.132C77.3867 36.2347 77.7413 36.314 78.096 36.37C78.46 36.426 78.8613 36.454 79.3 36.454C79.5147 36.454 79.7293 36.4213 79.944 36.356C80.168 36.2907 80.35 36.174 80.49 36.006C80.6393 35.8287 80.714 35.5907 80.714 35.292C80.714 35.0493 80.658 34.7973 80.546 34.536C80.434 34.2653 80.2847 33.9947 80.098 33.724C79.9207 33.444 79.7293 33.178 79.524 32.926C79.3187 32.6647 79.118 32.4313 78.922 32.226C78.7727 32.058 78.5953 31.8807 78.39 31.694C78.194 31.5073 77.998 31.33 77.802 31.162L78.628 30.448C78.8053 30.6253 78.978 30.8073 79.146 30.994C79.3233 31.1713 79.4913 31.3487 79.65 31.526C80.0887 31.9833 80.476 32.4313 80.812 32.87C81.148 33.2993 81.4093 33.724 81.596 34.144C81.792 34.564 81.89 34.984 81.89 35.404C81.89 35.8333 81.8107 36.188 81.652 36.468C81.5027 36.7387 81.3067 36.9487 81.064 37.098C80.8213 37.2567 80.56 37.364 80.28 37.42C80 37.4853 79.734 37.518 79.482 37.518C79.034 37.518 78.6187 37.4947 78.236 37.448C77.8533 37.4013 77.508 37.35 77.2 37.294L77.032 36.132ZM85.11 36.664C85.0167 36.328 84.886 35.964 84.718 35.572C84.5593 35.1707 84.3727 34.7693 84.158 34.368C83.9527 33.9573 83.7333 33.57 83.5 33.206C83.2667 32.8327 83.0287 32.5107 82.786 32.24L83.696 31.722C83.9387 32.002 84.1813 32.3287 84.424 32.702C84.6667 33.0753 84.9 33.4627 85.124 33.864C85.348 34.2653 85.5487 34.662 85.726 35.054C85.9033 35.4367 86.048 35.782 86.16 36.09L85.11 36.664ZM77.508 33.934C77.2373 34.2047 76.9107 34.5127 76.528 34.858C76.1453 35.194 75.73 35.53 75.282 35.866C74.8433 36.1927 74.3953 36.4913 73.938 36.762L73.28 35.838C73.5693 35.6793 73.8773 35.488 74.204 35.264C74.54 35.04 74.8713 34.802 75.198 34.55C75.5247 34.298 75.8327 34.046 76.122 33.794C76.4113 33.542 76.654 33.3087 76.85 33.094L77.508 33.934ZM83.71 27.69C83.8313 27.858 83.962 28.0587 84.102 28.292C84.242 28.5253 84.3773 28.7587 84.508 28.992C84.648 29.2253 84.7647 29.44 84.858 29.636L84.102 29.972C83.9713 29.6827 83.794 29.3513 83.57 28.978C83.3553 28.6047 83.1547 28.2827 82.968 28.012L83.71 27.69ZM85.25 27.13C85.3807 27.3073 85.5207 27.5127 85.67 27.746C85.8193 27.97 85.964 28.1987 86.104 28.432C86.244 28.6653 86.356 28.8707 86.44 29.048L85.684 29.384C85.5347 29.076 85.3527 28.7447 85.138 28.39C84.9327 28.026 84.7273 27.7133 84.522 27.452L85.25 27.13ZM91.69 26.024C91.9887 26.1173 92.376 26.22 92.852 26.332C93.3373 26.444 93.846 26.556 94.378 26.668C94.9193 26.7707 95.4327 26.864 95.918 26.948C96.4033 27.0227 96.8 27.074 97.108 27.102L96.842 28.18C96.5807 28.1427 96.2587 28.0913 95.876 28.026C95.5027 27.9607 95.1013 27.886 94.672 27.802C94.2427 27.718 93.818 27.634 93.398 27.55C92.978 27.4567 92.5953 27.3727 92.25 27.298C91.9047 27.214 91.6247 27.144 91.41 27.088L91.69 26.024ZM91.382 28.572C91.3353 28.8147 91.284 29.1133 91.228 29.468C91.1813 29.8133 91.13 30.1773 91.074 30.56C91.018 30.9427 90.9667 31.3067 90.92 31.652C90.8733 31.9973 90.8313 32.282 90.794 32.506C91.4753 31.918 92.194 31.4887 92.95 31.218C93.7153 30.938 94.518 30.798 95.358 30.798C96.0767 30.798 96.702 30.9287 97.234 31.19C97.766 31.442 98.1813 31.792 98.48 32.24C98.7787 32.6787 98.928 33.1733 98.928 33.724C98.928 34.3493 98.7833 34.9187 98.494 35.432C98.214 35.936 97.7707 36.3607 97.164 36.706C96.5667 37.0513 95.8013 37.294 94.868 37.434C93.9347 37.5833 92.8147 37.602 91.508 37.49L91.172 36.342C92.656 36.5193 93.8833 36.5147 94.854 36.328C95.8247 36.132 96.548 35.8053 97.024 35.348C97.5093 34.8813 97.752 34.3307 97.752 33.696C97.752 33.3227 97.6447 32.9913 97.43 32.702C97.2153 32.4127 96.9213 32.1887 96.548 32.03C96.184 31.862 95.764 31.778 95.288 31.778C94.3733 31.778 93.5427 31.946 92.796 32.282C92.0587 32.6087 91.4427 33.066 90.948 33.654C90.8453 33.7753 90.7613 33.8967 90.696 34.018C90.6307 34.13 90.5747 34.242 90.528 34.354L89.492 34.102C89.548 33.8407 89.604 33.528 89.66 33.164C89.716 32.7907 89.772 32.394 89.828 31.974C89.884 31.5447 89.9353 31.1153 89.982 30.686C90.038 30.2567 90.0847 29.846 90.122 29.454C90.1593 29.0527 90.1873 28.7073 90.206 28.418L91.382 28.572ZM101.682 27.788C101.944 27.7787 102.182 27.7693 102.396 27.76C102.62 27.7413 102.798 27.7273 102.928 27.718C103.152 27.69 103.474 27.6573 103.894 27.62C104.324 27.5733 104.814 27.5267 105.364 27.48C105.915 27.424 106.508 27.368 107.142 27.312C107.777 27.256 108.416 27.2 109.06 27.144C109.574 27.0973 110.059 27.06 110.516 27.032C110.974 26.9947 111.398 26.9667 111.79 26.948C112.182 26.92 112.532 26.9013 112.84 26.892V28.012C112.579 28.012 112.28 28.0167 111.944 28.026C111.608 28.0353 111.277 28.054 110.95 28.082C110.624 28.11 110.339 28.1613 110.096 28.236C109.602 28.3947 109.154 28.6373 108.752 28.964C108.36 29.2813 108.024 29.65 107.744 30.07C107.464 30.49 107.25 30.924 107.1 31.372C106.96 31.82 106.89 32.254 106.89 32.674C106.89 33.2153 106.984 33.6913 107.17 34.102C107.357 34.5033 107.609 34.844 107.926 35.124C108.253 35.404 108.622 35.6327 109.032 35.81C109.443 35.9873 109.877 36.1227 110.334 36.216C110.801 36.3 111.263 36.3467 111.72 36.356L111.314 37.518C110.792 37.4993 110.269 37.4247 109.746 37.294C109.224 37.1727 108.724 36.9953 108.248 36.762C107.772 36.5193 107.348 36.216 106.974 35.852C106.601 35.488 106.307 35.0633 106.092 34.578C105.878 34.0927 105.77 33.5373 105.77 32.912C105.77 32.184 105.896 31.512 106.148 30.896C106.41 30.2707 106.741 29.7247 107.142 29.258C107.544 28.7913 107.959 28.432 108.388 28.18C108.09 28.2173 107.716 28.2593 107.268 28.306C106.83 28.3527 106.358 28.404 105.854 28.46C105.35 28.5067 104.842 28.5627 104.328 28.628C103.824 28.6933 103.353 28.7587 102.914 28.824C102.476 28.88 102.107 28.9407 101.808 29.006L101.682 27.788ZM110.824 29.734C110.927 29.8833 111.048 30.0747 111.188 30.308C111.338 30.532 111.482 30.7653 111.622 31.008C111.762 31.2413 111.879 31.4653 111.972 31.68L111.258 32.016C111.1 31.6707 110.922 31.33 110.726 30.994C110.53 30.6487 110.325 30.3313 110.11 30.042L110.824 29.734ZM112.35 29.146C112.462 29.2953 112.593 29.482 112.742 29.706C112.892 29.93 113.036 30.1633 113.176 30.406C113.326 30.6393 113.456 30.8633 113.568 31.078L112.84 31.428C112.672 31.0827 112.486 30.742 112.28 30.406C112.084 30.07 111.879 29.7573 111.664 29.468L112.35 29.146ZM119.77 37.182C118.912 37.182 118.151 36.9673 117.488 36.538C116.835 36.0993 116.322 35.4787 115.948 34.676C115.575 33.8733 115.388 32.926 115.388 31.834C115.388 30.7327 115.575 29.79 115.948 29.006C116.322 28.2127 116.835 27.606 117.488 27.186C118.151 26.766 118.912 26.556 119.77 26.556C120.629 26.556 121.385 26.7707 122.038 27.2C122.701 27.62 123.219 28.222 123.592 29.006C123.966 29.79 124.152 30.7327 124.152 31.834C124.152 32.926 123.966 33.8733 123.592 34.676C123.219 35.4787 122.701 36.0993 122.038 36.538C121.385 36.9673 120.629 37.182 119.77 37.182ZM119.77 36.048C120.386 36.048 120.923 35.8753 121.38 35.53C121.838 35.1847 122.192 34.6947 122.444 34.06C122.696 33.4253 122.822 32.6833 122.822 31.834C122.822 30.9753 122.696 30.238 122.444 29.622C122.192 28.9967 121.838 28.5207 121.38 28.194C120.923 27.858 120.386 27.69 119.77 27.69C119.164 27.69 118.627 27.858 118.16 28.194C117.703 28.5207 117.348 28.9967 117.096 29.622C116.844 30.238 116.718 30.9753 116.718 31.834C116.718 32.6833 116.844 33.4253 117.096 34.06C117.348 34.6947 117.703 35.1847 118.16 35.53C118.627 35.8753 119.164 36.048 119.77 36.048ZM126.381 37V26.738H127.669V31.89H127.697L131.995 26.738H133.465L130.245 30.63L133.955 37H132.513L129.433 31.652L127.669 33.752V37H126.381ZM140.556 33.612L140.276 28.18L140.248 26.528H141.788L141.76 28.18L141.48 33.612H140.556ZM141.018 37.07C140.766 37.07 140.551 36.986 140.374 36.818C140.206 36.65 140.122 36.426 140.122 36.146C140.122 35.866 140.21 35.642 140.388 35.474C140.565 35.2967 140.775 35.208 141.018 35.208C141.26 35.208 141.47 35.2967 141.648 35.474C141.825 35.642 141.914 35.866 141.914 36.146C141.914 36.426 141.825 36.65 141.648 36.818C141.47 36.986 141.26 37.07 141.018 37.07Z" fill="white"/>
<path fill-rule="evenodd" clip-rule="evenodd" d="M166.256 25.7442C166.412 25.9004 166.5 26.1124 166.5 26.3333C166.5 26.5543 166.412 26.7662 166.256 26.9225L152.923 40.2558C152.765 40.4076 152.555 40.4916 152.336 40.4897C152.118 40.4878 151.909 40.4002 151.754 40.2457C151.6 40.0912 151.512 39.8822 151.51 39.6637C151.508 39.4452 151.592 39.2347 151.744 39.0775L165.078 25.7442C165.234 25.5879 165.446 25.5002 165.667 25.5002C165.888 25.5002 166.1 25.5879 166.256 25.7442Z" fill="white"/>
<path fill-rule="evenodd" clip-rule="evenodd" d="M36.7442 25.7442C36.5879 25.9004 36.5002 26.1124 36.5002 26.3333C36.5002 26.5543 36.5879 26.7662 36.7442 26.9225L50.0775 40.2558C50.2347 40.4076 50.4452 40.4916 50.6637 40.4897C50.8822 40.4878 51.0912 40.4002 51.2457 40.2457C51.4002 40.0912 51.4878 39.8822 51.4897 39.6637C51.4916 39.4452 51.4076 39.2347 51.2558 39.0775L37.9225 25.7442C37.7662 25.5879 37.5543 25.5002 37.3333 25.5002C37.1124 25.5002 36.9004 25.5879 36.7442 25.7442Z" fill="white"/>
<path d="M187.401 131.376C187.581 131.189 187.682 130.934 187.682 130.669C187.682 130.404 187.581 130.15 187.401 129.962L181.965 124.305C181.876 124.21 181.77 124.134 181.653 124.081C181.536 124.029 181.41 124.001 181.282 124C181.154 123.999 181.028 124.024 180.91 124.074C180.792 124.125 180.684 124.199 180.594 124.293C180.504 124.387 180.433 124.498 180.384 124.621C180.336 124.744 180.312 124.876 180.313 125.009C180.314 125.141 180.34 125.273 180.391 125.395C180.441 125.517 180.514 125.627 180.606 125.719L184.402 129.669H171.676C171.421 129.669 171.177 129.775 170.996 129.962C170.816 130.15 170.715 130.404 170.715 130.669C170.715 130.935 170.816 131.189 170.996 131.376C171.177 131.564 171.421 131.669 171.676 131.669H184.402L180.606 135.619C180.431 135.808 180.334 136.06 180.336 136.323C180.339 136.585 180.44 136.836 180.618 137.021C180.796 137.207 181.037 137.312 181.289 137.314C181.541 137.316 181.784 137.215 181.965 137.033L187.401 131.376Z" fill="black"/>
</svg>
