<svg width="560" height="320" viewBox="0 0 560 320" fill="none" xmlns="http://www.w3.org/2000/svg">
<rect width="560" height="320" rx="10" fill="#F2808C"/>
<path d="M59.18 128.1V135.18H57.74V129.5H54.84V128.1H59.18ZM59.18 134.56C59.66 135.307 60.3267 135.86 61.18 136.22C62.0333 136.567 63.0467 136.767 64.22 136.82C64.78 136.833 65.4533 136.847 66.24 136.86C67.04 136.86 67.88 136.86 68.76 136.86C69.64 136.847 70.4867 136.827 71.3 136.8C72.1267 136.773 72.8467 136.74 73.46 136.7C73.4067 136.807 73.3467 136.947 73.28 137.12C73.2133 137.293 73.1467 137.473 73.08 137.66C73.0267 137.847 72.9867 138.02 72.96 138.18C72.4 138.193 71.74 138.207 70.98 138.22C70.2333 138.247 69.44 138.26 68.6 138.26C67.7733 138.273 66.9733 138.273 66.2 138.26C65.44 138.247 64.78 138.233 64.22 138.22C62.9267 138.167 61.8133 137.953 60.88 137.58C59.9467 137.207 59.1667 136.62 58.54 135.82C58.0333 136.26 57.5133 136.693 56.98 137.12C56.4467 137.56 55.8933 138 55.32 138.44L54.58 136.96C55.0733 136.64 55.6133 136.273 56.2 135.86C56.7867 135.433 57.3467 135 57.88 134.56H59.18ZM55.16 121.58L56.22 120.66C56.6467 120.953 57.08 121.293 57.52 121.68C57.9733 122.053 58.3867 122.433 58.76 122.82C59.1333 123.193 59.4267 123.553 59.64 123.9L58.5 124.94C58.3 124.593 58.0133 124.227 57.64 123.84C57.28 123.44 56.8867 123.047 56.46 122.66C56.0333 122.26 55.6 121.9 55.16 121.58ZM63.18 123.56L64.12 122.7C64.76 122.927 65.4333 123.193 66.14 123.5C66.86 123.793 67.5467 124.093 68.2 124.4C68.8667 124.707 69.42 124.993 69.86 125.26L68.86 126.22C68.4467 125.953 67.9133 125.66 67.26 125.34C66.62 125.02 65.94 124.707 65.22 124.4C64.5 124.08 63.82 123.8 63.18 123.56ZM61.26 125.22H71.6V126.38H62.68V135.58H61.26V125.22ZM70.9 125.22H72.34V134.08C72.34 134.453 72.2933 134.74 72.2 134.94C72.1067 135.127 71.9267 135.28 71.66 135.4C71.3933 135.507 71.04 135.573 70.6 135.6C70.1733 135.613 69.62 135.62 68.94 135.62C68.9133 135.433 68.86 135.227 68.78 135C68.7 134.76 68.6133 134.56 68.52 134.4C69 134.413 69.4267 134.42 69.8 134.42C70.1867 134.42 70.44 134.42 70.56 134.42C70.6933 134.407 70.78 134.373 70.82 134.32C70.8733 134.267 70.9 134.187 70.9 134.08V125.22ZM61.28 121.02H71.26V122.22H61.28V121.02ZM62.04 128.14H71.46V129.26H62.04V128.14ZM62.04 131.08H71.46V132.26H62.04V131.08ZM66.06 125.7H67.42V135.5H66.06V125.7ZM70.76 121.02H71.1L71.4 120.94L72.34 121.68C71.8867 122.093 71.3733 122.507 70.8 122.92C70.2267 123.32 69.6267 123.693 69 124.04C68.3733 124.387 67.7533 124.687 67.14 124.94C67.0467 124.807 66.92 124.653 66.76 124.48C66.6 124.307 66.46 124.167 66.34 124.06C66.9 123.833 67.46 123.567 68.02 123.26C68.58 122.953 69.1 122.633 69.58 122.3C70.06 121.953 70.4533 121.62 70.76 121.3V121.02ZM84.08 129.94H85.62V138.6H84.08V129.94ZM80.86 127.18V129.14H88.44V127.18H80.86ZM79.42 126.04H89.96V130.28H79.42V126.04ZM77.64 131.94H91.02V133.3H79.14V137.7H77.64V131.94ZM90.28 131.94H91.8V136.14C91.8 136.527 91.7467 136.827 91.64 137.04C91.5467 137.267 91.34 137.44 91.02 137.56C90.7 137.667 90.28 137.727 89.76 137.74C89.24 137.767 88.5933 137.78 87.82 137.78C87.78 137.58 87.7067 137.353 87.6 137.1C87.5067 136.847 87.4067 136.62 87.3 136.42C87.7 136.433 88.0733 136.447 88.42 136.46C88.78 136.46 89.0867 136.46 89.34 136.46C89.5933 136.46 89.7733 136.46 89.88 136.46C90.04 136.433 90.1467 136.4 90.2 136.36C90.2533 136.32 90.28 136.24 90.28 136.12V131.94ZM83.96 120.18H85.48V123.84H83.96V120.18ZM76.32 123.3H93.02V127.6H91.54V124.62H77.76V127.6H76.32V123.3ZM77.96 120.94L79.32 120.38C79.64 120.74 79.9533 121.14 80.26 121.58C80.58 122.02 80.8267 122.4 81 122.72L79.58 123.4C79.4333 123.053 79.2 122.647 78.88 122.18C78.5733 121.713 78.2667 121.3 77.96 120.94ZM89.86 120.36L91.42 120.9C91.0867 121.327 90.74 121.76 90.38 122.2C90.02 122.627 89.6933 122.993 89.4 123.3L88.16 122.8C88.36 122.587 88.56 122.333 88.76 122.04C88.9733 121.747 89.1733 121.453 89.36 121.16C89.56 120.853 89.7267 120.587 89.86 120.36ZM183.939 160.296H209.027V162.664H186.371V187.592H183.939V160.296ZM207.939 160.296H210.371V184.36C210.371 185.128 210.265 185.715 210.051 186.12C209.838 186.547 209.454 186.877 208.899 187.112C208.366 187.304 207.63 187.421 206.691 187.464C205.774 187.507 204.59 187.528 203.139 187.528C203.118 187.315 203.054 187.059 202.947 186.76C202.841 186.461 202.723 186.163 202.595 185.864C202.489 185.587 202.371 185.341 202.243 185.128C202.969 185.149 203.662 185.16 204.323 185.16C205.006 185.16 205.593 185.16 206.083 185.16C206.574 185.16 206.926 185.16 207.139 185.16C207.438 185.139 207.641 185.075 207.747 184.968C207.875 184.84 207.939 184.637 207.939 184.36V160.296ZM185.283 172.104H209.091V174.472H185.283V172.104ZM195.779 161.48H198.179V173.288H195.779V161.48ZM218.799 188.92C217.879 187.427 217.159 185.86 216.639 184.22C216.119 182.567 215.859 180.753 215.859 178.78C215.859 176.82 216.119 175.013 216.639 173.36C217.159 171.707 217.879 170.133 218.799 168.64L219.919 169.16C219.066 170.587 218.426 172.127 217.999 173.78C217.586 175.42 217.379 177.087 217.379 178.78C217.379 180.487 217.586 182.167 217.999 183.82C218.426 185.46 219.066 186.993 219.919 188.42L218.799 188.92ZM230.557 168.76L231.817 168.22C232.191 168.753 232.544 169.34 232.877 169.98C233.224 170.607 233.471 171.147 233.617 171.6L232.297 172.22C232.164 171.753 231.931 171.193 231.597 170.54C231.277 169.887 230.931 169.293 230.557 168.76ZM237.997 168.18L239.497 168.74C239.177 169.327 238.831 169.933 238.457 170.56C238.097 171.187 237.757 171.727 237.437 172.18L236.177 171.68C236.391 171.36 236.611 171 236.837 170.6C237.064 170.187 237.277 169.773 237.477 169.36C237.691 168.933 237.864 168.54 237.997 168.18ZM232.417 178.44H233.917C233.837 179.32 233.704 180.167 233.517 180.98C233.331 181.793 233.057 182.553 232.697 183.26C232.351 183.967 231.884 184.6 231.297 185.16C230.711 185.733 229.964 186.22 229.057 186.62C228.964 186.447 228.824 186.247 228.637 186.02C228.464 185.793 228.297 185.613 228.137 185.48C228.964 185.133 229.637 184.72 230.157 184.24C230.677 183.747 231.091 183.193 231.397 182.58C231.704 181.967 231.931 181.313 232.077 180.62C232.237 179.913 232.351 179.187 232.417 178.44ZM235.577 178.26H237.037V184.4C237.037 184.653 237.064 184.82 237.117 184.9C237.171 184.967 237.304 185 237.517 185C237.584 185 237.711 185 237.897 185C238.084 185 238.271 185 238.457 185C238.644 185 238.777 185 238.857 185C239.004 185 239.111 184.947 239.177 184.84C239.257 184.72 239.311 184.48 239.337 184.12C239.377 183.76 239.404 183.22 239.417 182.5C239.511 182.58 239.631 182.66 239.777 182.74C239.937 182.807 240.104 182.873 240.277 182.94C240.451 182.993 240.597 183.04 240.717 183.08C240.677 183.947 240.597 184.613 240.477 185.08C240.371 185.56 240.197 185.893 239.957 186.08C239.731 186.267 239.417 186.36 239.017 186.36C238.951 186.36 238.837 186.36 238.677 186.36C238.517 186.36 238.344 186.36 238.157 186.36C237.971 186.36 237.797 186.36 237.637 186.36C237.491 186.36 237.377 186.36 237.297 186.36C236.844 186.36 236.491 186.3 236.237 186.18C235.984 186.06 235.811 185.853 235.717 185.56C235.624 185.28 235.577 184.893 235.577 184.4V178.26ZM231.777 173.58V177.48H238.097V173.58H231.777ZM230.337 172.24H239.577V178.8H230.337V172.24ZM225.617 169.86H227.097V186.56H225.617V169.86ZM222.357 173.84H229.597V175.24H222.357V173.84ZM225.697 174.38L226.637 174.78C226.437 175.487 226.191 176.22 225.897 176.98C225.604 177.727 225.284 178.473 224.937 179.22C224.604 179.953 224.244 180.647 223.857 181.3C223.484 181.94 223.104 182.487 222.717 182.94C222.637 182.74 222.517 182.507 222.357 182.24C222.211 181.973 222.071 181.747 221.937 181.56C222.311 181.16 222.677 180.68 223.037 180.12C223.397 179.56 223.744 178.953 224.077 178.3C224.424 177.647 224.737 176.987 225.017 176.32C225.297 175.64 225.524 174.993 225.697 174.38ZM228.597 168.48L229.637 169.64C229.024 169.88 228.324 170.107 227.537 170.32C226.751 170.533 225.937 170.72 225.097 170.88C224.271 171.027 223.464 171.153 222.677 171.26C222.651 171.1 222.591 170.913 222.497 170.7C222.404 170.473 222.317 170.28 222.237 170.12C222.984 169.987 223.751 169.84 224.537 169.68C225.337 169.52 226.091 169.34 226.797 169.14C227.504 168.927 228.104 168.707 228.597 168.48ZM227.017 176.4C227.151 176.52 227.344 176.713 227.597 176.98C227.864 177.233 228.151 177.513 228.457 177.82C228.764 178.113 229.037 178.393 229.277 178.66C229.531 178.927 229.711 179.12 229.817 179.24L228.917 180.42C228.797 180.22 228.624 179.967 228.397 179.66C228.184 179.353 227.944 179.027 227.677 178.68C227.411 178.333 227.157 178.013 226.917 177.72C226.677 177.427 226.477 177.193 226.317 177.02L227.017 176.4ZM250.077 169.22H254.277V170.64H250.077V169.22ZM253.357 169.22H254.997C255.131 170.74 255.331 172.18 255.597 173.54C255.864 174.887 256.231 176.12 256.697 177.24C257.177 178.347 257.771 179.32 258.477 180.16C259.197 181 260.057 181.68 261.057 182.2C260.937 182.267 260.804 182.367 260.657 182.5C260.511 182.633 260.364 182.773 260.217 182.92C260.084 183.067 259.971 183.2 259.877 183.32C258.864 182.733 257.991 182 257.257 181.12C256.537 180.227 255.937 179.213 255.457 178.08C254.977 176.933 254.597 175.68 254.317 174.32C254.037 172.947 253.824 171.487 253.677 169.94H253.357V169.22ZM253.437 173.08L254.977 173.32C254.511 175.587 253.797 177.553 252.837 179.22C251.891 180.887 250.671 182.253 249.177 183.32C249.111 183.227 249.004 183.113 248.857 182.98C248.724 182.833 248.577 182.693 248.417 182.56C248.257 182.413 248.117 182.293 247.997 182.2C249.477 181.267 250.651 180.027 251.517 178.48C252.397 176.933 253.037 175.133 253.437 173.08ZM247.217 176.1V183.18H245.757V177.5H242.957V176.1H247.217ZM247.217 182.52C247.697 183.253 248.364 183.8 249.217 184.16C250.071 184.52 251.077 184.72 252.237 184.76C252.784 184.787 253.444 184.807 254.217 184.82C255.004 184.82 255.824 184.813 256.677 184.8C257.544 184.787 258.377 184.767 259.177 184.74C259.977 184.713 260.677 184.68 261.277 184.64C261.211 184.747 261.144 184.893 261.077 185.08C261.011 185.267 260.951 185.453 260.897 185.64C260.844 185.84 260.804 186.013 260.777 186.16C260.231 186.187 259.584 186.207 258.837 186.22C258.091 186.233 257.317 186.24 256.517 186.24C255.717 186.253 254.937 186.253 254.177 186.24C253.431 186.24 252.784 186.233 252.237 186.22C250.931 186.167 249.811 185.953 248.877 185.58C247.957 185.207 247.177 184.62 246.537 183.82C246.057 184.247 245.564 184.673 245.057 185.1C244.551 185.54 244.024 185.987 243.477 186.44L242.697 184.9C243.177 184.58 243.691 184.213 244.237 183.8C244.797 183.373 245.337 182.947 245.857 182.52H247.217ZM243.177 169.58L244.277 168.68C244.717 168.96 245.164 169.287 245.617 169.66C246.071 170.02 246.484 170.387 246.857 170.76C247.244 171.133 247.557 171.48 247.797 171.8L246.597 172.8C246.397 172.48 246.104 172.127 245.717 171.74C245.344 171.353 244.931 170.973 244.477 170.6C244.037 170.213 243.604 169.873 243.177 169.58ZM264.557 188.92L263.417 188.42C264.284 186.993 264.931 185.46 265.357 183.82C265.784 182.167 265.997 180.487 265.997 178.78C265.997 177.087 265.784 175.42 265.357 173.78C264.931 172.127 264.284 170.587 263.417 169.16L264.557 168.64C265.491 170.133 266.211 171.707 266.717 173.36C267.237 175.013 267.497 176.82 267.497 178.78C267.497 180.753 267.237 182.567 266.717 184.22C266.211 185.86 265.491 187.427 264.557 188.92Z" fill="white"/>
<path d="M58.224 185V181.352H66.096V155.096H59.808V152.312C61.376 152.024 62.736 151.672 63.888 151.256C65.072 150.84 66.144 150.36 67.104 149.816H70.464V181.352H77.52V185H58.224ZM85.665 194.12L84.609 191.528C86.113 190.856 87.297 189.944 88.161 188.792C89.025 187.64 89.441 186.328 89.409 184.856L88.929 180.92L91.089 184.136C90.769 184.488 90.417 184.744 90.033 184.904C89.681 185.032 89.297 185.096 88.881 185.096C88.017 185.096 87.265 184.824 86.625 184.28C85.985 183.736 85.665 182.984 85.665 182.024C85.665 181.064 85.985 180.312 86.625 179.768C87.297 179.224 88.081 178.952 88.977 178.952C90.129 178.952 91.025 179.416 91.665 180.344C92.337 181.24 92.673 182.488 92.673 184.088C92.673 186.392 92.033 188.408 90.753 190.136C89.505 191.864 87.809 193.192 85.665 194.12ZM110.208 185.624C108 185.624 106.064 184.952 104.4 183.608C102.768 182.264 101.504 180.232 100.608 177.512C99.7124 174.792 99.2644 171.384 99.2644 167.288C99.2644 163.192 99.7124 159.816 100.608 157.16C101.504 154.472 102.768 152.472 104.4 151.16C106.064 149.848 108 149.192 110.208 149.192C112.448 149.192 114.384 149.864 116.016 151.208C117.648 152.52 118.912 154.504 119.808 157.16C120.704 159.816 121.152 163.192 121.152 167.288C121.152 171.384 120.704 174.792 119.808 177.512C118.912 180.232 117.648 182.264 116.016 183.608C114.384 184.952 112.448 185.624 110.208 185.624ZM110.208 182.072C111.552 182.072 112.72 181.56 113.712 180.536C114.736 179.512 115.52 177.912 116.064 175.736C116.64 173.528 116.928 170.712 116.928 167.288C116.928 163.864 116.64 161.08 116.064 158.936C115.52 156.76 114.736 155.176 113.712 154.184C112.72 153.16 111.552 152.648 110.208 152.648C108.896 152.648 107.728 153.16 106.704 154.184C105.68 155.176 104.88 156.76 104.304 158.936C103.76 161.08 103.488 163.864 103.488 167.288C103.488 170.712 103.76 173.528 104.304 175.736C104.88 177.912 105.68 179.512 106.704 180.536C107.728 181.56 108.896 182.072 110.208 182.072ZM138.273 185.624C136.065 185.624 134.129 184.952 132.465 183.608C130.833 182.264 129.569 180.232 128.673 177.512C127.777 174.792 127.329 171.384 127.329 167.288C127.329 163.192 127.777 159.816 128.673 157.16C129.569 154.472 130.833 152.472 132.465 151.16C134.129 149.848 136.065 149.192 138.273 149.192C140.513 149.192 142.449 149.864 144.081 151.208C145.713 152.52 146.977 154.504 147.873 157.16C148.769 159.816 149.217 163.192 149.217 167.288C149.217 171.384 148.769 174.792 147.873 177.512C146.977 180.232 145.713 182.264 144.081 183.608C142.449 184.952 140.513 185.624 138.273 185.624ZM138.273 182.072C139.617 182.072 140.785 181.56 141.777 180.536C142.801 179.512 143.585 177.912 144.129 175.736C144.705 173.528 144.993 170.712 144.993 167.288C144.993 163.864 144.705 161.08 144.129 158.936C143.585 156.76 142.801 155.176 141.777 154.184C140.785 153.16 139.617 152.648 138.273 152.648C136.961 152.648 135.793 153.16 134.769 154.184C133.745 155.176 132.945 156.76 132.369 158.936C131.825 161.08 131.553 163.864 131.553 167.288C131.553 170.712 131.825 173.528 132.369 175.736C132.945 177.912 133.745 179.512 134.769 180.536C135.793 181.56 136.961 182.072 138.273 182.072ZM166.338 185.624C164.13 185.624 162.194 184.952 160.53 183.608C158.898 182.264 157.634 180.232 156.738 177.512C155.842 174.792 155.394 171.384 155.394 167.288C155.394 163.192 155.842 159.816 156.738 157.16C157.634 154.472 158.898 152.472 160.53 151.16C162.194 149.848 164.13 149.192 166.338 149.192C168.578 149.192 170.514 149.864 172.146 151.208C173.778 152.52 175.042 154.504 175.938 157.16C176.834 159.816 177.282 163.192 177.282 167.288C177.282 171.384 176.834 174.792 175.938 177.512C175.042 180.232 173.778 182.264 172.146 183.608C170.514 184.952 168.578 185.624 166.338 185.624ZM166.338 182.072C167.682 182.072 168.85 181.56 169.842 180.536C170.866 179.512 171.65 177.912 172.194 175.736C172.77 173.528 173.058 170.712 173.058 167.288C173.058 163.864 172.77 161.08 172.194 158.936C171.65 156.76 170.866 155.176 169.842 154.184C168.85 153.16 167.682 152.648 166.338 152.648C165.026 152.648 163.858 153.16 162.834 154.184C161.81 155.176 161.01 156.76 160.434 158.936C159.89 161.08 159.618 163.864 159.618 167.288C159.618 170.712 159.89 173.528 160.434 175.736C161.01 177.912 161.81 179.512 162.834 180.536C163.858 181.56 165.026 182.072 166.338 182.072Z" fill="#FFFB00"/>
<line x1="83.5799" y1="178.71" x2="160.71" y2="149.42" stroke="black" stroke-width="2" stroke-linecap="round"/>
<rect x="10" y="10" width="540" height="300" rx="8" stroke="white" stroke-width="4"/>
<path d="M61.934 56.316L68.09 58.206C67.046 61.23 65.786 64.29 64.31 67.386C62.87 70.446 61.286 73.362 59.558 76.134C57.866 78.87 56.102 81.282 54.266 83.37C54.05 82.83 53.726 82.146 53.294 81.318C52.898 80.454 52.466 79.59 51.998 78.726C51.53 77.862 51.098 77.16 50.702 76.62C52.25 74.964 53.708 73.056 55.076 70.896C56.48 68.7 57.758 66.36 58.91 63.876C60.098 61.392 61.106 58.872 61.934 56.316ZM57.56 71.274L63.716 65.118V65.172V106.752H57.56V71.274ZM80.564 56.37H86.882V106.428H80.564V56.37ZM66.848 65.766H101.84V71.922H66.848V65.766ZM73.436 91.956H94.172V97.734H73.436V91.956ZM89.204 69.222C90.14 72.246 91.346 75.306 92.822 78.402C94.298 81.462 95.936 84.324 97.736 86.988C99.536 89.616 101.408 91.848 103.352 93.684C102.596 94.224 101.732 94.98 100.76 95.952C99.824 96.924 99.068 97.842 98.492 98.706C96.548 96.546 94.694 93.954 92.93 90.93C91.166 87.906 89.582 84.648 88.178 81.156C86.774 77.628 85.568 74.082 84.56 70.518L89.204 69.222ZM78.566 68.682L83.264 69.978C82.256 73.722 81.014 77.394 79.538 80.994C78.062 84.594 76.406 87.924 74.57 90.984C72.734 94.044 70.754 96.672 68.63 98.868C68.27 98.364 67.82 97.806 67.28 97.194C66.74 96.546 66.164 95.934 65.552 95.358C64.976 94.782 64.454 94.314 63.986 93.954C66.074 92.118 68.036 89.85 69.872 87.15C71.744 84.414 73.418 81.462 74.894 78.294C76.406 75.09 77.63 71.886 78.566 68.682ZM135.428 82.02V86.988H149.252V82.02H135.428ZM130.136 77.322H154.76V91.686H130.136V77.322ZM141.908 61.77C141.116 63.21 140.09 64.722 138.83 66.306C137.57 67.89 136.148 69.402 134.564 70.842C133.016 72.282 131.378 73.542 129.65 74.622C129.362 73.83 128.93 72.93 128.354 71.922C127.778 70.878 127.22 70.032 126.68 69.384C128.408 68.412 130.046 67.188 131.594 65.712C133.178 64.236 134.6 62.67 135.86 61.014C137.12 59.322 138.128 57.702 138.884 56.154H144.554C145.598 57.774 146.804 59.394 148.172 61.014C149.54 62.598 150.998 64.038 152.546 65.334C154.094 66.594 155.66 67.62 157.244 68.412C156.668 69.132 156.074 70.032 155.462 71.112C154.886 72.156 154.4 73.11 154.004 73.974C152.456 73.038 150.926 71.904 149.414 70.572C147.902 69.204 146.498 67.764 145.202 66.252C143.906 64.74 142.808 63.246 141.908 61.77ZM139.37 71.652H145.094V82.236C145.094 84.396 144.932 86.61 144.608 88.878C144.32 91.11 143.672 93.324 142.664 95.52C141.692 97.68 140.252 99.732 138.344 101.676C136.436 103.62 133.88 105.384 130.676 106.968C130.388 106.5 130.01 105.978 129.542 105.402C129.11 104.862 128.642 104.304 128.138 103.728C127.634 103.188 127.166 102.756 126.734 102.432C129.578 101.1 131.828 99.642 133.484 98.058C135.176 96.438 136.436 94.746 137.264 92.982C138.128 91.182 138.686 89.364 138.938 87.528C139.226 85.692 139.37 83.892 139.37 82.128V71.652ZM145.634 88.878C146.606 91.686 148.046 94.242 149.954 96.546C151.898 98.814 154.256 100.524 157.028 101.676C156.56 102.072 156.056 102.558 155.516 103.134C155.012 103.746 154.526 104.376 154.058 105.024C153.59 105.672 153.194 106.266 152.87 106.806C149.846 105.186 147.344 102.918 145.364 100.002C143.42 97.086 141.872 93.792 140.72 90.12L145.634 88.878ZM133.862 69.438H150.548V74.46H133.862V69.438ZM111.29 66.306H127.058V71.22H111.29V66.306ZM111.29 74.514H127.058V79.374H111.29V74.514ZM108.212 82.722H126.734V87.744H108.212V82.722ZM117.23 61.176H122.36V85.476H117.23V61.176ZM119.012 90.174L121.55 89.364C122.09 90.408 122.594 91.578 123.062 92.874C123.566 94.17 123.908 95.286 124.088 96.222L121.442 97.194C121.262 96.258 120.938 95.124 120.47 93.792C120.038 92.46 119.552 91.254 119.012 90.174ZM115.502 90.93L118.256 90.444C118.724 91.812 119.12 93.324 119.444 94.98C119.768 96.6 119.966 97.986 120.038 99.138L117.176 99.732C117.104 98.544 116.906 97.14 116.582 95.52C116.294 93.864 115.934 92.334 115.502 90.93ZM111.776 91.2L114.584 90.93C114.872 92.514 115.052 94.242 115.124 96.114C115.196 97.95 115.214 99.534 115.178 100.866L112.208 101.298C112.316 99.93 112.316 98.31 112.208 96.438C112.136 94.566 111.992 92.82 111.776 91.2ZM107.78 90.066L111.344 90.768C111.272 92.424 111.128 94.062 110.912 95.682C110.732 97.302 110.426 98.814 109.994 100.218C109.598 101.586 109.04 102.774 108.32 103.782L105.026 102C105.674 101.064 106.178 99.984 106.538 98.76C106.898 97.5 107.168 96.132 107.348 94.656C107.564 93.144 107.708 91.614 107.78 90.066ZM108.212 58.152H128.138V63.39H113.558V86.178H108.212V58.152ZM123.926 82.722H129.218C129.218 82.722 129.218 82.992 129.218 83.532C129.218 84.072 129.2 84.522 129.164 84.882C129.02 89.238 128.84 92.766 128.624 95.466C128.408 98.166 128.156 100.254 127.868 101.73C127.58 103.17 127.22 104.16 126.788 104.7C126.356 105.312 125.888 105.744 125.384 105.996C124.88 106.284 124.286 106.482 123.602 106.59C123.062 106.698 122.36 106.752 121.496 106.752C120.668 106.788 119.786 106.788 118.85 106.752C118.814 105.96 118.67 105.096 118.418 104.16C118.166 103.224 117.842 102.414 117.446 101.73C118.166 101.802 118.814 101.856 119.39 101.892C119.966 101.928 120.434 101.946 120.794 101.946C121.082 101.946 121.334 101.892 121.55 101.784C121.766 101.676 121.982 101.496 122.198 101.244C122.486 100.884 122.72 100.11 122.9 98.922C123.116 97.734 123.296 95.916 123.44 93.468C123.62 91.02 123.782 87.744 123.926 83.64V82.722ZM166.775 100.2C167.045 99.63 167.21 99.135 167.27 98.715C167.33 98.295 167.36 97.815 167.36 97.275C167.36 96.705 167.36 95.835 167.36 94.665C167.36 93.495 167.36 92.145 167.36 90.615C167.36 89.055 167.36 87.42 167.36 85.71C167.36 84 167.36 82.32 167.36 80.67C167.36 79.02 167.36 77.52 167.36 76.17C167.36 74.82 167.36 73.725 167.36 72.885C167.36 72.315 167.33 71.715 167.27 71.085C167.24 70.455 167.18 69.855 167.09 69.285C167.03 68.685 166.955 68.175 166.865 67.755H173.93C173.81 68.625 173.705 69.48 173.615 70.32C173.525 71.16 173.48 72.015 173.48 72.885C173.48 73.605 173.48 74.505 173.48 75.585C173.48 76.635 173.48 77.805 173.48 79.095C173.48 80.385 173.48 81.72 173.48 83.1C173.48 84.48 173.48 85.845 173.48 87.195C173.48 88.545 173.48 89.82 173.48 91.02C173.48 92.22 173.48 93.27 173.48 94.17C173.48 95.07 173.48 95.775 173.48 96.285C175.31 95.745 177.26 95.01 179.33 94.08C181.43 93.12 183.53 91.995 185.63 90.705C187.76 89.385 189.755 87.945 191.615 86.385C193.505 84.825 195.17 83.16 196.61 81.39L199.805 86.475C196.745 90.165 192.95 93.36 188.42 96.06C183.92 98.73 179.015 100.935 173.705 102.675C173.405 102.795 173.015 102.945 172.535 103.125C172.055 103.305 171.56 103.56 171.05 103.89L166.775 100.2ZM225.725 75.27C225.935 75.75 226.205 76.44 226.535 77.34C226.895 78.21 227.27 79.155 227.66 80.175C228.05 81.165 228.395 82.11 228.695 83.01C228.995 83.91 229.235 84.615 229.415 85.125L224.015 87.015C223.895 86.445 223.685 85.725 223.385 84.855C223.085 83.985 222.755 83.07 222.395 82.11C222.035 81.12 221.675 80.175 221.315 79.275C220.955 78.375 220.64 77.625 220.37 77.025L225.725 75.27ZM242.33 78.555C242.09 79.275 241.88 79.89 241.7 80.4C241.55 80.91 241.4 81.39 241.25 81.84C240.68 84.12 239.9 86.4 238.91 88.68C237.92 90.93 236.66 93.045 235.13 95.025C233.03 97.725 230.645 100.02 227.975 101.91C225.335 103.77 222.695 105.195 220.055 106.185L215.33 101.37C216.98 100.92 218.72 100.26 220.55 99.39C222.38 98.49 224.15 97.41 225.86 96.15C227.57 94.89 229.04 93.495 230.27 91.965C231.29 90.675 232.19 89.205 232.97 87.555C233.78 85.875 234.44 84.09 234.95 82.2C235.49 80.28 235.85 78.39 236.03 76.53L242.33 78.555ZM215.285 77.655C215.585 78.225 215.915 78.96 216.275 79.86C216.665 80.76 217.055 81.705 217.445 82.695C217.835 83.685 218.21 84.645 218.57 85.575C218.96 86.505 219.26 87.285 219.47 87.915L213.98 89.985C213.8 89.385 213.53 88.605 213.17 87.645C212.84 86.685 212.465 85.68 212.045 84.63C211.625 83.55 211.22 82.56 210.83 81.66C210.47 80.76 210.155 80.07 209.885 79.59L215.285 77.655ZM285.53 71.49C285.35 71.76 285.08 72.18 284.72 72.75C284.39 73.32 284.135 73.845 283.955 74.325C283.325 75.735 282.545 77.31 281.615 79.05C280.715 80.79 279.68 82.545 278.51 84.315C277.37 86.055 276.155 87.69 274.865 89.22C273.185 91.11 271.325 92.985 269.285 94.845C267.275 96.675 265.145 98.37 262.895 99.93C260.675 101.46 258.395 102.78 256.055 103.89L251.42 99.03C253.85 98.1 256.205 96.93 258.485 95.52C260.765 94.11 262.88 92.58 264.83 90.93C266.78 89.28 268.46 87.675 269.87 86.115C270.86 84.975 271.79 83.76 272.66 82.47C273.56 81.18 274.355 79.905 275.045 78.645C275.735 77.355 276.245 76.17 276.575 75.09C276.275 75.09 275.735 75.09 274.955 75.09C274.175 75.09 273.26 75.09 272.21 75.09C271.19 75.09 270.11 75.09 268.97 75.09C267.83 75.09 266.735 75.09 265.685 75.09C264.665 75.09 263.765 75.09 262.985 75.09C262.205 75.09 261.65 75.09 261.32 75.09C260.69 75.09 260.03 75.12 259.34 75.18C258.65 75.21 257.99 75.255 257.36 75.315C256.76 75.345 256.295 75.375 255.965 75.405V69.015C256.415 69.045 256.97 69.09 257.63 69.15C258.29 69.21 258.95 69.255 259.61 69.285C260.3 69.315 260.87 69.33 261.32 69.33C261.71 69.33 262.325 69.33 263.165 69.33C264.005 69.33 264.965 69.33 266.045 69.33C267.125 69.33 268.235 69.33 269.375 69.33C270.545 69.33 271.655 69.33 272.705 69.33C273.785 69.33 274.715 69.33 275.495 69.33C276.275 69.33 276.845 69.33 277.205 69.33C278.195 69.33 279.095 69.27 279.905 69.15C280.745 69.03 281.39 68.895 281.84 68.745L285.53 71.49ZM275.45 85.485C276.62 86.415 277.865 87.495 279.185 88.725C280.505 89.955 281.81 91.23 283.1 92.55C284.39 93.87 285.575 95.145 286.655 96.375C287.765 97.575 288.695 98.625 289.445 99.525L284.315 103.98C283.205 102.45 281.93 100.86 280.49 99.21C279.08 97.56 277.58 95.925 275.99 94.305C274.43 92.655 272.84 91.095 271.22 89.625L275.45 85.485ZM303.845 67.8C304.625 68.34 305.54 69 306.59 69.78C307.64 70.56 308.72 71.415 309.83 72.345C310.97 73.245 312.035 74.13 313.025 75C314.015 75.87 314.825 76.65 315.455 77.34L310.865 82.02C310.295 81.39 309.545 80.64 308.615 79.77C307.685 78.9 306.68 78 305.6 77.07C304.52 76.14 303.455 75.255 302.405 74.415C301.355 73.575 300.425 72.87 299.615 72.3L303.845 67.8ZM298.22 97.77C300.56 97.44 302.765 96.975 304.835 96.375C306.905 95.775 308.825 95.085 310.595 94.305C312.365 93.525 313.985 92.715 315.455 91.875C318.005 90.345 320.345 88.605 322.475 86.655C324.605 84.705 326.465 82.68 328.055 80.58C329.645 78.45 330.905 76.38 331.835 74.37L335.345 80.715C334.205 82.725 332.795 84.735 331.115 86.745C329.465 88.755 327.59 90.675 325.49 92.505C323.39 94.305 321.125 95.925 318.695 97.365C317.165 98.295 315.515 99.18 313.745 100.02C311.975 100.83 310.1 101.55 308.12 102.18C306.17 102.84 304.13 103.35 302 103.71L298.22 97.77Z" fill="white"/>
<path fill-rule="evenodd" clip-rule="evenodd" d="M283.884 23.1163C284.118 23.3507 284.25 23.6686 284.25 24C284.25 24.3315 284.118 24.6493 283.884 24.8838L263.884 44.8838C263.648 45.1115 263.332 45.2374 263.005 45.2346C262.677 45.2318 262.363 45.1003 262.131 44.8685C261.9 44.6368 261.768 44.3233 261.765 43.9955C261.763 43.6678 261.889 43.352 262.116 43.1163L282.116 23.1163C282.351 22.8819 282.669 22.7503 283 22.7503C283.331 22.7503 283.649 22.8819 283.884 23.1163Z" fill="white"/>
<path fill-rule="evenodd" clip-rule="evenodd" d="M100.116 23.1162C99.8819 23.3506 99.7502 23.6685 99.7502 24C99.7502 24.3314 99.8819 24.6493 100.116 24.8837L120.116 44.8837C120.352 45.1114 120.668 45.2374 120.995 45.2346C121.323 45.2317 121.637 45.1003 121.869 44.8685C122.1 44.6367 122.232 44.3232 122.235 43.9955C122.237 43.6677 122.111 43.352 121.884 43.1162L101.884 23.1162C101.649 22.8819 101.331 22.7502 101 22.7502C100.669 22.7502 100.351 22.8819 100.116 23.1162Z" fill="white"/>
<path d="M147.96 25.22L149.06 26.44C148.167 26.7067 147.14 26.9467 145.98 27.16C144.833 27.36 143.613 27.5333 142.32 27.68C141.04 27.8267 139.747 27.9467 138.44 28.04C137.147 28.1333 135.893 28.2 134.68 28.24C134.653 28.0533 134.6 27.8333 134.52 27.58C134.453 27.3133 134.387 27.1 134.32 26.94C135.507 26.8733 136.74 26.7933 138.02 26.7C139.3 26.6067 140.553 26.4933 141.78 26.36C143.007 26.2133 144.147 26.0467 145.2 25.86C146.267 25.6733 147.187 25.46 147.96 25.22ZM134.34 30.88H149.92V32.32H134.34V30.88ZM133 35.56H151.06V37.04H133V35.56ZM141.26 27.36H142.8V41.5C142.8 42.0333 142.713 42.4267 142.54 42.68C142.38 42.9467 142.113 43.14 141.74 43.26C141.353 43.38 140.82 43.4533 140.14 43.48C139.473 43.52 138.613 43.5333 137.56 43.52C137.52 43.3733 137.467 43.2067 137.4 43.02C137.333 42.8467 137.253 42.6667 137.16 42.48C137.08 42.3067 137 42.16 136.92 42.04C137.48 42.0533 138.013 42.06 138.52 42.06C139.027 42.06 139.467 42.06 139.84 42.06C140.213 42.06 140.48 42.06 140.64 42.06C140.867 42.0467 141.027 42 141.12 41.92C141.213 41.84 141.26 41.7 141.26 41.5V27.36ZM161.62 31.22C161.887 31.0333 162.147 30.8467 162.4 30.66C162.667 30.46 162.873 30.3067 163.02 30.2C162.74 29.96 162.36 29.7 161.88 29.42C161.4 29.1267 160.887 28.8467 160.34 28.58C159.793 28.3 159.26 28.06 158.74 27.86L159.66 26.7C160.18 26.9133 160.747 27.1667 161.36 27.46C161.973 27.7533 162.567 28.0667 163.14 28.4C163.727 28.72 164.213 29.0267 164.6 29.32L164.98 30.34C164.86 30.4467 164.707 30.5733 164.52 30.72C164.333 30.8667 164.127 31.0267 163.9 31.2C163.687 31.3733 163.467 31.5467 163.24 31.72C163.027 31.88 162.827 32.0267 162.64 32.16L161.62 31.22ZM157.76 40.76C158.267 40.9067 158.773 41.02 159.28 41.1C159.8 41.18 160.373 41.22 161 41.22C161.307 41.22 161.613 41.1733 161.92 41.08C162.24 40.9867 162.5 40.82 162.7 40.58C162.913 40.3267 163.02 39.9867 163.02 39.56C163.02 39.2133 162.94 38.8533 162.78 38.48C162.62 38.0933 162.407 37.7067 162.14 37.32C161.887 36.92 161.613 36.54 161.32 36.18C161.027 35.8067 160.74 35.4733 160.46 35.18C160.247 34.94 159.993 34.6867 159.7 34.42C159.42 34.1533 159.14 33.9 158.86 33.66L160.04 32.64C160.293 32.8933 160.54 33.1533 160.78 33.42C161.033 33.6733 161.273 33.9267 161.5 34.18C162.127 34.8333 162.68 35.4733 163.16 36.1C163.64 36.7133 164.013 37.32 164.28 37.92C164.56 38.52 164.7 39.12 164.7 39.72C164.7 40.3333 164.587 40.84 164.36 41.24C164.147 41.6267 163.867 41.9267 163.52 42.14C163.173 42.3667 162.8 42.52 162.4 42.6C162 42.6933 161.62 42.74 161.26 42.74C160.62 42.74 160.027 42.7067 159.48 42.64C158.933 42.5733 158.44 42.5 158 42.42L157.76 40.76ZM169.3 41.52C169.167 41.04 168.98 40.52 168.74 39.96C168.513 39.3867 168.247 38.8133 167.94 38.24C167.647 37.6533 167.333 37.1 167 36.58C166.667 36.0467 166.327 35.5867 165.98 35.2L167.28 34.46C167.627 34.86 167.973 35.3267 168.32 35.86C168.667 36.3933 169 36.9467 169.32 37.52C169.64 38.0933 169.927 38.66 170.18 39.22C170.433 39.7667 170.64 40.26 170.8 40.7L169.3 41.52ZM158.44 37.62C158.053 38.0067 157.587 38.4467 157.04 38.94C156.493 39.42 155.9 39.9 155.26 40.38C154.633 40.8467 153.993 41.2733 153.34 41.66L152.4 40.34C152.813 40.1133 153.253 39.84 153.72 39.52C154.2 39.2 154.673 38.86 155.14 38.5C155.607 38.14 156.047 37.78 156.46 37.42C156.873 37.06 157.22 36.7267 157.5 36.42L158.44 37.62ZM167.3 28.7C167.473 28.94 167.66 29.2267 167.86 29.56C168.06 29.8933 168.253 30.2267 168.44 30.56C168.64 30.8933 168.807 31.2 168.94 31.48L167.86 31.96C167.673 31.5467 167.42 31.0733 167.1 30.54C166.793 30.0067 166.507 29.5467 166.24 29.16L167.3 28.7ZM169.5 27.9C169.687 28.1533 169.887 28.4467 170.1 28.78C170.313 29.1 170.52 29.4267 170.72 29.76C170.92 30.0933 171.08 30.3867 171.2 30.64L170.12 31.12C169.907 30.68 169.647 30.2067 169.34 29.7C169.047 29.18 168.753 28.7333 168.46 28.36L169.5 27.9ZM178.7 26.32C179.127 26.4533 179.68 26.6 180.36 26.76C181.053 26.92 181.78 27.08 182.54 27.24C183.313 27.3867 184.047 27.52 184.74 27.64C185.433 27.7467 186 27.82 186.44 27.86L186.06 29.4C185.687 29.3467 185.227 29.2733 184.68 29.18C184.147 29.0867 183.573 28.98 182.96 28.86C182.347 28.74 181.74 28.62 181.14 28.5C180.54 28.3667 179.993 28.2467 179.5 28.14C179.007 28.02 178.607 27.92 178.3 27.84L178.7 26.32ZM178.26 29.96C178.193 30.3067 178.12 30.7333 178.04 31.24C177.973 31.7333 177.9 32.2533 177.82 32.8C177.74 33.3467 177.667 33.8667 177.6 34.36C177.533 34.8533 177.473 35.26 177.42 35.58C178.393 34.74 179.42 34.1267 180.5 33.74C181.593 33.34 182.74 33.14 183.94 33.14C184.967 33.14 185.86 33.3267 186.62 33.7C187.38 34.06 187.973 34.56 188.4 35.2C188.827 35.8267 189.04 36.5333 189.04 37.32C189.04 38.2133 188.833 39.0267 188.42 39.76C188.02 40.48 187.387 41.0867 186.52 41.58C185.667 42.0733 184.573 42.42 183.24 42.62C181.907 42.8333 180.307 42.86 178.44 42.7L177.96 41.06C180.08 41.3133 181.833 41.3067 183.22 41.04C184.607 40.76 185.64 40.2933 186.32 39.64C187.013 38.9733 187.36 38.1867 187.36 37.28C187.36 36.7467 187.207 36.2733 186.9 35.86C186.593 35.4467 186.173 35.1267 185.64 34.9C185.12 34.66 184.52 34.54 183.84 34.54C182.533 34.54 181.347 34.78 180.28 35.26C179.227 35.7267 178.347 36.38 177.64 37.22C177.493 37.3933 177.373 37.5667 177.28 37.74C177.187 37.9 177.107 38.06 177.04 38.22L175.56 37.86C175.64 37.4867 175.72 37.04 175.8 36.52C175.88 35.9867 175.96 35.42 176.04 34.82C176.12 34.2067 176.193 33.5933 176.26 32.98C176.34 32.3667 176.407 31.78 176.46 31.22C176.513 30.6467 176.553 30.1533 176.58 29.74L178.26 29.96ZM192.975 28.84C193.348 28.8267 193.688 28.8133 193.995 28.8C194.315 28.7733 194.568 28.7533 194.755 28.74C195.075 28.7 195.535 28.6533 196.135 28.6C196.748 28.5333 197.448 28.4667 198.235 28.4C199.021 28.32 199.868 28.24 200.775 28.16C201.681 28.08 202.595 28 203.515 27.92C204.248 27.8533 204.941 27.8 205.595 27.76C206.248 27.7067 206.855 27.6667 207.415 27.64C207.975 27.6 208.475 27.5733 208.915 27.56V29.16C208.541 29.16 208.115 29.1667 207.635 29.18C207.155 29.1933 206.681 29.22 206.215 29.26C205.748 29.3 205.341 29.3733 204.995 29.48C204.288 29.7067 203.648 30.0533 203.075 30.52C202.515 30.9733 202.035 31.5 201.635 32.1C201.235 32.7 200.928 33.32 200.715 33.96C200.515 34.6 200.415 35.22 200.415 35.82C200.415 36.5933 200.548 37.2733 200.815 37.86C201.081 38.4333 201.441 38.92 201.895 39.32C202.361 39.72 202.888 40.0467 203.475 40.3C204.061 40.5533 204.681 40.7467 205.335 40.88C206.001 41 206.661 41.0667 207.315 41.08L206.735 42.74C205.988 42.7133 205.241 42.6067 204.495 42.42C203.748 42.2467 203.035 41.9933 202.355 41.66C201.675 41.3133 201.068 40.88 200.535 40.36C200.001 39.84 199.581 39.2333 199.275 38.54C198.968 37.8467 198.815 37.0533 198.815 36.16C198.815 35.12 198.995 34.16 199.355 33.28C199.728 32.3867 200.201 31.6067 200.775 30.94C201.348 30.2733 201.941 29.76 202.555 29.4C202.128 29.4533 201.595 29.5133 200.955 29.58C200.328 29.6467 199.655 29.72 198.935 29.8C198.215 29.8667 197.488 29.9467 196.755 30.04C196.035 30.1333 195.361 30.2267 194.735 30.32C194.108 30.4 193.581 30.4867 193.155 30.58L192.975 28.84ZM206.035 31.62C206.181 31.8333 206.355 32.1067 206.555 32.44C206.768 32.76 206.975 33.0933 207.175 33.44C207.375 33.7733 207.541 34.0933 207.675 34.4L206.655 34.88C206.428 34.3867 206.175 33.9 205.895 33.42C205.615 32.9267 205.321 32.4733 205.015 32.06L206.035 31.62ZM208.215 30.78C208.375 30.9933 208.561 31.26 208.775 31.58C208.988 31.9 209.195 32.2333 209.395 32.58C209.608 32.9133 209.795 33.2333 209.955 33.54L208.915 34.04C208.675 33.5467 208.408 33.06 208.115 32.58C207.835 32.1 207.541 31.6533 207.235 31.24L208.215 30.78ZM218.815 42.26C217.588 42.26 216.501 41.9533 215.555 41.34C214.621 40.7133 213.888 39.8267 213.355 38.68C212.821 37.5333 212.555 36.18 212.555 34.62C212.555 33.0467 212.821 31.7 213.355 30.58C213.888 29.4467 214.621 28.58 215.555 27.98C216.501 27.38 217.588 27.08 218.815 27.08C220.041 27.08 221.121 27.3867 222.055 28C223.001 28.6 223.741 29.46 224.275 30.58C224.808 31.7 225.075 33.0467 225.075 34.62C225.075 36.18 224.808 37.5333 224.275 38.68C223.741 39.8267 223.001 40.7133 222.055 41.34C221.121 41.9533 220.041 42.26 218.815 42.26ZM218.815 40.64C219.695 40.64 220.461 40.3933 221.115 39.9C221.768 39.4067 222.275 38.7067 222.635 37.8C222.995 36.8933 223.175 35.8333 223.175 34.62C223.175 33.3933 222.995 32.34 222.635 31.46C222.275 30.5667 221.768 29.8867 221.115 29.42C220.461 28.94 219.695 28.7 218.815 28.7C217.948 28.7 217.181 28.94 216.515 29.42C215.861 29.8867 215.355 30.5667 214.995 31.46C214.635 32.34 214.455 33.3933 214.455 34.62C214.455 35.8333 214.635 36.8933 214.995 37.8C215.355 38.7067 215.861 39.4067 216.515 39.9C217.181 40.3933 217.948 40.64 218.815 40.64ZM228.258 42V27.34H230.098V34.7H230.138L236.278 27.34H238.378L233.778 32.9L239.078 42H237.018L232.618 34.36L230.098 37.36V42H228.258ZM248.508 37.16L248.108 29.4L248.068 27.04H250.268L250.228 29.4L249.828 37.16H248.508ZM249.168 42.1C248.808 42.1 248.501 41.98 248.248 41.74C248.008 41.5 247.888 41.18 247.888 40.78C247.888 40.38 248.015 40.06 248.268 39.82C248.521 39.5667 248.821 39.44 249.168 39.44C249.515 39.44 249.815 39.5667 250.068 39.82C250.321 40.06 250.448 40.38 250.448 40.78C250.448 41.18 250.321 41.5 250.068 41.74C249.815 41.98 249.515 42.1 249.168 42.1Z" fill="white"/>
<path d="M323.599 177.206C323.899 176.897 324.068 176.478 324.068 176.04C324.068 175.603 323.899 175.183 323.599 174.874L314.549 165.543C314.401 165.386 314.224 165.26 314.029 165.174C313.834 165.087 313.624 165.042 313.412 165.04C313.199 165.038 312.989 165.08 312.792 165.163C312.595 165.246 312.417 165.368 312.267 165.523C312.116 165.678 311.998 165.862 311.917 166.065C311.837 166.267 311.796 166.485 311.798 166.704C311.8 166.923 311.844 167.139 311.928 167.34C312.012 167.541 312.134 167.724 312.286 167.876L318.606 174.391H297.419C296.994 174.391 296.588 174.565 296.288 174.874C295.987 175.183 295.819 175.603 295.819 176.04C295.819 176.478 295.987 176.897 296.288 177.207C296.588 177.516 296.994 177.69 297.419 177.69H318.606L312.286 184.205C311.995 184.516 311.834 184.932 311.837 185.365C311.841 185.797 312.009 186.211 312.306 186.517C312.603 186.823 313.004 186.996 313.423 187C313.843 187.004 314.247 186.837 314.549 186.537L323.599 177.206Z" fill="black"/>
<path d="M395.2 192.24C387.2 192.24 380.16 189.947 374.08 185.36C368.107 180.667 363.413 173.733 360 164.56C356.693 155.28 355.04 143.813 355.04 130.16C355.04 116.613 356.693 105.36 360 96.4C363.413 87.3333 368.107 80.56 374.08 76.08C380.16 71.6 387.2 69.36 395.2 69.36C403.307 69.36 410.347 71.6533 416.32 76.24C422.293 80.72 426.933 87.44 430.24 96.4C433.653 105.36 435.36 116.613 435.36 130.16C435.36 143.813 433.653 155.28 430.24 164.56C426.933 173.733 422.293 180.667 416.32 185.36C410.347 189.947 403.307 192.24 395.2 192.24ZM395.2 173.84C398.72 173.84 401.813 172.507 404.48 169.84C407.147 167.173 409.227 162.693 410.72 156.4C412.213 150 412.96 141.253 412.96 130.16C412.96 119.173 412.213 110.587 410.72 104.4C409.227 98.1067 407.147 93.7333 404.48 91.28C401.813 88.72 398.72 87.44 395.2 87.44C391.893 87.44 388.853 88.72 386.08 91.28C383.413 93.7333 381.28 98.1067 379.68 104.4C378.08 110.587 377.28 119.173 377.28 130.16C377.28 141.253 378.08 150 379.68 156.4C381.28 162.693 383.413 167.173 386.08 169.84C388.853 172.507 391.893 173.84 395.2 173.84Z" fill="#FFFB00"/>
<path d="M446.16 148.128H486.928V154.316H452.4V193.628H446.16V148.128ZM483.964 148.128H490.256V186.348C490.256 188.012 490.048 189.312 489.632 190.248C489.216 191.219 488.471 191.964 487.396 192.484C486.321 193.004 484.969 193.316 483.34 193.42C481.745 193.559 479.787 193.628 477.464 193.628C477.36 193.039 477.187 192.363 476.944 191.6C476.701 190.837 476.424 190.075 476.112 189.312C475.8 188.584 475.488 187.943 475.176 187.388C476.181 187.457 477.187 187.509 478.192 187.544C479.232 187.544 480.151 187.544 480.948 187.544C481.745 187.544 482.3 187.544 482.612 187.544C483.097 187.509 483.444 187.405 483.652 187.232C483.86 187.024 483.964 186.695 483.964 186.244V148.128ZM449.54 167.472H487.032V173.608H449.54V167.472ZM464.724 151.508H470.964V170.54H464.724V151.508Z" fill="#FFFB00"/>
<circle cx="490" cy="68" r="45" fill="white"/>
<path d="M469.92 61.24C469.507 61.84 469.013 62.46 468.44 63.1C467.867 63.7267 467.233 64.36 466.54 65C465.86 65.6267 465.133 66.2333 464.36 66.82C463.6 67.3933 462.807 67.92 461.98 68.4C461.887 68.2133 461.753 68 461.58 67.76C461.407 67.52 461.22 67.2867 461.02 67.06C460.833 66.8333 460.647 66.64 460.46 66.48C461.313 66.0133 462.147 65.48 462.96 64.88C463.773 64.2667 464.533 63.6133 465.24 62.92C465.96 62.2267 466.607 61.54 467.18 60.86C467.753 60.1667 468.227 59.5067 468.6 58.88H471.02C471.567 59.6533 472.167 60.4067 472.82 61.14C473.487 61.86 474.187 62.54 474.92 63.18C475.667 63.82 476.433 64.4 477.22 64.92C478.02 65.44 478.813 65.8867 479.6 66.26C479.293 66.5533 479.007 66.8867 478.74 67.26C478.473 67.6333 478.233 68.0067 478.02 68.38C477.247 67.9267 476.473 67.4133 475.7 66.84C474.94 66.2667 474.193 65.6667 473.46 65.04C472.74 64.4 472.073 63.76 471.46 63.12C470.86 62.4667 470.347 61.84 469.92 61.24ZM465.7 65.14H474.22V67.36H465.7V65.14ZM462.94 69.26H474.52V71.54H462.94V69.26ZM474.12 69.26H474.48L474.9 69.16L476.82 69.7C476.487 70.5267 476.113 71.4133 475.7 72.36C475.287 73.2933 474.86 74.2333 474.42 75.18C473.993 76.1133 473.567 77.0067 473.14 77.86L470.58 77.16C470.9 76.5333 471.227 75.8733 471.56 75.18C471.907 74.4733 472.24 73.7733 472.56 73.08C472.88 72.3867 473.173 71.7333 473.44 71.12C473.72 70.5067 473.947 69.98 474.12 69.54V69.26ZM488.88 60.26C488.8 60.54 488.713 60.8733 488.62 61.26C488.54 61.6333 488.48 61.9333 488.44 62.16C488.347 62.6133 488.227 63.1667 488.08 63.82C487.947 64.4733 487.8 65.1667 487.64 65.9C487.48 66.62 487.313 67.32 487.14 68C486.953 68.6933 486.733 69.4533 486.48 70.28C486.24 71.1067 485.973 71.94 485.68 72.78C485.4 73.62 485.113 74.4267 484.82 75.2C484.527 75.9733 484.24 76.66 483.96 77.26L481.16 76.32C481.467 75.8133 481.78 75.1933 482.1 74.46C482.433 73.7267 482.76 72.9467 483.08 72.12C483.4 71.28 483.693 70.4467 483.96 69.62C484.227 68.78 484.453 68.0133 484.64 67.32C484.76 66.84 484.88 66.3533 485 65.86C485.12 65.3667 485.227 64.8867 485.32 64.42C485.427 63.9533 485.513 63.52 485.58 63.12C485.66 62.7067 485.72 62.3533 485.76 62.06C485.8 61.6867 485.827 61.3133 485.84 60.94C485.853 60.5667 485.847 60.26 485.82 60.02L488.88 60.26ZM483.78 63.26C484.593 63.26 485.44 63.22 486.32 63.14C487.2 63.06 488.087 62.9467 488.98 62.8C489.873 62.64 490.76 62.46 491.64 62.26V64.76C490.813 64.96 489.933 65.1267 489 65.26C488.067 65.3933 487.147 65.5 486.24 65.58C485.333 65.6467 484.5 65.68 483.74 65.68C483.26 65.68 482.827 65.6733 482.44 65.66C482.053 65.6333 481.68 65.6133 481.32 65.6L481.26 63.1C481.78 63.1533 482.227 63.1933 482.6 63.22C482.973 63.2467 483.367 63.26 483.78 63.26ZM490.06 66.32C490.62 66.2533 491.24 66.2067 491.92 66.18C492.6 66.14 493.26 66.12 493.9 66.12C494.473 66.12 495.053 66.1333 495.64 66.16C496.24 66.1867 496.833 66.2333 497.42 66.3L497.36 68.7C496.867 68.6333 496.32 68.5733 495.72 68.52C495.133 68.4667 494.533 68.44 493.92 68.44C493.227 68.44 492.567 68.46 491.94 68.5C491.313 68.5267 490.687 68.58 490.06 68.66V66.32ZM491.14 71.34C491.06 71.62 490.993 71.9133 490.94 72.22C490.887 72.5267 490.86 72.7867 490.86 73C490.86 73.2267 490.907 73.4333 491 73.62C491.093 73.8067 491.24 73.9733 491.44 74.12C491.64 74.2533 491.913 74.36 492.26 74.44C492.62 74.5067 493.067 74.54 493.6 74.54C494.267 74.54 494.947 74.5067 495.64 74.44C496.333 74.3733 497.04 74.2733 497.76 74.14L497.66 76.68C497.1 76.76 496.48 76.8267 495.8 76.88C495.12 76.9467 494.38 76.98 493.58 76.98C491.9 76.98 490.613 76.7 489.72 76.14C488.84 75.58 488.4 74.8 488.4 73.8C488.4 73.3333 488.433 72.8667 488.5 72.4C488.58 71.9333 488.66 71.5067 488.74 71.12L491.14 71.34ZM495.28 60.84C495.453 61.08 495.633 61.3667 495.82 61.7C496.02 62.0333 496.213 62.3667 496.4 62.7C496.587 63.0333 496.74 63.3267 496.86 63.58L495.26 64.28C495.127 64 494.973 63.6933 494.8 63.36C494.627 63.0267 494.447 62.6933 494.26 62.36C494.073 62.0267 493.887 61.74 493.7 61.5L495.28 60.84ZM497.64 59.94C497.827 60.18 498.02 60.4733 498.22 60.82C498.42 61.1533 498.613 61.4867 498.8 61.82C499 62.14 499.153 62.42 499.26 62.66L497.68 63.34C497.467 62.9133 497.213 62.44 496.92 61.92C496.627 61.4 496.34 60.9533 496.06 60.58L497.64 59.94ZM515.56 60.1C515.533 60.3133 515.513 60.54 515.5 60.78C515.487 61.0067 515.473 61.2333 515.46 61.46C515.447 61.6467 515.44 61.9333 515.44 62.32C515.453 62.6933 515.46 63.12 515.46 63.6C515.46 64.0667 515.46 64.5467 515.46 65.04C515.46 65.52 515.46 65.9667 515.46 66.38C515.473 66.7933 515.48 67.1133 515.48 67.34C515.48 68.5267 515.433 69.6067 515.34 70.58C515.26 71.54 515.073 72.4267 514.78 73.24C514.5 74.0533 514.067 74.8067 513.48 75.5C512.907 76.1933 512.12 76.86 511.12 77.5L508.82 75.68C509.193 75.52 509.607 75.2933 510.06 75C510.513 74.6933 510.873 74.3867 511.14 74.08C511.527 73.68 511.84 73.26 512.08 72.82C512.32 72.38 512.507 71.8933 512.64 71.36C512.787 70.8267 512.88 70.2333 512.92 69.58C512.973 68.9267 513 68.1733 513 67.32C513 66.96 513 66.5067 513 65.96C513 65.4133 512.993 64.8467 512.98 64.26C512.967 63.6733 512.953 63.1333 512.94 62.64C512.927 62.1333 512.907 61.7467 512.88 61.48C512.867 61.2267 512.833 60.9733 512.78 60.72C512.74 60.4667 512.7 60.26 512.66 60.1H515.56ZM507.68 64C508 64.04 508.327 64.08 508.66 64.12C508.993 64.1467 509.327 64.1733 509.66 64.2C510.007 64.2133 510.353 64.22 510.7 64.22C511.567 64.22 512.473 64.2 513.42 64.16C514.367 64.12 515.28 64.06 516.16 63.98C517.04 63.8867 517.807 63.78 518.46 63.66L518.44 66.26C517.813 66.3267 517.073 66.3933 516.22 66.46C515.367 66.5133 514.467 66.56 513.52 66.6C512.587 66.6267 511.667 66.64 510.76 66.64C510.48 66.64 510.16 66.6333 509.8 66.62C509.44 66.6067 509.08 66.5933 508.72 66.58C508.36 66.5667 508.013 66.5533 507.68 66.54V64ZM505.62 60.44C505.54 60.68 505.453 60.96 505.36 61.28C505.267 61.5867 505.193 61.8467 505.14 62.06C505.02 62.6067 504.893 63.2667 504.76 64.04C504.627 64.8 504.513 65.5933 504.42 66.42C504.327 67.2467 504.28 68.06 504.28 68.86C504.28 69.6467 504.347 70.3467 504.48 70.96C504.613 70.6533 504.767 70.2867 504.94 69.86C505.113 69.42 505.28 69.0133 505.44 68.64L506.68 69.44C506.493 70.0133 506.307 70.6067 506.12 71.22C505.947 71.82 505.793 72.3933 505.66 72.94C505.527 73.4733 505.413 73.9333 505.32 74.32C505.28 74.4667 505.247 74.64 505.22 74.84C505.207 75.0267 505.2 75.18 505.2 75.3C505.2 75.3933 505.2 75.52 505.2 75.68C505.213 75.84 505.227 75.9867 505.24 76.12L503.02 76.34C502.873 75.94 502.707 75.3933 502.52 74.7C502.347 73.9933 502.193 73.22 502.06 72.38C501.94 71.5267 501.88 70.6867 501.88 69.86C501.88 68.7667 501.913 67.7133 501.98 66.7C502.06 65.6867 502.153 64.7667 502.26 63.94C502.367 63.1 502.453 62.4133 502.52 61.88C502.573 61.6 502.607 61.3067 502.62 61C502.633 60.68 502.647 60.3933 502.66 60.14L505.62 60.44Z" fill="#F2808C"/>
</svg>
