<svg width="20" height="20" viewBox="0 0 20 20" fill="none" xmlns="http://www.w3.org/2000/svg">
<path d="M16.661 8.268C16.6607 8.40733 16.6052 8.54086 16.5066 8.63929C16.408 8.73772 16.2743 8.793 16.135 8.793H14.673V9.731H16.136C16.2068 9.72791 16.2775 9.73918 16.3438 9.76415C16.4102 9.78911 16.4708 9.82725 16.5219 9.87626C16.5731 9.92527 16.6139 9.98413 16.6417 10.0493C16.6696 10.1145 16.6839 10.1846 16.6839 10.2555C16.6839 10.3264 16.6696 10.3965 16.6417 10.4617C16.6139 10.5269 16.5731 10.5857 16.5219 10.6347C16.4708 10.6838 16.4102 10.7219 16.3438 10.7469C16.2775 10.7718 16.2068 10.7831 16.136 10.78H14.147C14.0085 10.7789 13.8761 10.7233 13.7783 10.6252C13.6806 10.5271 13.6255 10.3945 13.625 10.256V6.28C13.625 5.993 13.86 5.755 14.15 5.755H16.138C16.2716 5.7635 16.397 5.82264 16.4885 5.92037C16.58 6.01809 16.6308 6.14705 16.6306 6.28094C16.6303 6.41483 16.579 6.54359 16.4871 6.64097C16.3952 6.73834 16.2697 6.79701 16.136 6.805H14.673V7.743H16.136C16.426 7.743 16.661 7.98 16.661 8.268ZM12.562 10.753C12.5085 10.7706 12.4523 10.7791 12.396 10.778C12.3138 10.7794 12.2324 10.7613 12.1585 10.7251C12.0846 10.689 12.0203 10.6358 11.971 10.57L9.935 7.806V10.256C9.925 10.388 9.86551 10.5113 9.76843 10.6013C9.67136 10.6913 9.54387 10.7413 9.4115 10.7413C9.27913 10.7413 9.15164 10.6913 9.05457 10.6013C8.95749 10.5113 8.898 10.388 8.888 10.256V6.28C8.8876 6.21146 8.90076 6.14352 8.92672 6.08008C8.95267 6.01665 8.99091 5.95897 9.03924 5.91036C9.08757 5.86176 9.14502 5.82319 9.20831 5.79687C9.27159 5.77055 9.33946 5.757 9.408 5.757C9.57 5.757 9.72 5.843 9.82 5.968L11.872 8.743V6.28C11.872 5.993 12.107 5.755 12.397 5.755C12.684 5.755 12.922 5.993 12.922 6.28V10.256C12.9225 10.3663 12.8878 10.4739 12.8231 10.5633C12.7584 10.6526 12.667 10.7191 12.562 10.753ZM7.612 10.78C7.47336 10.7792 7.34064 10.7237 7.2427 10.6256C7.14476 10.5275 7.08952 10.3946 7.089 10.256V6.28C7.089 5.993 7.324 5.755 7.614 5.755C7.903 5.755 8.138 5.993 8.138 6.28V10.256C8.13721 10.3951 8.08147 10.5282 7.98294 10.6264C7.88441 10.7245 7.75108 10.7797 7.612 10.78ZM6.082 10.78H4.096C3.95734 10.7787 3.8247 10.7231 3.72656 10.6251C3.62841 10.5272 3.57256 10.3947 3.571 10.256V6.28C3.571 5.993 3.809 5.755 4.096 5.755C4.386 5.755 4.621 5.993 4.621 6.28V9.73H6.085C6.22424 9.73 6.35777 9.78531 6.45623 9.88377C6.55469 9.98222 6.61 10.1158 6.61 10.255C6.61 10.3942 6.55469 10.5278 6.45623 10.6262C6.35777 10.7247 6.22424 10.78 6.085 10.78M10 0C4.487 0 0 3.643 0 8.118C0 12.128 3.558 15.487 8.363 16.125C8.688 16.193 9.132 16.34 9.244 16.617C9.344 16.867 9.31 17.255 9.276 17.517L9.139 18.367C9.102 18.617 8.939 19.355 10.013 18.904C11.089 18.455 15.777 15.506 17.877 13.092C19.311 11.517 19.997 9.905 19.997 8.118C19.997 3.643 15.509 0 9.997 0" fill="white"/>
</svg>
