<svg width="150" height="150" viewBox="0 0 150 150" fill="none" xmlns="http://www.w3.org/2000/svg">
<g clip-path="url(#clip0_15_392)">
<g clip-path="url(#clip1_15_392)">
<path opacity="0.2" fill-rule="evenodd" clip-rule="evenodd" d="M77.2751 139C91.2586 139 104.669 133.445 114.557 123.557C124.445 113.669 130 100.259 130 86.275C130 72.2915 124.445 58.8806 114.557 48.9928C104.669 39.1049 91.2586 33.55 77.2751 33.55C63.2915 33.55 49.8807 39.1049 39.9928 48.9928C30.105 58.8806 24.55 72.2915 24.55 86.275C24.55 100.259 30.105 113.669 39.9928 123.557C49.8807 133.445 63.2915 139 77.2751 139ZM77.2751 127.284C88.1513 127.284 98.5821 122.963 106.273 115.273C113.963 107.582 118.284 97.1513 118.284 86.275C118.284 75.3988 113.963 64.968 106.273 57.2773C98.5821 49.5866 88.1513 45.2661 77.2751 45.2661C66.3988 45.2661 55.968 49.5866 48.2773 57.2773C40.5867 64.968 36.2661 75.3988 36.2661 86.275C36.2661 97.1513 40.5867 107.582 48.2773 115.273C55.968 122.963 66.3988 127.284 77.2751 127.284Z" fill="url(#paint0_linear_15_392)"/>
<path fill-rule="evenodd" clip-rule="evenodd" d="M74.5 36.325C68.3049 36.325 62.1705 37.5452 56.4469 39.916C50.7234 42.2867 45.5229 45.7616 41.1423 50.1422C36.7617 54.5228 33.2868 59.7234 30.916 65.4469C28.5452 71.1704 27.325 77.3049 27.325 83.5C27.325 89.6951 28.5452 95.8296 30.916 101.553C33.2868 107.277 36.7617 112.477 41.1423 116.858C45.5229 121.238 50.7234 124.713 56.4469 127.084C62.1705 129.455 68.3049 130.675 74.5 130.675C87.0116 130.675 99.0108 125.705 107.858 116.858C116.705 108.011 121.675 96.0116 121.675 83.5C121.675 70.9884 116.705 58.9893 107.858 50.1422C99.0108 41.2952 87.0116 36.325 74.5 36.325ZM21.775 83.5C21.775 76.5761 23.1388 69.7199 25.7885 63.323C28.4382 56.9261 32.3219 51.1138 37.2178 46.2178C42.1138 41.3218 47.9261 37.4381 54.323 34.7884C60.7199 32.1388 67.5761 30.775 74.5 30.775C81.424 30.775 88.2801 32.1388 94.677 34.7884C101.074 37.4381 106.886 41.3218 111.782 46.2178C116.678 51.1138 120.562 56.9261 123.212 63.323C125.861 69.7199 127.225 76.5761 127.225 83.5C127.225 97.4835 121.67 110.894 111.782 120.782C101.894 130.67 88.4836 136.225 74.5 136.225C60.5165 136.225 47.1057 130.67 37.2178 120.782C27.33 110.894 21.775 97.4835 21.775 83.5Z" fill="url(#paint1_linear_15_392)" fill-opacity="0.5"/>
</g>
<mask id="path-3-outside-1_15_392" maskUnits="userSpaceOnUse" x="31" y="15" width="57" height="92" fill="black">
<rect fill="white" x="31" y="15" width="57" height="92"/>
<path d="M70.4375 53.375C73.8958 54.8333 76.8542 56.7083 79.3125 59C81.7708 61.2917 83.6458 64 84.9375 67.125C86.2292 70.25 86.875 73.5625 86.875 77.0625C86.875 82.3125 85.4792 87.125 82.6875 91.5C79.9375 95.8333 76.1458 99.2708 71.3125 101.812C66.5208 104.312 61.2292 105.562 55.4375 105.562C48.8125 105.562 43.3125 104.167 38.9375 101.375C34.5625 98.5417 32.375 95 32.375 90.75C32.375 88.7917 32.9583 87.1875 34.125 85.9375C35.2917 84.6875 36.8333 84.0625 38.75 84.0625C41 84.0625 42.5833 84.9583 43.5 86.75C44 87.7083 44.4583 89.5208 44.875 92.1875C45.375 95.8542 46.5 98.4792 48.25 100.062C50.0417 101.646 52.7708 102.438 56.4375 102.438C59.8542 102.438 63 101.604 65.875 99.9375C68.75 98.2708 71.0208 96 72.6875 93.125C74.3542 90.2083 75.1875 87.0417 75.1875 83.625C75.1875 77.75 72.7708 72.7083 67.9375 68.5C63.1458 64.25 56.1667 61 47 58.75L47.0625 56.75C51.1875 56 54.75 54.6458 57.75 52.6875C60.75 50.7292 63.0208 48.2292 64.5625 45.1875C66.1458 42.1458 66.9375 38.75 66.9375 35C66.9375 30.2917 65.875 26.4583 63.75 23.5C61.6667 20.5 58.8958 19 55.4375 19C52.6458 19 50.5833 20.0417 49.25 22.125C48.7083 23 48.3125 23.8958 48.0625 24.8125C47.8125 25.6875 47.4167 27.6458 46.875 30.6875C46.4583 33.3542 45.7292 35.2917 44.6875 36.5C43.6875 37.6667 42.3125 38.25 40.5625 38.25C38.8958 38.25 37.5208 37.6667 36.4375 36.5C35.3958 35.2917 34.875 33.7292 34.875 31.8125C34.875 28.9792 35.8542 26.3958 37.8125 24.0625C39.8125 21.6875 42.5208 19.8333 45.9375 18.5C49.3542 17.125 53.125 16.4375 57.25 16.4375C60.7083 16.4375 63.9375 16.8958 66.9375 17.8125C69.9792 18.7292 72.5208 20.0208 74.5625 21.6875C76.6458 23.3125 78.25 25.3333 79.375 27.75C80.5417 30.125 81.125 32.7708 81.125 35.6875C81.125 39.2708 80.2292 42.5417 78.4375 45.5C76.6875 48.4167 74.0208 51.0417 70.4375 53.375ZM48.75 19.375C45.2083 20.375 42.3542 22.0417 40.1875 24.375C38.0625 26.6667 37 29.1875 37 31.9375C37 32.7708 37.2083 33.4792 37.625 34.0625C38.0417 34.6042 38.6042 34.875 39.3125 34.875C40.7292 34.875 41.5833 33.8125 41.875 31.6875C42.4167 28.3958 43.1667 25.9167 44.125 24.25C45.0833 22.5833 46.625 20.9583 48.75 19.375ZM44.1875 101.75C42.4792 100.208 41.2292 98.6875 40.4375 97.1875C39.6875 95.6875 39.25 93.875 39.125 91.75L39 90.0625C38.9167 88.2708 38.2292 87.375 36.9375 87.375C35.3125 87.375 34.5 88.5 34.5 90.75C34.5 93.0833 35.3125 95.1875 36.9375 97.0625C38.6042 98.9375 41.0208 100.5 44.1875 101.75ZM69.25 100.062C77.7083 94.9792 81.9375 88.1458 81.9375 79.5625C81.9375 68.4375 75.125 60.25 61.5 55C70.9167 50.2917 75.625 43.8958 75.625 35.8125C75.625 32.8958 75.0625 30.2292 73.9375 27.8125C72.8125 25.3958 71.1875 23.4583 69.0625 22C66.9375 20.5 64.4792 19.6042 61.6875 19.3125C66.7708 22.2708 69.3125 27.4583 69.3125 34.875C69.3125 38.5833 68.6458 41.9583 67.3125 45C65.9792 48 64 50.6042 61.375 52.8125C58.75 54.9792 55.6042 56.625 51.9375 57.75C57.3542 59.3333 61.9792 61.3958 65.8125 63.9375C69.6875 66.4375 72.6042 69.3125 74.5625 72.5625C76.5625 75.7708 77.5625 79.2917 77.5625 83.125C77.5625 85.2083 77.2917 87.1667 76.75 89C76.25 90.8333 75.4792 92.5625 74.4375 94.1875C73.7708 95.3125 72.0417 97.2708 69.25 100.062Z"/>
</mask>
<path d="M70.4375 53.375C73.8958 54.8333 76.8542 56.7083 79.3125 59C81.7708 61.2917 83.6458 64 84.9375 67.125C86.2292 70.25 86.875 73.5625 86.875 77.0625C86.875 82.3125 85.4792 87.125 82.6875 91.5C79.9375 95.8333 76.1458 99.2708 71.3125 101.812C66.5208 104.312 61.2292 105.562 55.4375 105.562C48.8125 105.562 43.3125 104.167 38.9375 101.375C34.5625 98.5417 32.375 95 32.375 90.75C32.375 88.7917 32.9583 87.1875 34.125 85.9375C35.2917 84.6875 36.8333 84.0625 38.75 84.0625C41 84.0625 42.5833 84.9583 43.5 86.75C44 87.7083 44.4583 89.5208 44.875 92.1875C45.375 95.8542 46.5 98.4792 48.25 100.062C50.0417 101.646 52.7708 102.438 56.4375 102.438C59.8542 102.438 63 101.604 65.875 99.9375C68.75 98.2708 71.0208 96 72.6875 93.125C74.3542 90.2083 75.1875 87.0417 75.1875 83.625C75.1875 77.75 72.7708 72.7083 67.9375 68.5C63.1458 64.25 56.1667 61 47 58.75L47.0625 56.75C51.1875 56 54.75 54.6458 57.75 52.6875C60.75 50.7292 63.0208 48.2292 64.5625 45.1875C66.1458 42.1458 66.9375 38.75 66.9375 35C66.9375 30.2917 65.875 26.4583 63.75 23.5C61.6667 20.5 58.8958 19 55.4375 19C52.6458 19 50.5833 20.0417 49.25 22.125C48.7083 23 48.3125 23.8958 48.0625 24.8125C47.8125 25.6875 47.4167 27.6458 46.875 30.6875C46.4583 33.3542 45.7292 35.2917 44.6875 36.5C43.6875 37.6667 42.3125 38.25 40.5625 38.25C38.8958 38.25 37.5208 37.6667 36.4375 36.5C35.3958 35.2917 34.875 33.7292 34.875 31.8125C34.875 28.9792 35.8542 26.3958 37.8125 24.0625C39.8125 21.6875 42.5208 19.8333 45.9375 18.5C49.3542 17.125 53.125 16.4375 57.25 16.4375C60.7083 16.4375 63.9375 16.8958 66.9375 17.8125C69.9792 18.7292 72.5208 20.0208 74.5625 21.6875C76.6458 23.3125 78.25 25.3333 79.375 27.75C80.5417 30.125 81.125 32.7708 81.125 35.6875C81.125 39.2708 80.2292 42.5417 78.4375 45.5C76.6875 48.4167 74.0208 51.0417 70.4375 53.375ZM48.75 19.375C45.2083 20.375 42.3542 22.0417 40.1875 24.375C38.0625 26.6667 37 29.1875 37 31.9375C37 32.7708 37.2083 33.4792 37.625 34.0625C38.0417 34.6042 38.6042 34.875 39.3125 34.875C40.7292 34.875 41.5833 33.8125 41.875 31.6875C42.4167 28.3958 43.1667 25.9167 44.125 24.25C45.0833 22.5833 46.625 20.9583 48.75 19.375ZM44.1875 101.75C42.4792 100.208 41.2292 98.6875 40.4375 97.1875C39.6875 95.6875 39.25 93.875 39.125 91.75L39 90.0625C38.9167 88.2708 38.2292 87.375 36.9375 87.375C35.3125 87.375 34.5 88.5 34.5 90.75C34.5 93.0833 35.3125 95.1875 36.9375 97.0625C38.6042 98.9375 41.0208 100.5 44.1875 101.75ZM69.25 100.062C77.7083 94.9792 81.9375 88.1458 81.9375 79.5625C81.9375 68.4375 75.125 60.25 61.5 55C70.9167 50.2917 75.625 43.8958 75.625 35.8125C75.625 32.8958 75.0625 30.2292 73.9375 27.8125C72.8125 25.3958 71.1875 23.4583 69.0625 22C66.9375 20.5 64.4792 19.6042 61.6875 19.3125C66.7708 22.2708 69.3125 27.4583 69.3125 34.875C69.3125 38.5833 68.6458 41.9583 67.3125 45C65.9792 48 64 50.6042 61.375 52.8125C58.75 54.9792 55.6042 56.625 51.9375 57.75C57.3542 59.3333 61.9792 61.3958 65.8125 63.9375C69.6875 66.4375 72.6042 69.3125 74.5625 72.5625C76.5625 75.7708 77.5625 79.2917 77.5625 83.125C77.5625 85.2083 77.2917 87.1667 76.75 89C76.25 90.8333 75.4792 92.5625 74.4375 94.1875C73.7708 95.3125 72.0417 97.2708 69.25 100.062Z" fill="#F2808C"/>
<path d="M70.4375 53.375L70.1647 52.956L69.3756 53.4698L70.2432 53.8357L70.4375 53.375ZM82.6875 91.5L82.266 91.231L82.2653 91.2321L82.6875 91.5ZM71.3125 101.812L71.5438 102.256L71.5452 102.255L71.3125 101.812ZM38.9375 101.375L38.6657 101.795L38.6685 101.797L38.9375 101.375ZM43.5 86.75L43.0549 86.9777L43.0567 86.9813L43.5 86.75ZM44.875 92.1875L45.3705 92.1199L45.369 92.1103L44.875 92.1875ZM48.25 100.062L47.9145 100.433L47.9189 100.437L48.25 100.062ZM72.6875 93.125L73.1201 93.3758L73.1216 93.3731L72.6875 93.125ZM67.9375 68.5L67.6057 68.8741L67.6092 68.8771L67.9375 68.5ZM47 58.75L46.5002 58.7344L46.4876 59.1391L46.8808 59.2356L47 58.75ZM47.0625 56.75L46.9731 56.2581L46.5754 56.3304L46.5627 56.7344L47.0625 56.75ZM64.5625 45.1875L64.119 44.9566L64.1165 44.9615L64.5625 45.1875ZM63.75 23.5L63.3393 23.7852L63.3439 23.7917L63.75 23.5ZM49.25 22.125L48.8288 21.8554L48.8249 21.8618L49.25 22.125ZM48.0625 24.8125L48.5433 24.9499L48.5449 24.9441L48.0625 24.8125ZM46.875 30.6875L46.3826 30.5998L46.381 30.6103L46.875 30.6875ZM44.6875 36.5L44.3088 36.1735L44.3079 36.1746L44.6875 36.5ZM36.4375 36.5L36.0588 36.8265L36.0648 36.8335L36.0711 36.8402L36.4375 36.5ZM37.8125 24.0625L37.43 23.7404L37.4295 23.7411L37.8125 24.0625ZM45.9375 18.5L46.1193 18.9658L46.1242 18.9638L45.9375 18.5ZM66.9375 17.8125L66.7914 18.2907L66.7932 18.2912L66.9375 17.8125ZM74.5625 21.6875L74.2462 22.0749L74.255 22.0818L74.5625 21.6875ZM79.375 27.75L78.9216 27.9611L78.9262 27.9705L79.375 27.75ZM78.4375 45.5L78.0098 45.241L78.0088 45.2428L78.4375 45.5ZM48.75 19.375L49.0487 19.7759L48.6141 18.8938L48.75 19.375ZM40.1875 24.375L39.8211 24.0348L39.8209 24.035L40.1875 24.375ZM37.625 34.0625L37.2181 34.3531L37.2233 34.3603L37.2287 34.3674L37.625 34.0625ZM41.875 31.6875L41.3815 31.6063L41.3796 31.6195L41.875 31.6875ZM44.1875 101.75L44.0039 102.215L44.5225 101.379L44.1875 101.75ZM40.4375 97.1875L39.9902 97.4112L39.9953 97.4209L40.4375 97.1875ZM39.125 91.75L39.6242 91.7206L39.6236 91.7131L39.125 91.75ZM39 90.0625L38.5004 90.0857L38.5014 90.0994L39 90.0625ZM36.9375 97.0625L36.5596 97.39L36.5638 97.3947L36.9375 97.0625ZM69.25 100.062L68.8964 99.7089L69.5076 100.491L69.25 100.062ZM61.5 55L61.2764 54.5528L60.2633 55.0593L61.3202 55.4666L61.5 55ZM69.0625 22L68.7741 22.4085L68.7796 22.4123L69.0625 22ZM61.6875 19.3125L61.7395 18.8152L61.436 19.7446L61.6875 19.3125ZM67.3125 45L67.7694 45.2031L67.7704 45.2007L67.3125 45ZM61.375 52.8125L61.6933 53.1981L61.6969 53.1951L61.375 52.8125ZM51.9375 57.75L51.7908 57.272L50.1951 57.7616L51.7972 58.2299L51.9375 57.75ZM65.8125 63.9375L65.5362 64.3543L65.5414 64.3576L65.8125 63.9375ZM74.5625 72.5625L74.1342 72.8206L74.1382 72.827L74.5625 72.5625ZM76.75 89L76.2704 88.8583L76.2676 88.8684L76.75 89ZM74.4375 94.1875L74.0166 93.9177L74.0118 93.925L74.0074 93.9326L74.4375 94.1875ZM70.4375 53.375L70.2432 53.8357C73.6537 55.2739 76.5609 57.1185 78.9716 59.3657L79.3125 59L79.6534 58.6343C77.1475 56.2982 74.1379 54.3928 70.6318 52.9143L70.4375 53.375ZM79.3125 59L78.9716 59.3657C81.3771 61.6082 83.211 64.2568 84.4754 67.316L84.9375 67.125L85.3996 66.934C84.0807 63.7432 82.1645 60.9751 79.6534 58.6343L79.3125 59ZM84.9375 67.125L84.4754 67.316C85.7412 70.3783 86.375 73.6257 86.375 77.0625H86.875H87.375C87.375 73.4993 86.7172 70.1217 85.3996 66.934L84.9375 67.125ZM86.875 77.0625H86.375C86.375 82.2184 85.0058 86.9374 82.266 91.231L82.6875 91.5L83.109 91.769C85.9526 87.3126 87.375 82.4066 87.375 77.0625H86.875ZM82.6875 91.5L82.2653 91.2321C79.5652 95.4869 75.8409 98.8663 71.0798 101.37L71.3125 101.812L71.5452 102.255C76.4507 99.6754 80.3098 96.1797 83.1097 91.7679L82.6875 91.5ZM71.3125 101.812L71.0812 101.369C66.366 103.829 61.1545 105.062 55.4375 105.062V105.562V106.062C61.3038 106.062 66.6756 104.796 71.5438 102.256L71.3125 101.812ZM55.4375 105.562V105.062C48.8817 105.062 43.4816 103.681 39.2065 100.953L38.9375 101.375L38.6685 101.797C43.1434 104.652 48.7433 106.062 55.4375 106.062V105.562ZM38.9375 101.375L39.2093 100.955C34.9396 98.1902 32.875 94.7907 32.875 90.75H32.375H31.875C31.875 95.2093 34.1854 98.8931 38.6657 101.795L38.9375 101.375ZM32.375 90.75H32.875C32.875 88.8985 33.4229 87.4226 34.4905 86.2787L34.125 85.9375L33.7595 85.5963C32.4938 86.9524 31.875 88.6848 31.875 90.75H32.375ZM34.125 85.9375L34.4905 86.2787C35.5507 85.1428 36.9534 84.5625 38.75 84.5625V84.0625V83.5625C36.7133 83.5625 35.0326 84.2322 33.7595 85.5963L34.125 85.9375ZM38.75 84.0625V84.5625C39.8089 84.5625 40.6781 84.7731 41.3788 85.1695C42.0763 85.5642 42.6362 86.1594 43.0549 86.9777L43.5 86.75L43.9451 86.5223C43.4471 85.5489 42.757 84.8004 41.8712 84.2992C40.9886 83.7998 39.9411 83.5625 38.75 83.5625V84.0625ZM43.5 86.75L43.0567 86.9813C43.5143 87.8583 43.9638 89.5949 44.381 92.2647L44.875 92.1875L45.369 92.1103C44.9528 89.4467 44.4857 87.5584 43.9433 86.5187L43.5 86.75ZM44.875 92.1875L44.3796 92.2551C44.8869 95.9757 46.0395 98.7368 47.9145 100.433L48.25 100.062L48.5855 99.6917C46.9605 98.2215 45.8631 95.7327 45.3704 92.1199L44.875 92.1875ZM48.25 100.062L47.9189 100.437C49.8399 102.135 52.7115 102.938 56.4375 102.938V102.438V101.938C52.8302 101.938 50.2434 101.157 48.5811 99.6878L48.25 100.062ZM56.4375 102.438V102.938C59.9396 102.938 63.1724 102.082 66.1258 100.37L65.875 99.9375L65.6242 99.5049C62.8276 101.126 59.7687 101.938 56.4375 101.938V102.438ZM65.875 99.9375L66.1258 100.37C69.0762 98.6597 71.4097 96.3262 73.1201 93.3758L72.6875 93.125L72.2549 92.8742C70.632 95.6738 68.4238 97.882 65.6242 99.5049L65.875 99.9375ZM72.6875 93.125L73.1216 93.3731C74.8322 90.3795 75.6875 87.1271 75.6875 83.625H75.1875H74.6875C74.6875 86.9562 73.8761 90.0372 72.2534 92.8769L72.6875 93.125ZM75.1875 83.625H75.6875C75.6875 77.5912 73.1971 72.4165 68.2658 68.1229L67.9375 68.5L67.6092 68.8771C72.3446 73.0002 74.6875 77.9088 74.6875 83.625H75.1875ZM67.9375 68.5L68.2693 68.1259C63.3949 63.8026 56.3302 60.5253 47.1192 58.2644L47 58.75L46.8808 59.2356C56.0032 61.4747 62.8968 64.6974 67.6057 68.8741L67.9375 68.5ZM47 58.75L47.4998 58.7656L47.5623 56.7656L47.0625 56.75L46.5627 56.7344L46.5002 58.7344L47 58.75ZM47.0625 56.75L47.1519 57.2419C51.3315 56.482 54.9588 55.1066 58.0233 53.1062L57.75 52.6875L57.4767 52.2688C54.5412 54.1851 51.0435 55.518 46.9731 56.2581L47.0625 56.75ZM57.75 52.6875L58.0233 53.1062C61.0929 51.1024 63.4251 48.5375 65.0085 45.4135L64.5625 45.1875L64.1165 44.9615C62.6165 47.9209 60.4071 50.3559 57.4767 52.2688L57.75 52.6875ZM64.5625 45.1875L65.006 45.4184C66.6298 42.2989 67.4375 38.8227 67.4375 35H66.9375H66.4375C66.4375 38.6773 65.6618 41.9928 64.119 44.9566L64.5625 45.1875ZM66.9375 35H67.4375C67.4375 30.2176 66.3579 26.2735 64.1561 23.2083L63.75 23.5L63.3439 23.7917C65.3921 26.6432 66.4375 30.3657 66.4375 35H66.9375ZM63.75 23.5L64.1607 23.2148C61.9901 20.0892 59.0702 18.5 55.4375 18.5V19V19.5C58.7214 19.5 61.3432 20.9108 63.3393 23.7852L63.75 23.5ZM55.4375 19V18.5C52.5012 18.5 50.2672 19.608 48.8289 21.8555L49.25 22.125L49.6711 22.3945C50.8994 20.4753 52.7904 19.5 55.4375 19.5V19ZM49.25 22.125L48.8249 21.8618C48.26 22.7743 47.8438 23.7142 47.5801 24.6809L48.0625 24.8125L48.5449 24.9441C48.7812 24.0775 49.1567 23.2257 49.6751 22.3882L49.25 22.125ZM48.0625 24.8125L47.5817 24.6751C47.3234 25.5795 46.9233 27.5647 46.3827 30.5998L46.875 30.6875L47.3673 30.7752C47.9101 27.727 48.3016 25.7955 48.5433 24.9499L48.0625 24.8125ZM46.875 30.6875L46.381 30.6103C45.9699 33.2413 45.2606 35.0694 44.3088 36.1735L44.6875 36.5L45.0662 36.8265C46.1977 35.5139 46.9468 33.467 47.369 30.7647L46.875 30.6875ZM44.6875 36.5L44.3079 36.1746C43.4167 37.2144 42.1892 37.75 40.5625 37.75V38.25V38.75C42.4358 38.75 43.9583 38.119 45.0671 36.8254L44.6875 36.5ZM40.5625 38.25V37.75C39.0275 37.75 37.7877 37.2193 36.8039 36.1598L36.4375 36.5L36.0711 36.8402C37.2539 38.114 38.7641 38.75 40.5625 38.75V38.25ZM36.4375 36.5L36.8162 36.1735C35.8678 35.0734 35.375 33.6346 35.375 31.8125H34.875H34.375C34.375 33.8237 34.9238 35.5099 36.0588 36.8265L36.4375 36.5ZM34.875 31.8125H35.375C35.375 29.1059 36.3066 26.6345 38.1955 24.3839L37.8125 24.0625L37.4295 23.7411C35.4017 26.1572 34.375 28.8524 34.375 31.8125H34.875ZM37.8125 24.0625L38.195 24.3846C40.1321 22.0842 42.7663 20.2743 46.1193 18.9658L45.9375 18.5L45.7557 18.0342C42.2753 19.3924 39.4929 21.2908 37.43 23.7404L37.8125 24.0625ZM45.9375 18.5L46.1242 18.9638C49.4748 17.6154 53.1813 16.9375 57.25 16.9375V16.4375V15.9375C53.0687 15.9375 49.2335 16.6346 45.7508 18.0362L45.9375 18.5ZM57.25 16.4375V16.9375C60.6638 16.9375 63.8433 17.3899 66.7914 18.2907L66.9375 17.8125L67.0836 17.3343C64.0317 16.4018 60.7528 15.9375 57.25 15.9375V16.4375ZM66.9375 17.8125L66.7932 18.2912C69.7847 19.1928 72.2647 20.4572 74.2463 22.0748L74.5625 21.6875L74.8787 21.3002C72.777 19.5845 70.1736 18.2655 67.0818 17.3338L66.9375 17.8125ZM74.5625 21.6875L74.255 22.0818C76.2753 23.6576 77.8298 25.6154 78.9217 27.961L79.375 27.75L79.8283 27.539C78.6702 25.0512 77.0163 22.9674 74.87 21.2932L74.5625 21.6875ZM79.375 27.75L78.9262 27.9705C80.0559 30.2701 80.625 32.8393 80.625 35.6875H81.125H81.625C81.625 32.7023 81.0275 29.9799 79.8238 27.5295L79.375 27.75ZM81.125 35.6875H80.625C80.625 39.183 79.7524 42.3637 78.0098 45.241L78.4375 45.5L78.8652 45.759C80.7059 42.7197 81.625 39.3587 81.625 35.6875H81.125ZM78.4375 45.5L78.0088 45.2428C76.3065 48.0798 73.7003 50.6537 70.1647 52.956L70.4375 53.375L70.7103 53.794C74.3413 51.4296 77.0685 48.7535 78.8662 45.7572L78.4375 45.5ZM48.75 19.375L48.6141 18.8938C44.9981 19.9148 42.0594 21.6243 39.8211 24.0348L40.1875 24.375L40.5539 24.7152C42.6489 22.4591 45.4185 20.8352 48.8859 19.8562L48.75 19.375ZM40.1875 24.375L39.8209 24.035C37.6227 26.4056 36.5 29.044 36.5 31.9375H37H37.5C37.5 29.331 38.5023 26.9278 40.5541 24.715L40.1875 24.375ZM37 31.9375H36.5C36.5 32.8576 36.7315 33.6718 37.2181 34.3531L37.625 34.0625L38.0319 33.7719C37.6852 33.2865 37.5 32.6841 37.5 31.9375H37ZM37.625 34.0625L37.2287 34.3674C37.744 35.0372 38.4556 35.375 39.3125 35.375V34.875V34.375C38.7528 34.375 38.3394 34.1711 38.0213 33.7576L37.625 34.0625ZM39.3125 34.875V35.375C40.1654 35.375 40.8791 35.046 41.4053 34.3914C41.913 33.76 42.2186 32.8609 42.3704 31.7555L41.875 31.6875L41.3796 31.6195C41.2397 32.6391 40.9725 33.3338 40.6259 33.7648C40.298 34.1728 39.8762 34.375 39.3125 34.375V34.875ZM41.875 31.6875L42.3684 31.7687C42.9064 28.4993 43.6442 26.0892 44.5585 24.4992L44.125 24.25L43.6915 24.0008C42.6891 25.7442 41.927 28.2924 41.3816 31.6063L41.875 31.6875ZM44.125 24.25L44.5585 24.4992C45.4724 22.9097 46.9591 21.3329 49.0487 19.7759L48.75 19.375L48.4513 18.9741C46.2909 20.5838 44.6942 22.257 43.6915 24.0008L44.125 24.25ZM44.1875 101.75L44.5225 101.379C42.8432 99.8633 41.6361 98.3874 40.8797 96.9541L40.4375 97.1875L39.9953 97.4209C40.8222 98.9876 42.1151 100.553 43.8525 102.121L44.1875 101.75ZM40.4375 97.1875L40.8847 96.9639C40.172 95.5384 39.7462 93.7956 39.6241 91.7206L39.125 91.75L38.6259 91.7794C38.7538 93.9544 39.203 95.8366 39.9903 97.4111L40.4375 97.1875ZM39.125 91.75L39.6236 91.7131L39.4986 90.0256L39 90.0625L38.5014 90.0994L38.6264 91.7869L39.125 91.75ZM39 90.0625L39.4995 90.0393C39.4556 89.0967 39.2513 88.3064 38.8185 87.7425C38.3657 87.1524 37.7134 86.875 36.9375 86.875V87.375V87.875C37.4533 87.875 37.7906 88.0455 38.0252 88.3513C38.28 88.6832 38.461 89.2366 38.5005 90.0857L39 90.0625ZM36.9375 87.375V86.875C35.9958 86.875 35.2212 87.2099 34.704 87.926C34.2086 88.612 34 89.5798 34 90.75H34.5H35C35 89.6702 35.1976 88.9505 35.5147 88.5115C35.81 88.1026 36.2542 87.875 36.9375 87.875V87.375ZM34.5 90.75H34C34 93.2117 34.8613 95.4303 36.5597 97.39L36.9375 97.0625L37.3153 96.735C35.7637 94.9447 35 92.955 35 90.75H34.5ZM36.9375 97.0625L36.5638 97.3947C38.2977 99.3454 40.7891 100.946 44.0039 102.215L44.1875 101.75L44.3711 101.285C41.2526 100.054 38.9106 98.5296 37.3112 96.7303L36.9375 97.0625ZM69.25 100.062L69.5076 100.491C78.0896 95.3334 82.4375 88.3504 82.4375 79.5625H81.9375H81.4375C81.4375 87.9412 77.3271 94.6249 68.9924 99.6339L69.25 100.062ZM81.9375 79.5625H82.4375C82.4375 73.8888 80.697 68.9461 77.2125 64.7583C73.7352 60.5792 68.5437 57.1782 61.6798 54.5334L61.5 55L61.3202 55.4666C68.0813 58.0718 73.1086 61.3896 76.4438 65.3979C79.7718 69.3976 81.4375 74.1112 81.4375 79.5625H81.9375ZM61.5 55L61.7236 55.4472C71.2492 50.6844 76.125 44.1445 76.125 35.8125H75.625H75.125C75.125 43.6472 70.5841 49.8989 61.2764 54.5528L61.5 55ZM75.625 35.8125H76.125C76.125 32.8299 75.5494 30.0903 74.3908 27.6015L73.9375 27.8125L73.4842 28.0235C74.5756 30.3681 75.125 32.9618 75.125 35.8125H75.625ZM73.9375 27.8125L74.3908 27.6015C73.2294 25.1066 71.5468 23.0985 69.3454 21.5877L69.0625 22L68.7796 22.4123C70.8282 23.8182 72.3956 25.6851 73.4842 28.0235L73.9375 27.8125ZM69.0625 22L69.3508 21.5915C67.1505 20.0383 64.6093 19.115 61.7395 18.8152L61.6875 19.3125L61.6355 19.8098C64.349 20.0933 66.7245 20.9617 68.7742 22.4085L69.0625 22ZM61.6875 19.3125L61.436 19.7446C66.324 22.5893 68.8125 27.5825 68.8125 34.875H69.3125H69.8125C69.8125 27.3342 67.2177 21.9524 61.939 18.8804L61.6875 19.3125ZM69.3125 34.875H68.8125C68.8125 38.5223 68.1571 41.8279 66.8546 44.7993L67.3125 45L67.7704 45.2007C69.1346 42.0888 69.8125 38.6444 69.8125 34.875H69.3125ZM67.3125 45L66.8556 44.7969C65.5545 47.7245 63.6228 50.2681 61.0531 52.4299L61.375 52.8125L61.6969 53.1951C64.3772 50.9402 66.4039 48.2755 67.7694 45.2031L67.3125 45ZM61.375 52.8125L61.0567 52.4269C58.4883 54.5468 55.4027 56.1638 51.7908 57.272L51.9375 57.75L52.0842 58.228C55.8056 57.0862 59.0117 55.4115 61.6933 53.1981L61.375 52.8125ZM51.9375 57.75L51.7972 58.2299C57.1761 59.8022 61.753 61.8458 65.5362 64.3542L65.8125 63.9375L66.0888 63.5208C62.2053 60.9459 57.5322 58.8644 52.0778 57.2701L51.9375 57.75ZM65.8125 63.9375L65.5414 64.3576C69.3659 66.8251 72.2228 69.6484 74.1342 72.8206L74.5625 72.5625L74.9908 72.3044C72.9855 68.9766 70.0091 66.0499 66.0836 63.5174L65.8125 63.9375ZM74.5625 72.5625L74.1382 72.827C76.088 75.9548 77.0625 79.3838 77.0625 83.125H77.5625H78.0625C78.0625 79.1995 77.037 75.5868 74.9868 72.298L74.5625 72.5625ZM77.5625 83.125H77.0625C77.0625 85.1646 76.7974 87.0749 76.2705 88.8583L76.75 89L77.2295 89.1417C77.7859 87.2584 78.0625 85.252 78.0625 83.125H77.5625ZM76.75 89L76.2676 88.8684C75.7812 90.6521 75.0313 92.3347 74.0166 93.9177L74.4375 94.1875L74.8584 94.4573C75.927 92.7903 76.7188 91.0146 77.2324 89.1316L76.75 89ZM74.4375 94.1875L74.0074 93.9326C73.3782 94.9943 71.6961 96.9093 68.8964 99.7089L69.25 100.062L69.6036 100.416C72.3873 97.6323 74.1635 95.6307 74.8676 94.4424L74.4375 94.1875Z" fill="#F2808C" mask="url(#path-3-outside-1_15_392)"/>
</g>
<defs>
<linearGradient id="paint0_linear_15_392" x1="46.6104" y1="45.5025" x2="109.784" y2="128.892" gradientUnits="userSpaceOnUse">
<stop stop-color="#FBFFE4"/>
<stop offset="1" stop-color="#F2808C"/>
</linearGradient>
<linearGradient id="paint1_linear_15_392" x1="43.8354" y1="42.7275" x2="107.009" y2="126.117" gradientUnits="userSpaceOnUse">
<stop stop-color="#FBFFE4"/>
<stop offset="1" stop-color="#F2808C"/>
</linearGradient>
<clipPath id="clip0_15_392">
<rect width="150" height="150" fill="white"/>
</clipPath>
<clipPath id="clip1_15_392">
<rect width="111" height="111" fill="white" transform="translate(19 28)"/>
</clipPath>
</defs>
</svg>
