<svg width="150" height="150" viewBox="0 0 150 150" fill="none" xmlns="http://www.w3.org/2000/svg">
<g clip-path="url(#clip0_15_385)">
<g clip-path="url(#clip1_15_385)">
<path opacity="0.2" fill-rule="evenodd" clip-rule="evenodd" d="M77.2751 139C91.2586 139 104.669 133.445 114.557 123.557C124.445 113.669 130 100.259 130 86.275C130 72.2915 124.445 58.8806 114.557 48.9928C104.669 39.1049 91.2586 33.55 77.2751 33.55C63.2915 33.55 49.8807 39.1049 39.9928 48.9928C30.105 58.8806 24.55 72.2915 24.55 86.275C24.55 100.259 30.105 113.669 39.9928 123.557C49.8807 133.445 63.2915 139 77.2751 139ZM77.2751 127.284C88.1513 127.284 98.5821 122.963 106.273 115.273C113.963 107.582 118.284 97.1513 118.284 86.275C118.284 75.3988 113.963 64.968 106.273 57.2773C98.5821 49.5866 88.1513 45.2661 77.2751 45.2661C66.3988 45.2661 55.968 49.5866 48.2773 57.2773C40.5867 64.968 36.2661 75.3988 36.2661 86.275C36.2661 97.1513 40.5867 107.582 48.2773 115.273C55.968 122.963 66.3988 127.284 77.2751 127.284Z" fill="url(#paint0_linear_15_385)"/>
<path fill-rule="evenodd" clip-rule="evenodd" d="M74.5 36.325C68.3049 36.325 62.1705 37.5452 56.4469 39.916C50.7234 42.2867 45.5229 45.7616 41.1423 50.1422C36.7617 54.5228 33.2868 59.7234 30.916 65.4469C28.5452 71.1704 27.325 77.3049 27.325 83.5C27.325 89.6951 28.5452 95.8296 30.916 101.553C33.2868 107.277 36.7617 112.477 41.1423 116.858C45.5229 121.238 50.7234 124.713 56.4469 127.084C62.1705 129.455 68.3049 130.675 74.5 130.675C87.0116 130.675 99.0108 125.705 107.858 116.858C116.705 108.011 121.675 96.0116 121.675 83.5C121.675 70.9884 116.705 58.9893 107.858 50.1422C99.0108 41.2952 87.0116 36.325 74.5 36.325ZM21.775 83.5C21.775 76.5761 23.1388 69.7199 25.7885 63.323C28.4382 56.9261 32.3219 51.1138 37.2178 46.2178C42.1138 41.3218 47.9261 37.4381 54.323 34.7884C60.7199 32.1388 67.5761 30.775 74.5 30.775C81.424 30.775 88.2801 32.1388 94.677 34.7884C101.074 37.4381 106.886 41.3218 111.782 46.2178C116.678 51.1138 120.562 56.9261 123.212 63.323C125.861 69.7199 127.225 76.5761 127.225 83.5C127.225 97.4835 121.67 110.894 111.782 120.782C101.894 130.67 88.4836 136.225 74.5 136.225C60.5165 136.225 47.1057 130.67 37.2178 120.782C27.33 110.894 21.775 97.4835 21.775 83.5Z" fill="url(#paint1_linear_15_385)" fill-opacity="0.5"/>
</g>
<mask id="path-3-outside-1_15_385" maskUnits="userSpaceOnUse" x="29" y="16" width="57" height="89" fill="black">
<rect fill="white" x="29" y="16" width="57" height="89"/>
<path d="M38.9375 91.0625H60.625C66.125 91.0625 70.5833 90.2708 74 88.6875C77.4167 87.1042 80.4375 84.4792 83.0625 80.8125H85.125L79.125 104H30.0625L30 101.438C31.875 97.3542 34.0833 93.4167 36.625 89.625C39.1667 85.8333 42.875 80.9792 47.75 75.0625C49.8333 72.4792 51.5833 70.3125 53 68.5625C54.4583 66.7708 55.5833 65.3958 56.375 64.4375C60.5833 59.1042 63.5833 54.4583 65.375 50.5C67.2083 46.5417 68.125 42.5417 68.125 38.5C68.125 35.0833 67.5 31.9167 66.25 29C65.0417 26.0833 63.3542 23.8125 61.1875 22.1875C59.0208 20.5208 56.6875 19.6875 54.1875 19.6875C48.9792 19.6875 46.2708 22.9375 46.0625 29.4375L45.9375 32.75C45.7708 37.8333 43.7917 40.375 40 40.375C38.1667 40.375 36.6458 39.7292 35.4375 38.4375C34.2292 37.1042 33.625 35.3958 33.625 33.3125C33.625 30.3542 34.6875 27.6458 36.8125 25.1875C38.9375 22.6875 41.8333 20.7083 45.5 19.25C49.2083 17.7917 53.2292 17.0625 57.5625 17.0625C62.3542 17.0625 66.7292 18.0208 70.6875 19.9375C74.6875 21.8542 77.7917 24.5208 80 27.9375C82.25 31.3125 83.375 35.1042 83.375 39.3125C83.375 42.3125 82.8125 45.1458 81.6875 47.8125C80.6042 50.4375 78.7708 53.2292 76.1875 56.1875C73.6458 59.1042 70.2917 62.2708 66.125 65.6875L56 74.0625C48.25 80.3958 42.5625 86.0625 38.9375 91.0625ZM44.9375 21.25C38.8958 24.625 35.875 28.7083 35.875 33.5C35.875 34.5833 36.1042 35.4792 36.5625 36.1875C37.0208 36.8542 37.625 37.1875 38.375 37.1875C39.875 37.1875 40.625 36.0625 40.625 33.8125C40.625 30.6875 40.9375 28.25 41.5625 26.5C42.1875 24.7083 43.3125 22.9583 44.9375 21.25ZM74.4375 100.875L76.625 92.5625C73.2083 94.6042 68.75 95.625 63.25 95.625H35.5C34.4583 97.5 33.5417 99.25 32.75 100.875H74.4375ZM50.4375 75C55.5625 70.375 60.3333 65.75 64.75 61.125C69.4583 56.1667 72.7083 52.0625 74.5 48.8125C76.2917 45.5625 77.1875 42.1458 77.1875 38.5625C77.1875 35.2292 76.5208 32.2708 75.1875 29.6875C73.8958 27.0625 72.0208 24.8958 69.5625 23.1875C67.1042 21.4792 64.25 20.4167 61 20C64.0833 21.75 66.4167 24.2083 68 27.375C69.625 30.5 70.4375 34.2083 70.4375 38.5C70.4375 41.875 69.8333 45.2083 68.625 48.5C67.4167 51.7917 65.5208 55.3333 62.9375 59.125C59.2708 64.4167 55.1042 69.7083 50.4375 75Z"/>
</mask>
<path d="M38.9375 91.0625H60.625C66.125 91.0625 70.5833 90.2708 74 88.6875C77.4167 87.1042 80.4375 84.4792 83.0625 80.8125H85.125L79.125 104H30.0625L30 101.438C31.875 97.3542 34.0833 93.4167 36.625 89.625C39.1667 85.8333 42.875 80.9792 47.75 75.0625C49.8333 72.4792 51.5833 70.3125 53 68.5625C54.4583 66.7708 55.5833 65.3958 56.375 64.4375C60.5833 59.1042 63.5833 54.4583 65.375 50.5C67.2083 46.5417 68.125 42.5417 68.125 38.5C68.125 35.0833 67.5 31.9167 66.25 29C65.0417 26.0833 63.3542 23.8125 61.1875 22.1875C59.0208 20.5208 56.6875 19.6875 54.1875 19.6875C48.9792 19.6875 46.2708 22.9375 46.0625 29.4375L45.9375 32.75C45.7708 37.8333 43.7917 40.375 40 40.375C38.1667 40.375 36.6458 39.7292 35.4375 38.4375C34.2292 37.1042 33.625 35.3958 33.625 33.3125C33.625 30.3542 34.6875 27.6458 36.8125 25.1875C38.9375 22.6875 41.8333 20.7083 45.5 19.25C49.2083 17.7917 53.2292 17.0625 57.5625 17.0625C62.3542 17.0625 66.7292 18.0208 70.6875 19.9375C74.6875 21.8542 77.7917 24.5208 80 27.9375C82.25 31.3125 83.375 35.1042 83.375 39.3125C83.375 42.3125 82.8125 45.1458 81.6875 47.8125C80.6042 50.4375 78.7708 53.2292 76.1875 56.1875C73.6458 59.1042 70.2917 62.2708 66.125 65.6875L56 74.0625C48.25 80.3958 42.5625 86.0625 38.9375 91.0625ZM44.9375 21.25C38.8958 24.625 35.875 28.7083 35.875 33.5C35.875 34.5833 36.1042 35.4792 36.5625 36.1875C37.0208 36.8542 37.625 37.1875 38.375 37.1875C39.875 37.1875 40.625 36.0625 40.625 33.8125C40.625 30.6875 40.9375 28.25 41.5625 26.5C42.1875 24.7083 43.3125 22.9583 44.9375 21.25ZM74.4375 100.875L76.625 92.5625C73.2083 94.6042 68.75 95.625 63.25 95.625H35.5C34.4583 97.5 33.5417 99.25 32.75 100.875H74.4375ZM50.4375 75C55.5625 70.375 60.3333 65.75 64.75 61.125C69.4583 56.1667 72.7083 52.0625 74.5 48.8125C76.2917 45.5625 77.1875 42.1458 77.1875 38.5625C77.1875 35.2292 76.5208 32.2708 75.1875 29.6875C73.8958 27.0625 72.0208 24.8958 69.5625 23.1875C67.1042 21.4792 64.25 20.4167 61 20C64.0833 21.75 66.4167 24.2083 68 27.375C69.625 30.5 70.4375 34.2083 70.4375 38.5C70.4375 41.875 69.8333 45.2083 68.625 48.5C67.4167 51.7917 65.5208 55.3333 62.9375 59.125C59.2708 64.4167 55.1042 69.7083 50.4375 75Z" fill="#F2808C"/>
<path d="M38.9375 91.0625L38.5327 90.769L37.9574 91.5625H38.9375V91.0625ZM74 88.6875L73.7898 88.2338L74 88.6875ZM83.0625 80.8125V80.3125H82.8055L82.6559 80.5214L83.0625 80.8125ZM85.125 80.8125L85.6091 80.9378L85.7708 80.3125H85.125V80.8125ZM79.125 104V104.5H79.5121L79.6091 104.125L79.125 104ZM30.0625 104L29.5626 104.012L29.5745 104.5H30.0625V104ZM30 101.438L29.5456 101.229L29.4973 101.334L29.5001 101.45L30 101.438ZM47.75 75.0625L48.1359 75.3805L48.1392 75.3764L47.75 75.0625ZM53 68.5625L52.6122 68.2469L52.6114 68.2479L53 68.5625ZM56.375 64.4375L56.7606 64.756L56.7675 64.7472L56.375 64.4375ZM65.375 50.5L64.9213 50.2899L64.9195 50.2938L65.375 50.5ZM66.25 29L65.788 29.1914L65.7904 29.197L66.25 29ZM61.1875 22.1875L60.8826 22.5838L60.8875 22.5875L61.1875 22.1875ZM46.0625 29.4375L46.5622 29.4564L46.5622 29.4535L46.0625 29.4375ZM45.9375 32.75L45.4378 32.7311L45.4378 32.7336L45.9375 32.75ZM35.4375 38.4375L35.067 38.7733L35.0724 38.7791L35.4375 38.4375ZM36.8125 25.1875L37.1908 25.5145L37.1935 25.5113L36.8125 25.1875ZM45.5 19.25L45.317 18.7847L45.3152 18.7854L45.5 19.25ZM70.6875 19.9375L70.4696 20.3875L70.4714 20.3884L70.6875 19.9375ZM80 27.9375L79.58 28.2089L79.584 28.2149L80 27.9375ZM81.6875 47.8125L81.2268 47.6181L81.2253 47.6218L81.6875 47.8125ZM76.1875 56.1875L75.8109 55.8586L75.8105 55.859L76.1875 56.1875ZM66.125 65.6875L65.808 65.3009L65.8063 65.3022L66.125 65.6875ZM56 74.0625L56.3164 74.4497L56.3187 74.4478L56 74.0625ZM44.9375 21.25L45.2998 21.5946L44.6937 20.8135L44.9375 21.25ZM36.5625 36.1875L36.1426 36.4592L36.1505 36.4708L36.5625 36.1875ZM41.5625 26.5L42.0334 26.6682L42.0346 26.6647L41.5625 26.5ZM74.4375 100.875V101.375H74.8229L74.921 101.002L74.4375 100.875ZM76.625 92.5625L77.1085 92.6897L77.4204 91.5047L76.3685 92.1333L76.625 92.5625ZM35.5 95.625V95.125H35.2058L35.0629 95.3822L35.5 95.625ZM32.75 100.875L32.3005 100.656L31.9502 101.375H32.75V100.875ZM50.4375 75L50.0625 74.6693L50.7725 75.3712L50.4375 75ZM64.75 61.125L65.1116 61.4703L65.1126 61.4693L64.75 61.125ZM75.1875 29.6875L74.7388 29.9083L74.7432 29.9168L75.1875 29.6875ZM61 20L61.0636 19.5041L60.7532 20.4348L61 20ZM68 27.375L67.5527 27.5986L67.5564 27.6057L68 27.375ZM62.9375 59.125L63.3485 59.4098L63.3507 59.4065L62.9375 59.125ZM38.9375 91.0625V91.5625H60.625V91.0625V90.5625H38.9375V91.0625ZM60.625 91.0625V91.5625C66.1668 91.5625 70.7045 90.7657 74.2102 89.1412L74 88.6875L73.7898 88.2338C70.4621 89.7759 66.0832 90.5625 60.625 90.5625V91.0625ZM74 88.6875L74.2102 89.1412C77.7194 87.5149 80.8037 84.8266 83.4691 81.1036L83.0625 80.8125L82.6559 80.5214C80.0713 84.1317 77.1139 86.6934 73.7898 88.2338L74 88.6875ZM83.0625 80.8125V81.3125H85.125V80.8125V80.3125H83.0625V80.8125ZM85.125 80.8125L84.6409 80.6872L78.6409 103.875L79.125 104L79.6091 104.125L85.6091 80.9378L85.125 80.8125ZM79.125 104V103.5H30.0625V104V104.5H79.125V104ZM30.0625 104L30.5624 103.988L30.4999 101.425L30 101.438L29.5001 101.45L29.5626 104.012L30.0625 104ZM30 101.438L30.4544 101.646C32.3181 97.5875 34.5133 93.6732 37.0403 89.9034L36.625 89.625L36.2097 89.3466C33.6534 93.1601 31.4319 97.1209 29.5456 101.229L30 101.438ZM36.625 89.625L37.0403 89.9034C39.5688 86.1315 43.2654 81.2917 48.1359 75.3804L47.75 75.0625L47.3641 74.7446C42.4846 80.6666 38.7646 85.5352 36.2097 89.3466L36.625 89.625ZM47.75 75.0625L48.1392 75.3764C50.2224 72.7932 51.9722 70.6268 53.3886 68.8771L53 68.5625L52.6114 68.2479C51.1944 69.9982 49.4442 72.1651 47.3608 74.7486L47.75 75.0625ZM53 68.5625L53.3878 68.8781C54.8459 67.0868 55.97 65.7129 56.7605 64.7559L56.375 64.4375L55.9895 64.1191C55.1967 65.0788 54.0708 66.4549 52.6122 68.2469L53 68.5625ZM56.375 64.4375L56.7675 64.7472C60.9886 59.3978 64.0155 54.7161 65.8305 50.7062L65.375 50.5L64.9195 50.2938C63.1512 54.2006 60.1781 58.8106 55.9825 64.1278L56.375 64.4375ZM65.375 50.5L65.8287 50.7101C67.6901 46.6913 68.625 42.6199 68.625 38.5H68.125H67.625C67.625 42.4635 66.7266 46.3921 64.9213 50.2899L65.375 50.5ZM68.125 38.5H68.625C68.625 35.0209 67.9882 31.7866 66.7096 28.803L66.25 29L65.7904 29.197C67.0118 32.0467 67.625 35.1458 67.625 38.5H68.125ZM66.25 29L66.7119 28.8086C65.475 25.823 63.737 23.4746 61.4875 21.7875L61.1875 22.1875L60.8875 22.5875C62.9713 24.1504 64.6083 26.3436 65.7881 29.1914L66.25 29ZM61.1875 22.1875L61.4924 21.7912C59.2469 20.0639 56.8082 19.1875 54.1875 19.1875V19.6875V20.1875C56.5668 20.1875 58.7947 20.9777 60.8826 22.5838L61.1875 22.1875ZM54.1875 19.6875V19.1875C51.4725 19.1875 49.3367 20.0399 47.8659 21.8049C46.411 23.5507 45.6687 26.1167 45.5628 29.4215L46.0625 29.4375L46.5622 29.4535C46.6647 26.2583 47.3806 23.9493 48.6341 22.4451C49.8716 20.9601 51.6942 20.1875 54.1875 20.1875V19.6875ZM46.0625 29.4375L45.5629 29.4186L45.4379 32.7311L45.9375 32.75L46.4371 32.7689L46.5621 29.4564L46.0625 29.4375ZM45.9375 32.75L45.4378 32.7336C45.356 35.2264 44.8304 37.0099 43.9336 38.1616C43.0561 39.2884 41.7723 39.875 40 39.875V40.375V40.875C42.0194 40.875 43.6209 40.1907 44.7226 38.7759C45.805 37.386 46.3523 35.3569 46.4372 32.7664L45.9375 32.75ZM40 40.375V39.875C38.2994 39.875 36.9126 39.2824 35.8026 38.0959L35.4375 38.4375L35.0724 38.7791C36.3791 40.1759 38.034 40.875 40 40.875V40.375ZM35.4375 38.4375L35.808 38.1017C34.696 36.8748 34.125 35.2926 34.125 33.3125H33.625H33.125C33.125 35.4991 33.7623 37.3336 35.067 38.7733L35.4375 38.4375ZM33.625 33.3125H34.125C34.125 30.4864 35.136 27.8916 37.1908 25.5145L36.8125 25.1875L36.4342 24.8605C34.239 27.4001 33.125 30.222 33.125 33.3125H33.625ZM36.8125 25.1875L37.1935 25.5113C39.2558 23.085 42.0787 21.1488 45.6848 19.7146L45.5 19.25L45.3152 18.7854C41.5879 20.2678 38.6192 22.29 36.4315 24.8637L36.8125 25.1875ZM45.5 19.25L45.683 19.7153C49.3281 18.2818 53.2863 17.5625 57.5625 17.5625V17.0625V16.5625C53.172 16.5625 49.0885 17.3015 45.317 18.7847L45.5 19.25ZM57.5625 17.0625V17.5625C62.2856 17.5625 66.5851 18.5066 70.4696 20.3875L70.6875 19.9375L70.9054 19.4875C66.8732 17.5351 62.4228 16.5625 57.5625 16.5625V17.0625ZM70.6875 19.9375L70.4714 20.3884C74.396 22.2689 77.4263 24.8767 79.5801 28.2089L80 27.9375L80.4199 27.6661C78.157 24.165 74.979 21.4394 70.9036 19.4866L70.6875 19.9375ZM80 27.9375L79.584 28.2149C81.7771 31.5045 82.875 35.199 82.875 39.3125H83.375H83.875C83.875 35.0094 82.7229 31.1205 80.416 27.6601L80 27.9375ZM83.375 39.3125H82.875C82.875 42.2482 82.3249 45.0152 81.2268 47.6181L81.6875 47.8125L82.1482 48.0069C83.3001 45.2764 83.875 42.3768 83.875 39.3125H83.375ZM81.6875 47.8125L81.2253 47.6218C80.1691 50.1812 78.3711 52.9268 75.8109 55.8586L76.1875 56.1875L76.5641 56.5164C79.1706 53.5315 81.0393 50.6938 82.1497 48.0032L81.6875 47.8125ZM76.1875 56.1875L75.8105 55.859C73.2927 58.7483 69.9608 61.8956 65.808 65.3009L66.125 65.6875L66.442 66.0741C70.6226 62.6461 73.9989 59.46 76.5645 56.516L76.1875 56.1875ZM66.125 65.6875L65.8063 65.3022L55.6813 73.6772L56 74.0625L56.3187 74.4478L66.4437 66.0728L66.125 65.6875ZM56 74.0625L55.6836 73.6753C47.9181 80.0213 42.1937 85.7194 38.5327 90.769L38.9375 91.0625L39.3423 91.356C42.9313 86.4056 48.5819 80.7703 56.3164 74.4497L56 74.0625ZM44.9375 21.25L44.6937 20.8135C38.5719 24.2332 35.375 28.4526 35.375 33.5H35.875H36.375C36.375 28.9641 39.2198 25.0168 45.1813 21.6865L44.9375 21.25ZM35.875 33.5H35.375C35.375 34.6526 35.619 35.6498 36.1427 36.4591L36.5625 36.1875L36.9823 35.9159C36.5893 35.3085 36.375 34.5141 36.375 33.5H35.875ZM36.5625 36.1875L36.1505 36.4708C36.6934 37.2605 37.4456 37.6875 38.375 37.6875V37.1875V36.6875C37.8044 36.6875 37.3482 36.4478 36.9745 35.9042L36.5625 36.1875ZM38.375 37.1875V37.6875C39.2707 37.6875 39.9995 37.3397 40.4785 36.6211C40.9337 35.9383 41.125 34.9773 41.125 33.8125H40.625H40.125C40.125 34.8977 39.9413 35.6242 39.6465 36.0664C39.3755 36.4728 38.9793 36.6875 38.375 36.6875V37.1875ZM40.625 33.8125H41.125C41.125 30.7113 41.4364 28.3397 42.0334 26.6682L41.5625 26.5L41.0916 26.3318C40.4386 28.1603 40.125 30.6637 40.125 33.8125H40.625ZM41.5625 26.5L42.0346 26.6647C42.6312 24.9543 43.7122 23.2636 45.2998 21.5946L44.9375 21.25L44.5752 20.9054C42.9128 22.6531 41.7438 24.4623 41.0904 26.3353L41.5625 26.5ZM74.4375 100.875L74.921 101.002L77.1085 92.6897L76.625 92.5625L76.1415 92.4353L73.954 100.748L74.4375 100.875ZM76.625 92.5625L76.3685 92.1333C73.0535 94.1142 68.6927 95.125 63.25 95.125V95.625V96.125C68.8073 96.125 73.3631 95.0941 76.8815 92.9917L76.625 92.5625ZM63.25 95.625V95.125H35.5V95.625V96.125H63.25V95.625ZM35.5 95.625L35.0629 95.3822C34.0177 97.2636 33.0967 99.0216 32.3005 100.656L32.75 100.875L33.1995 101.094C33.9866 99.4784 34.899 97.7364 35.9371 95.8678L35.5 95.625ZM32.75 100.875V101.375H74.4375V100.875V100.375H32.75V100.875ZM50.4375 75L50.7725 75.3712C55.906 70.7385 60.6857 66.1049 65.1116 61.4703L64.75 61.125L64.3884 60.7797C59.9809 65.3951 55.219 70.0115 50.1025 74.6288L50.4375 75ZM64.75 61.125L65.1126 61.4693C69.8301 56.5013 73.1151 52.3604 74.9379 49.0539L74.5 48.8125L74.0621 48.5711C72.3016 51.7646 69.0866 55.832 64.3874 60.7807L64.75 61.125ZM74.5 48.8125L74.9379 49.0539C76.7688 45.7327 77.6875 42.2333 77.6875 38.5625H77.1875H76.6875C76.6875 42.0583 75.8146 45.3923 74.0621 48.5711L74.5 48.8125ZM77.1875 38.5625H77.6875C77.6875 35.1611 77.0068 32.1222 75.6318 29.4582L75.1875 29.6875L74.7432 29.9168C76.0349 32.4195 76.6875 35.2972 76.6875 38.5625H77.1875ZM75.1875 29.6875L75.6361 29.4667C74.3061 26.7638 72.3741 24.5325 69.8478 22.7769L69.5625 23.1875L69.2772 23.5981C71.6675 25.2592 73.4856 27.3612 74.7389 29.9083L75.1875 29.6875ZM69.5625 23.1875L69.8478 22.7769C67.3174 21.0185 64.3856 19.93 61.0636 19.5041L61 20L60.9364 20.4959C64.1144 20.9034 66.8909 21.9398 69.2772 23.5981L69.5625 23.1875ZM61 20L60.7532 20.4348C63.7504 22.1359 66.0139 24.5208 67.5528 27.5986L68 27.375L68.4472 27.1514C66.8194 23.8959 64.4163 21.3641 61.2468 19.5652L61 20ZM68 27.375L67.5564 27.6057C69.1371 30.6455 69.9375 34.2713 69.9375 38.5H70.4375H70.9375C70.9375 34.1454 70.1129 30.3545 68.4436 27.1443L68 27.375ZM70.4375 38.5H69.9375C69.9375 41.8139 69.3445 45.089 68.1556 48.3277L68.625 48.5L69.0944 48.6723C70.3222 45.3276 70.9375 41.9361 70.9375 38.5H70.4375ZM68.625 48.5L68.1556 48.3277C66.965 51.5711 65.0912 55.076 62.5243 58.8435L62.9375 59.125L63.3507 59.4065C65.9505 55.5907 67.8683 52.0123 69.0944 48.6723L68.625 48.5ZM62.9375 59.125L62.5265 58.8402C58.8719 64.1145 54.7175 69.3909 50.0625 74.6693L50.4375 75L50.8125 75.3307C55.4908 70.0258 59.6697 64.7189 63.3485 59.4098L62.9375 59.125Z" fill="#F2808C" mask="url(#path-3-outside-1_15_385)"/>
</g>
<defs>
<linearGradient id="paint0_linear_15_385" x1="46.6104" y1="45.5025" x2="109.784" y2="128.892" gradientUnits="userSpaceOnUse">
<stop stop-color="#FBFFE4"/>
<stop offset="1" stop-color="#F2808C"/>
</linearGradient>
<linearGradient id="paint1_linear_15_385" x1="43.8354" y1="42.7275" x2="107.009" y2="126.117" gradientUnits="userSpaceOnUse">
<stop stop-color="#FBFFE4"/>
<stop offset="1" stop-color="#F2808C"/>
</linearGradient>
<clipPath id="clip0_15_385">
<rect width="150" height="150" fill="white"/>
</clipPath>
<clipPath id="clip1_15_385">
<rect width="111" height="111" fill="white" transform="translate(19 28)"/>
</clipPath>
</defs>
</svg>
