<svg width="150" height="150" viewBox="0 0 150 150" fill="none" xmlns="http://www.w3.org/2000/svg">
<g clip-path="url(#clip0_15_384)">
<g clip-path="url(#clip1_15_384)">
<path opacity="0.2" fill-rule="evenodd" clip-rule="evenodd" d="M77.2751 139C91.2586 139 104.669 133.445 114.557 123.557C124.445 113.669 130 100.259 130 86.275C130 72.2915 124.445 58.8806 114.557 48.9928C104.669 39.1049 91.2586 33.55 77.2751 33.55C63.2915 33.55 49.8807 39.1049 39.9928 48.9928C30.105 58.8806 24.55 72.2915 24.55 86.275C24.55 100.259 30.105 113.669 39.9928 123.557C49.8807 133.445 63.2915 139 77.2751 139ZM77.2751 127.284C88.1513 127.284 98.5821 122.963 106.273 115.273C113.963 107.582 118.284 97.1513 118.284 86.275C118.284 75.3988 113.963 64.968 106.273 57.2773C98.5821 49.5866 88.1513 45.2661 77.2751 45.2661C66.3988 45.2661 55.968 49.5866 48.2773 57.2773C40.5867 64.968 36.2661 75.3988 36.2661 86.275C36.2661 97.1513 40.5867 107.582 48.2773 115.273C55.968 122.963 66.3988 127.284 77.2751 127.284Z" fill="url(#paint0_linear_15_384)"/>
<path fill-rule="evenodd" clip-rule="evenodd" d="M74.5 36.325C68.3049 36.325 62.1705 37.5452 56.4469 39.916C50.7234 42.2867 45.5229 45.7616 41.1423 50.1422C36.7617 54.5228 33.2868 59.7234 30.916 65.4469C28.5452 71.1704 27.325 77.3049 27.325 83.5C27.325 89.6951 28.5452 95.8296 30.916 101.553C33.2868 107.277 36.7617 112.477 41.1423 116.858C45.5229 121.238 50.7234 124.713 56.4469 127.084C62.1705 129.455 68.3049 130.675 74.5 130.675C87.0116 130.675 99.0108 125.705 107.858 116.858C116.705 108.011 121.675 96.0116 121.675 83.5C121.675 70.9884 116.705 58.9893 107.858 50.1422C99.0108 41.2952 87.0116 36.325 74.5 36.325ZM21.775 83.5C21.775 76.5761 23.1388 69.7199 25.7885 63.323C28.4382 56.9261 32.3219 51.1138 37.2178 46.2178C42.1138 41.3218 47.9261 37.4381 54.323 34.7884C60.7199 32.1388 67.5761 30.775 74.5 30.775C81.424 30.775 88.2801 32.1388 94.677 34.7884C101.074 37.4381 106.886 41.3218 111.782 46.2178C116.678 51.1138 120.562 56.9261 123.212 63.323C125.861 69.7199 127.225 76.5761 127.225 83.5C127.225 97.4835 121.67 110.894 111.782 120.782C101.894 130.67 88.4836 136.225 74.5 136.225C60.5165 136.225 47.1057 130.67 37.2178 120.782C27.33 110.894 21.775 97.4835 21.775 83.5Z" fill="url(#paint1_linear_15_384)" fill-opacity="0.5"/>
</g>
<mask id="path-3-outside-1_15_384" maskUnits="userSpaceOnUse" x="32" y="16" width="45" height="89" fill="black">
<rect fill="white" x="32" y="16" width="45" height="89"/>
<path d="M33.25 104V102.062C38.5 101.312 42.3333 99.6042 44.75 96.9375C45.7917 95.7708 46.5208 94.3125 46.9375 92.5625C47.3542 90.7708 47.5625 88.2292 47.5625 84.9375V40.75C47.5625 36.5833 47.1875 33.4583 46.4375 31.375C45.7292 29.2917 44.375 27.7708 42.375 26.8125C40.4167 25.8542 37.5 25.2083 33.625 24.875V22.9375L62.0625 17V84.9375C62.0625 88.6458 62.3125 91.3542 62.8125 93.0625C63.3125 94.7708 64.2292 96.2917 65.5625 97.625C68.0208 99.9167 71.6458 101.396 76.4375 102.062V104H33.25ZM44.125 100.812H62.375L59.9375 99C59.0208 98.375 58.3125 97.8125 57.8125 97.3125C57.3542 96.8125 57.0208 96.3125 56.8125 95.8125C56.6458 95.2708 56.5625 94.5625 56.5625 93.6875V91.625V90.5625V20.6875L41.375 23.8125L46.25 26.5625C46.4167 26.6458 46.5625 26.75 46.6875 26.875L48.1875 27.8125C49.2708 28.6875 49.8333 30.0208 49.875 31.8125V33.875L49.9375 34.9375V90.5625V91.625C49.8958 91.7917 49.875 92.4792 49.875 93.6875C49.875 94.9375 49.6667 95.875 49.25 96.5C48.875 97.125 47.9792 97.9583 46.5625 99L44.125 100.812Z"/>
</mask>
<path d="M33.25 104V102.062C38.5 101.312 42.3333 99.6042 44.75 96.9375C45.7917 95.7708 46.5208 94.3125 46.9375 92.5625C47.3542 90.7708 47.5625 88.2292 47.5625 84.9375V40.75C47.5625 36.5833 47.1875 33.4583 46.4375 31.375C45.7292 29.2917 44.375 27.7708 42.375 26.8125C40.4167 25.8542 37.5 25.2083 33.625 24.875V22.9375L62.0625 17V84.9375C62.0625 88.6458 62.3125 91.3542 62.8125 93.0625C63.3125 94.7708 64.2292 96.2917 65.5625 97.625C68.0208 99.9167 71.6458 101.396 76.4375 102.062V104H33.25ZM44.125 100.812H62.375L59.9375 99C59.0208 98.375 58.3125 97.8125 57.8125 97.3125C57.3542 96.8125 57.0208 96.3125 56.8125 95.8125C56.6458 95.2708 56.5625 94.5625 56.5625 93.6875V91.625V90.5625V20.6875L41.375 23.8125L46.25 26.5625C46.4167 26.6458 46.5625 26.75 46.6875 26.875L48.1875 27.8125C49.2708 28.6875 49.8333 30.0208 49.875 31.8125V33.875L49.9375 34.9375V90.5625V91.625C49.8958 91.7917 49.875 92.4792 49.875 93.6875C49.875 94.9375 49.6667 95.875 49.25 96.5C48.875 97.125 47.9792 97.9583 46.5625 99L44.125 100.812Z" fill="#F2808C"/>
<path d="M33.25 104H32.75V104.5H33.25V104ZM33.25 102.062L33.1793 101.568L32.75 101.629V102.062H33.25ZM44.75 96.9375L45.1205 97.2733L45.123 97.2705L44.75 96.9375ZM46.9375 92.5625L47.4239 92.6783L47.4245 92.6758L46.9375 92.5625ZM46.4375 31.375L45.964 31.536L45.9671 31.5444L46.4375 31.375ZM42.375 26.8125L42.1552 27.2616L42.1589 27.2634L42.375 26.8125ZM33.625 24.875H33.125V25.3338L33.5821 25.3732L33.625 24.875ZM33.625 22.9375L33.5228 22.4481L33.125 22.5311V22.9375H33.625ZM62.0625 17H62.5625V16.3848L61.9603 16.5106L62.0625 17ZM65.5625 97.625L65.2089 97.9786L65.2151 97.9848L65.2216 97.9907L65.5625 97.625ZM76.4375 102.062H76.9375V101.627L76.5064 101.567L76.4375 102.062ZM76.4375 104V104.5H76.9375V104H76.4375ZM44.125 100.812L43.8266 100.411L42.6146 101.312H44.125V100.812ZM62.375 100.812V101.312H63.8854L62.6734 100.411L62.375 100.812ZM59.9375 99L60.2359 98.5988L60.2276 98.5927L60.2192 98.5869L59.9375 99ZM57.8125 97.3125L57.4439 97.6504L57.4513 97.6584L57.4589 97.6661L57.8125 97.3125ZM56.8125 95.8125L56.3346 95.9595L56.3417 95.9826L56.351 96.0048L56.8125 95.8125ZM56.5625 20.6875H57.0625V20.0741L56.4617 20.1978L56.5625 20.6875ZM41.375 23.8125L41.2742 23.3228L39.9663 23.5919L41.1293 24.248L41.375 23.8125ZM46.25 26.5625L46.0043 26.998L46.0152 27.0041L46.0264 27.0097L46.25 26.5625ZM46.6875 26.875L46.3339 27.2286L46.3742 27.2688L46.4225 27.299L46.6875 26.875ZM48.1875 27.8125L48.5017 27.4235L48.4781 27.4045L48.4525 27.3885L48.1875 27.8125ZM49.875 31.8125H50.3751L50.3749 31.8009L49.875 31.8125ZM49.875 33.875H49.375V33.8897L49.3759 33.9044L49.875 33.875ZM49.9375 34.9375H50.4375V34.9228L50.4366 34.9081L49.9375 34.9375ZM49.9375 91.625L50.4226 91.7463L50.4375 91.6866V91.625H49.9375ZM49.25 96.5L48.834 96.2226L48.8274 96.2326L48.8213 96.2428L49.25 96.5ZM46.5625 99L46.2663 98.5972L46.2641 98.5988L46.5625 99ZM33.25 104H33.75V102.062H33.25H32.75V104H33.25ZM33.25 102.062L33.3207 102.557C38.6332 101.799 42.5959 100.059 45.1205 97.2733L44.75 96.9375L44.3795 96.6017C42.0708 99.1493 38.3668 100.826 33.1793 101.568L33.25 102.062ZM44.75 96.9375L45.123 97.2705C46.2277 96.0332 46.9909 94.4968 47.4239 92.6783L46.9375 92.5625L46.4511 92.4467C46.0507 94.1282 45.3557 95.5084 44.377 96.6045L44.75 96.9375ZM46.9375 92.5625L47.4245 92.6758C47.854 90.8287 48.0625 88.2424 48.0625 84.9375H47.5625H47.0625C47.0625 88.2159 46.8543 90.7129 46.4505 92.4492L46.9375 92.5625ZM47.5625 84.9375H48.0625V40.75H47.5625H47.0625V84.9375H47.5625ZM47.5625 40.75H48.0625C48.0625 36.5672 47.6879 33.3721 46.9079 31.2056L46.4375 31.375L45.9671 31.5444C46.6871 33.5446 47.0625 36.5995 47.0625 40.75H47.5625ZM46.4375 31.375L46.9109 31.214C46.1589 29.0023 44.7113 27.3775 42.5911 26.3616L42.375 26.8125L42.1589 27.2634C44.0387 28.1641 45.2995 29.5811 45.9641 31.536L46.4375 31.375ZM42.375 26.8125L42.5948 26.3634C40.5535 25.3645 37.5639 24.712 33.6679 24.3768L33.625 24.875L33.5821 25.3732C37.4361 25.7047 40.2798 26.3439 42.1552 27.2616L42.375 26.8125ZM33.625 24.875H34.125V22.9375H33.625H33.125V24.875H33.625ZM33.625 22.9375L33.7272 23.4269L62.1647 17.4894L62.0625 17L61.9603 16.5106L33.5228 22.4481L33.625 22.9375ZM62.0625 17H61.5625V84.9375H62.0625H62.5625V17H62.0625ZM62.0625 84.9375H61.5625C61.5625 88.6535 61.8114 91.4222 62.3326 93.2029L62.8125 93.0625L63.2924 92.9221C62.8136 91.2861 62.5625 88.6381 62.5625 84.9375H62.0625ZM62.8125 93.0625L62.3326 93.2029C62.8576 94.9966 63.8199 96.5895 65.2089 97.9786L65.5625 97.625L65.9161 97.2714C64.6384 95.9938 63.7674 94.5451 63.2924 92.9221L62.8125 93.0625ZM65.5625 97.625L65.2216 97.9907C67.7816 100.377 71.518 101.883 76.3686 102.558L76.4375 102.062L76.5064 101.567C71.7737 100.909 68.2601 99.4562 65.9034 97.2593L65.5625 97.625ZM76.4375 102.062H75.9375V104H76.4375H76.9375V102.062H76.4375ZM76.4375 104V103.5H33.25V104V104.5H76.4375V104ZM44.125 100.812V101.312H62.375V100.812V100.312H44.125V100.812ZM62.375 100.812L62.6734 100.411L60.2359 98.5988L59.9375 99L59.6391 99.4012L62.0766 101.214L62.375 100.812ZM59.9375 99L60.2192 98.5869C59.3155 97.9708 58.6353 97.4282 58.1661 96.9589L57.8125 97.3125L57.4589 97.6661C57.9897 98.1968 58.7262 98.7792 59.6558 99.4131L59.9375 99ZM57.8125 97.3125L58.1811 96.9746C57.7525 96.507 57.4552 96.0551 57.274 95.6202L56.8125 95.8125L56.351 96.0048C56.5864 96.5699 56.9559 97.118 57.4439 97.6504L57.8125 97.3125ZM56.8125 95.8125L57.2904 95.6655C57.1441 95.1899 57.0625 94.5366 57.0625 93.6875H56.5625H56.0625C56.0625 94.5884 56.1476 95.3517 56.3346 95.9595L56.8125 95.8125ZM56.5625 93.6875H57.0625V91.625H56.5625H56.0625V93.6875H56.5625ZM56.5625 91.625H57.0625V90.5625H56.5625H56.0625V91.625H56.5625ZM56.5625 90.5625H57.0625V20.6875H56.5625H56.0625V90.5625H56.5625ZM56.5625 20.6875L56.4617 20.1978L41.2742 23.3228L41.375 23.8125L41.4758 24.3022L56.6633 21.1772L56.5625 20.6875ZM41.375 23.8125L41.1293 24.248L46.0043 26.998L46.25 26.5625L46.4957 26.127L41.6207 23.377L41.375 23.8125ZM46.25 26.5625L46.0264 27.0097C46.1476 27.0703 46.249 27.1436 46.3339 27.2286L46.6875 26.875L47.0411 26.5214C46.876 26.3564 46.6857 26.2213 46.4736 26.1153L46.25 26.5625ZM46.6875 26.875L46.4225 27.299L47.9225 28.2365L48.1875 27.8125L48.4525 27.3885L46.9525 26.451L46.6875 26.875ZM48.1875 27.8125L47.8733 28.2015C48.8112 28.959 49.3358 30.1341 49.3751 31.8241L49.875 31.8125L50.3749 31.8009C50.3308 29.9076 49.7305 28.416 48.5017 27.4235L48.1875 27.8125ZM49.875 31.8125H49.375V33.875H49.875H50.375V31.8125H49.875ZM49.875 33.875L49.3759 33.9044L49.4384 34.9669L49.9375 34.9375L50.4366 34.9081L50.3741 33.8456L49.875 33.875ZM49.9375 34.9375H49.4375V90.5625H49.9375H50.4375V34.9375H49.9375ZM49.9375 90.5625H49.4375V91.625H49.9375H50.4375V90.5625H49.9375ZM49.9375 91.625L49.4524 91.5037C49.4304 91.592 49.4192 91.7056 49.4115 91.8112C49.4029 91.928 49.3962 92.0752 49.3909 92.2505C49.3802 92.6017 49.375 93.0814 49.375 93.6875H49.875H50.375C50.375 93.0852 50.3802 92.6171 50.3904 92.2808C50.3955 92.1123 50.4017 91.9809 50.4088 91.8841C50.4167 91.7762 50.4238 91.7413 50.4226 91.7463L49.9375 91.625ZM49.875 93.6875H49.375C49.375 94.8977 49.1704 95.718 48.834 96.2226L49.25 96.5L49.666 96.7774C50.1629 96.032 50.375 94.9773 50.375 93.6875H49.875ZM49.25 96.5L48.8213 96.2428C48.5033 96.7726 47.6843 97.5545 46.2663 98.5972L46.5625 99L46.8587 99.4028C48.274 98.3622 49.2467 97.4774 49.6787 96.7572L49.25 96.5ZM46.5625 99L46.2641 98.5988L43.8266 100.411L44.125 100.812L44.4234 101.214L46.8609 99.4012L46.5625 99Z" fill="#F2808C" mask="url(#path-3-outside-1_15_384)"/>
</g>
<defs>
<linearGradient id="paint0_linear_15_384" x1="46.6104" y1="45.5025" x2="109.784" y2="128.892" gradientUnits="userSpaceOnUse">
<stop stop-color="#FBFFE4"/>
<stop offset="1" stop-color="#F2808C"/>
</linearGradient>
<linearGradient id="paint1_linear_15_384" x1="43.8354" y1="42.7275" x2="107.009" y2="126.117" gradientUnits="userSpaceOnUse">
<stop stop-color="#FBFFE4"/>
<stop offset="1" stop-color="#F2808C"/>
</linearGradient>
<clipPath id="clip0_15_384">
<rect width="150" height="150" fill="white"/>
</clipPath>
<clipPath id="clip1_15_384">
<rect width="111" height="111" fill="white" transform="translate(19 28)"/>
</clipPath>
</defs>
</svg>
